<?xml version="1.0" encoding="utf-8"?>
<!-- Generator: Adobe Illustrator 27.1.1, SVG Export Plug-In . SVG Version: 6.00 Build 0)  -->
<svg version="1.1" id="Warstwa_1" xmlns="http://www.w3.org/2000/svg" xmlns:xlink="http://www.w3.org/1999/xlink" x="0px" y="0px"
	 viewBox="0 0 34.6 9.92" style="enable-background:new 0 0 34.6 9.92;" xml:space="preserve">
<style type="text/css">
	.st0{fill:#FFFFFF;}
</style>
<g>
	<path d="M0,8.71l3.65-5.27H0.34V1.96h5.5v1.07L2.19,8.29h3.7v1.48H0V8.71z"/>
	<path d="M7.26,8.13c0-1.33,1.1-2.01,3.91-2.18c-0.06-0.53-0.46-0.86-1.26-0.86c-0.57,0-1.14,0.22-1.81,0.56L7.47,4.49
		c0.82-0.47,1.77-0.8,2.78-0.8c1.67,0,2.69,0.87,2.69,2.69v3.4H11.5l-0.13-0.67h-0.04c-0.6,0.45-1.35,0.81-2.11,0.81
		C8.01,9.92,7.26,9.13,7.26,8.13z M11.17,7.99V7.01C9.42,7.1,8.95,7.48,8.95,7.99c0,0.38,0.32,0.57,0.82,0.57
		C10.3,8.56,10.75,8.31,11.17,7.99z"/>
	<path d="M14.36,9.01l0.75-1.1c0.73,0.45,1.55,0.71,2.4,0.71c0.65,0,0.94-0.22,0.94-0.51c0-0.33-0.29-0.45-1.46-0.7
		c-1.62-0.35-2.26-0.94-2.26-1.86c0-1.11,1.04-1.86,2.73-1.86c1.06,0,1.96,0.42,2.58,0.81l-0.79,1.06c-0.6-0.36-1.29-0.57-1.95-0.57
		c-0.55,0-0.82,0.2-0.82,0.48c0,0.33,0.37,0.41,1.37,0.63c1.84,0.41,2.35,0.93,2.35,1.9c0,1.08-1.03,1.92-2.94,1.92
		C16.21,9.92,15.11,9.51,14.36,9.01z"/>
	<path d="M21.67,7.5V3.83h1.77v3.45c0,0.79,0.21,1.14,0.87,1.14c0.44,0,0.75-0.16,1.15-0.68V3.83h1.77v5.95h-1.44l-0.13-0.85H25.6
		c-0.53,0.61-1.15,1-2.01,1C22.24,9.92,21.67,9,21.67,7.5z"/>
	<path d="M28.99,3.83h1.44l0.13,0.79h0.05c0.52-0.51,1.17-0.94,2.06-0.94C34,3.68,34.6,4.6,34.6,6.1v3.67h-1.77V6.33
		c0-0.79-0.23-1.14-0.87-1.14c-0.47,0-0.79,0.22-1.2,0.62v3.97h-1.77V3.83z M30.96,2.19L32.8,0L34,1.17l-2.17,1.88L30.96,2.19z"/>
</g>
</svg>
