<?xml version="1.0" encoding="utf-8"?>
<!-- Generator: Adobe Illustrator 27.2.0, SVG Export Plug-In . SVG Version: 6.00 Build 0)  -->
<svg version="1.1" id="Warstwa_1" xmlns="http://www.w3.org/2000/svg" xmlns:xlink="http://www.w3.org/1999/xlink" x="0px" y="0px"
	 viewBox="0 0 34.12 8.06" style="enable-background:new 0 0 34.12 8.06;" xml:space="preserve">
<style type="text/css">
	.st0{fill:#FFFFFF;}
</style>
<g>
	<path d="M0,7.58l4.82-7.12H0.41V0h5.08v0.33L0.66,7.44h4.91v0.48H0V7.58z"/>
	<path d="M7.46,6.48c0-1.29,1.29-1.9,4.42-2.17c-0.01-0.95-0.39-1.83-1.71-1.83c-0.87,0-1.71,0.45-2.18,0.78L7.74,2.87
		C8.2,2.54,9.2,2.01,10.23,2.01c1.54,0,2.18,0.99,2.18,2.22v3.68h-0.45L11.9,7.05h-0.03c-0.66,0.53-1.55,1.01-2.4,1.01
		C8.44,8.06,7.46,7.56,7.46,6.48z M11.88,6.56V4.71C8.94,4.98,8,5.53,8,6.45C8,7.28,8.78,7.6,9.56,7.6
		C10.29,7.6,11.06,7.24,11.88,6.56z"/>
	<path d="M14.54,7.15l0.28-0.39c0.64,0.5,1.4,0.84,2.61,0.84c1.18,0,1.78-0.53,1.78-1.14c0-0.52-0.2-0.94-2.03-1.31
		c-1.46-0.29-2.3-0.77-2.3-1.62c0-0.83,0.71-1.53,2.25-1.53c0.77,0,1.66,0.3,2.21,0.71L19.06,3.1c-0.51-0.38-1.18-0.64-1.96-0.64
		c-1.25,0-1.66,0.51-1.66,1.05c0,0.61,0.59,0.91,1.9,1.18c1.99,0.42,2.43,0.88,2.43,1.74c0,0.87-0.86,1.63-2.38,1.63
		C16.2,8.06,15.22,7.63,14.54,7.15z"/>
	<path d="M21.8,5.74V2.16h0.53v3.52c0,1.28,0.48,1.91,1.62,1.91c0.81,0,1.42-0.41,2.2-1.3V2.16h0.53v5.76h-0.45L26.18,6.8h-0.05
		c-0.62,0.73-1.34,1.26-2.27,1.26C22.47,8.06,21.8,7.3,21.8,5.74z"/>
	<path d="M29.22,2.16h0.45l0.06,1.11h0.05c0.66-0.71,1.34-1.25,2.27-1.25c1.4,0,2.07,0.75,2.07,2.32v3.59h-0.53V4.4
		c0-1.29-0.48-1.91-1.62-1.91c-0.82,0-1.38,0.43-2.21,1.3v4.13h-0.53V2.16z"/>
	<rect x="29.22" width="4.9" height="0.47"/>
</g>
</svg>
