<?xml version="1.0" encoding="utf-8"?>
<!-- Generator: Adobe Illustrator 27.2.0, SVG Export Plug-In . SVG Version: 6.00 Build 0)  -->
<svg version="1.1" id="Warstwa_1" xmlns="http://www.w3.org/2000/svg" xmlns:xlink="http://www.w3.org/1999/xlink" x="0px" y="0px"
	 viewBox="0 0 34.3 8.03" style="enable-background:new 0 0 34.3 8.03;" xml:space="preserve">
<style type="text/css">
	.st0{fill:#FFFFFF;}
</style>
<rect x="428.44" y="171.02" width="5.88" height="1.47"/>
<g>
	<g>
		<path d="M385.95,29.34c-0.06,0-0.08-0.04-0.08-0.11v-0.05c0-0.05,0.01-0.1,0.04-0.14l2-5.24c0.09-0.22,0.18-0.43,0.27-0.65
			c0.09-0.22,0.18-0.43,0.26-0.63v-0.02c-0.15,0.01-0.31,0.01-0.47,0.02s-0.32,0.01-0.47,0.01h-1.32c-0.06,0-0.1-0.04-0.1-0.13V21.6
			c0-0.08,0.03-0.12,0.1-0.12h3.62c0.06,0,0.1,0.04,0.1,0.11v0.04c0,0.02,0,0.05-0.01,0.08c0,0.03-0.01,0.05-0.02,0.08l-2.11,5.41
			c-0.07,0.19-0.15,0.38-0.23,0.57s-0.16,0.37-0.24,0.55v0.02c0.18-0.01,0.34-0.01,0.48-0.02s0.29-0.01,0.43-0.01h1.4
			c0.06,0,0.1,0.04,0.1,0.13v0.78c0,0.08-0.03,0.12-0.1,0.12H385.95z"/>
		<path d="M391.4,29.41c-0.33,0-0.58-0.14-0.77-0.41c-0.18-0.28-0.28-0.66-0.28-1.16c0-0.55,0.12-0.99,0.37-1.31
			c0.25-0.32,0.66-0.52,1.22-0.58l0.66-0.08l-0.01,0.73l-0.46,0.07c-0.25,0.02-0.43,0.12-0.55,0.3c-0.12,0.18-0.17,0.42-0.17,0.74
			c0,0.25,0.03,0.44,0.1,0.57c0.07,0.13,0.17,0.2,0.29,0.2c0.12,0,0.24-0.05,0.37-0.15c0.13-0.1,0.28-0.28,0.47-0.55l0.07,0.76
			c-0.25,0.32-0.47,0.55-0.67,0.68C391.87,29.34,391.64,29.41,391.4,29.41z M392.78,29.34c-0.06,0-0.09-0.04-0.11-0.12
			c-0.02-0.14-0.03-0.31-0.05-0.52s-0.02-0.39-0.02-0.55l-0.1-0.11v-3c0-0.28-0.03-0.47-0.1-0.58s-0.19-0.16-0.38-0.16
			c-0.19,0-0.32,0.06-0.4,0.17c-0.07,0.12-0.1,0.3-0.07,0.56c0.01,0.08-0.03,0.12-0.11,0.12h-0.77c-0.09,0-0.14-0.05-0.14-0.14
			c-0.04-0.52,0.07-0.92,0.33-1.21c0.26-0.28,0.66-0.43,1.19-0.43c0.54,0,0.94,0.13,1.18,0.38c0.24,0.25,0.36,0.68,0.36,1.28v2.82
			c0,0.34,0,0.61,0.01,0.83c0.01,0.22,0.02,0.39,0.02,0.52c0.02,0.09-0.01,0.13-0.07,0.13H392.78z"/>
		<path d="M395.94,29.41c-0.56,0-0.96-0.15-1.21-0.46c-0.24-0.31-0.34-0.76-0.29-1.35c0-0.08,0.04-0.12,0.11-0.12h0.83
			c0.06,0,0.1,0.04,0.1,0.11c-0.02,0.34,0.01,0.57,0.08,0.71c0.07,0.14,0.2,0.21,0.4,0.21c0.34,0,0.52-0.22,0.52-0.67
			c0-0.19-0.03-0.35-0.1-0.48s-0.18-0.26-0.34-0.38l-0.84-0.64c-0.24-0.18-0.42-0.4-0.55-0.64c-0.12-0.24-0.19-0.53-0.19-0.88
			c0-0.46,0.13-0.82,0.38-1.07c0.26-0.25,0.64-0.37,1.14-0.37c0.52,0,0.91,0.14,1.16,0.42c0.25,0.28,0.36,0.67,0.33,1.18
			c0,0.07-0.04,0.11-0.11,0.11h-0.82c-0.03,0-0.06-0.01-0.08-0.02s-0.03-0.05-0.02-0.11c0.02-0.22-0.01-0.38-0.08-0.5
			c-0.07-0.12-0.2-0.17-0.37-0.17c-0.3,0-0.46,0.17-0.46,0.52c0,0.18,0.03,0.34,0.1,0.46s0.18,0.24,0.33,0.36l0.8,0.62
			c0.28,0.22,0.48,0.44,0.59,0.67c0.12,0.23,0.17,0.52,0.17,0.88c0,0.53-0.13,0.93-0.4,1.21C396.88,29.27,396.48,29.41,395.94,29.41
			z"/>
		<path d="M399.39,29.41c-0.38,0-0.65-0.12-0.81-0.36c-0.16-0.24-0.23-0.62-0.23-1.14v-4.32c0-0.09,0.04-0.13,0.11-0.13h0.88
			c0.07,0,0.11,0.04,0.11,0.13v4.2c0,0.25,0.03,0.41,0.08,0.5c0.06,0.08,0.15,0.13,0.29,0.13c0.16,0,0.32-0.06,0.47-0.19
			c0.16-0.12,0.3-0.29,0.44-0.51l0.14,0.7c-0.2,0.29-0.43,0.53-0.68,0.71S399.66,29.41,399.39,29.41z M400.86,29.34
			c-0.06,0-0.09-0.04-0.11-0.12c-0.02-0.15-0.03-0.34-0.05-0.55c-0.02-0.22-0.02-0.39-0.02-0.52l-0.1-0.18v-4.38
			c0-0.09,0.04-0.13,0.11-0.13h0.88c0.07,0,0.11,0.04,0.11,0.13v4.27c0,0.31,0,0.58,0.01,0.8c0,0.22,0.01,0.4,0.03,0.53
			c0.01,0.1-0.02,0.14-0.1,0.14H400.86z"/>
		<path d="M402.75,29.34c-0.07,0-0.11-0.04-0.11-0.12v-4.28c0-0.31,0-0.58-0.01-0.8c0-0.22-0.01-0.4-0.03-0.53
			c-0.01-0.1,0.02-0.14,0.08-0.14h0.76c0.07,0,0.11,0.04,0.12,0.12c0.02,0.14,0.04,0.33,0.05,0.55s0.02,0.39,0.02,0.52l0.1,0.18
			v4.39c0,0.08-0.04,0.12-0.11,0.12H402.75z M405.06,29.34c-0.07,0-0.11-0.04-0.11-0.12v-4.2c0-0.22-0.03-0.39-0.1-0.49
			c-0.07-0.1-0.17-0.15-0.32-0.15c-0.14,0-0.28,0.05-0.42,0.16s-0.3,0.25-0.46,0.44l-0.13-0.67c0.22-0.28,0.45-0.5,0.69-0.67
			c0.24-0.17,0.51-0.25,0.8-0.25c0.34,0,0.6,0.12,0.77,0.37s0.26,0.62,0.26,1.13v4.33c0,0.08-0.04,0.12-0.11,0.12H405.06z
			 M403.77,22.65c-0.04,0-0.07-0.01-0.08-0.04c-0.01-0.02-0.01-0.06,0.01-0.1l0.78-1.46c0.02-0.06,0.07-0.1,0.14-0.1h0.79
			c0.04,0,0.07,0.01,0.08,0.04c0.02,0.03,0.01,0.06-0.02,0.1l-0.9,1.46c-0.04,0.06-0.1,0.08-0.18,0.08H403.77z"/>
	</g>
</g>
<g>
	<g>
		<path d="M409.89,29.34c-0.05,0-0.07-0.03-0.07-0.08v-0.04c0-0.04,0.01-0.08,0.04-0.13l2.14-5.6c0.08-0.21,0.16-0.41,0.24-0.62
			c0.08-0.2,0.16-0.41,0.24-0.62v-0.02c-0.15,0.01-0.3,0.01-0.45,0.01s-0.3,0-0.45,0h-1.44c-0.06,0-0.08-0.04-0.08-0.11v-0.54
			c0-0.07,0.03-0.11,0.08-0.11h3.32c0.06,0,0.08,0.03,0.08,0.08v0.02c0,0.02,0,0.05-0.01,0.07c0,0.02-0.01,0.05-0.02,0.07
			l-2.24,5.81c-0.06,0.18-0.13,0.35-0.2,0.52s-0.14,0.34-0.21,0.52v0.02c0.18-0.01,0.34-0.01,0.47-0.01s0.27,0,0.42,0h1.51
			c0.06,0,0.08,0.04,0.08,0.11v0.54c0,0.07-0.03,0.11-0.08,0.11H409.89z"/>
		<path d="M413.73,29.34c-0.06,0-0.08-0.04-0.07-0.12l1.56-7.66c0.01-0.06,0.04-0.08,0.11-0.08h0.84c0.06,0,0.1,0.03,0.11,0.08
			l1.57,7.66c0.01,0.08-0.02,0.12-0.07,0.12h-0.66c-0.05,0-0.08-0.02-0.1-0.07l-0.97-5.2c-0.06-0.28-0.11-0.56-0.16-0.83
			c-0.05-0.28-0.1-0.55-0.14-0.83h-0.02c-0.04,0.28-0.08,0.56-0.13,0.83s-0.09,0.56-0.15,0.85l-0.97,5.18
			c-0.01,0.05-0.04,0.07-0.08,0.07H413.73z M414.69,27.41l0.14-0.76h1.8l0.17,0.76H414.69z"/>
		<path d="M419.83,29.41c-0.43,0-0.78-0.1-1.03-0.29c-0.26-0.19-0.43-0.45-0.53-0.79c-0.1-0.33-0.13-0.71-0.1-1.13
			c0.01-0.08,0.04-0.12,0.08-0.12h0.6c0.06,0,0.09,0.04,0.08,0.12c-0.06,0.49,0,0.85,0.16,1.09c0.16,0.24,0.42,0.36,0.76,0.36
			c0.31,0,0.55-0.09,0.7-0.28c0.16-0.19,0.23-0.48,0.23-0.88c0-0.35-0.05-0.64-0.14-0.87c-0.1-0.23-0.26-0.43-0.5-0.61l-0.97-0.77
			c-0.33-0.26-0.57-0.55-0.73-0.87c-0.16-0.32-0.23-0.71-0.23-1.17c0.01-0.57,0.15-1.01,0.44-1.33c0.28-0.32,0.68-0.47,1.18-0.47
			c0.59,0,1.03,0.19,1.3,0.58c0.28,0.38,0.38,0.91,0.32,1.57c0,0.09-0.03,0.13-0.08,0.13h-0.61c-0.06,0-0.08-0.04-0.07-0.13
			c0.05-0.45,0-0.79-0.16-1.03c-0.15-0.24-0.38-0.36-0.68-0.36c-0.26,0-0.46,0.08-0.61,0.25s-0.23,0.42-0.24,0.77
			c0,0.32,0.06,0.59,0.17,0.82c0.11,0.22,0.28,0.43,0.52,0.61l0.94,0.73c0.23,0.18,0.42,0.36,0.56,0.56
			c0.14,0.2,0.24,0.42,0.31,0.67c0.06,0.25,0.1,0.55,0.1,0.88c0,0.61-0.14,1.09-0.43,1.43C420.87,29.24,420.43,29.41,419.83,29.41z"
			/>
		<path d="M424.32,29.41c-0.63,0-1.09-0.2-1.39-0.61c-0.29-0.41-0.44-1.02-0.44-1.85v-5.38c0-0.06,0.03-0.1,0.08-0.1h0.61
			c0.06,0,0.08,0.03,0.08,0.1v5.36c0,0.59,0.08,1.03,0.25,1.3c0.16,0.28,0.43,0.41,0.8,0.41c0.38,0,0.65-0.14,0.81-0.41
			s0.25-0.71,0.25-1.31v-5.36c0-0.06,0.03-0.1,0.08-0.1h0.61c0.06,0,0.08,0.03,0.08,0.1v5.38c0,0.82-0.15,1.44-0.46,1.85
			C425.39,29.21,424.93,29.41,424.32,29.41z"/>
		<path d="M427.42,29.34c-0.05,0-0.07-0.04-0.07-0.11v-7.64c0-0.07,0.03-0.11,0.08-0.11h0.98c0.06,0,0.09,0.02,0.1,0.07l1.3,4.61
			c0.06,0.21,0.13,0.44,0.19,0.7c0.06,0.26,0.13,0.52,0.19,0.78c0.06,0.26,0.11,0.49,0.15,0.7h0.02c-0.01-0.16-0.02-0.34-0.02-0.53
			c-0.01-0.19-0.01-0.39-0.02-0.59c0-0.2-0.01-0.4-0.01-0.59c0-0.19-0.01-0.37-0.01-0.53v-4.54c0-0.06,0.03-0.1,0.08-0.1h0.59
			c0.06,0,0.08,0.03,0.08,0.1v7.66c0,0.07-0.03,0.11-0.08,0.11h-0.98c-0.04,0-0.07-0.02-0.08-0.06l-1.26-4.46
			c-0.12-0.42-0.22-0.83-0.31-1.23s-0.17-0.77-0.24-1.11h-0.02c0.01,0.23,0.01,0.49,0.02,0.77c0,0.28,0.01,0.57,0.01,0.85
			c0,0.28,0.01,0.54,0.01,0.77v4.36c0,0.07-0.02,0.11-0.07,0.11H427.42z M428.7,20.77c-0.03,0-0.05-0.01-0.06-0.03
			c-0.01-0.02,0-0.05,0.01-0.08l0.62-1.22c0.04-0.06,0.08-0.08,0.13-0.08h0.62c0.04,0,0.06,0.01,0.07,0.04
			c0.01,0.03,0,0.06-0.02,0.1l-0.73,1.2c-0.02,0.05-0.06,0.07-0.14,0.07H428.7z"/>
	</g>
</g>
<g>
	<g>
		<path d="M435.93,29.47c-0.06,0-0.08-0.03-0.08-0.08v-0.02c0-0.07,0.01-0.12,0.04-0.16l1.61-3.79c0.07-0.18,0.14-0.35,0.21-0.51
			s0.13-0.33,0.2-0.51v-0.01c-0.13,0-0.25,0-0.37,0s-0.25,0-0.38,0h-1.03c-0.06,0-0.08-0.03-0.08-0.1v-0.54
			c0-0.07,0.03-0.11,0.08-0.11h2.74c0.06,0,0.08,0.02,0.08,0.07v0.02c0,0.06-0.01,0.11-0.04,0.16l-1.61,3.8
			c-0.07,0.17-0.14,0.34-0.22,0.5c-0.07,0.17-0.14,0.34-0.2,0.5v0.01c0.14,0,0.26,0,0.37,0s0.23,0,0.35,0h1.15
			c0.06,0,0.08,0.04,0.08,0.11v0.54c0,0.07-0.03,0.11-0.08,0.11H435.93z"/>
		<path d="M440.52,29.54c-0.31,0-0.55-0.14-0.73-0.41c-0.17-0.27-0.26-0.65-0.26-1.14c0-0.54,0.12-0.98,0.36-1.31
			c0.24-0.33,0.63-0.53,1.18-0.58l0.62-0.07v0.64l-0.54,0.07c-0.28,0.03-0.49,0.15-0.63,0.35c-0.14,0.2-0.21,0.48-0.21,0.85
			c0,0.26,0.04,0.47,0.12,0.62c0.08,0.15,0.19,0.23,0.32,0.23c0.14,0,0.27-0.05,0.41-0.16c0.14-0.11,0.32-0.31,0.55-0.61l0.04,0.7
			c-0.24,0.3-0.45,0.51-0.62,0.64C440.96,29.48,440.76,29.54,440.52,29.54z M441.81,29.47c-0.05,0-0.08-0.04-0.08-0.11
			c-0.02-0.14-0.03-0.33-0.05-0.55c-0.02-0.22-0.02-0.41-0.02-0.56l-0.05-0.06v-3.02c0-0.33-0.04-0.55-0.11-0.68
			c-0.08-0.12-0.23-0.19-0.46-0.19c-0.22,0-0.38,0.06-0.47,0.19c-0.09,0.12-0.12,0.33-0.1,0.61c0,0.07-0.03,0.11-0.1,0.11h-0.53
			c-0.08,0-0.12-0.05-0.13-0.14c-0.04-0.47,0.05-0.84,0.28-1.1c0.23-0.26,0.58-0.4,1.05-0.4c0.49,0,0.83,0.12,1.04,0.35
			c0.2,0.23,0.31,0.64,0.31,1.24v2.88c0,0.32,0,0.59,0.01,0.82c0.01,0.22,0.02,0.39,0.02,0.5c0.01,0.08-0.01,0.12-0.06,0.12H441.81z
			"/>
		<path d="M444.7,29.54c-0.49,0-0.84-0.15-1.07-0.46c-0.22-0.3-0.32-0.75-0.28-1.33c0-0.06,0.03-0.1,0.08-0.1h0.61
			c0.05,0,0.07,0.03,0.07,0.08c-0.01,0.38,0.03,0.66,0.11,0.82c0.08,0.16,0.25,0.24,0.49,0.24c0.41,0,0.61-0.26,0.61-0.79
			c0-0.21-0.03-0.38-0.1-0.52s-0.18-0.27-0.34-0.4l-0.79-0.62c-0.25-0.19-0.43-0.41-0.54-0.65c-0.11-0.24-0.17-0.54-0.17-0.88
			c0-0.43,0.11-0.77,0.34-1s0.56-0.35,0.99-0.35c0.45,0,0.79,0.14,1.01,0.41c0.23,0.27,0.32,0.64,0.27,1.12
			c0,0.06-0.03,0.1-0.08,0.1h-0.6c-0.02,0-0.03,0-0.05-0.01s-0.03-0.04-0.02-0.11c0.02-0.24-0.02-0.43-0.11-0.56
			c-0.09-0.14-0.24-0.2-0.44-0.2c-0.37,0-0.55,0.21-0.55,0.62c0,0.2,0.04,0.37,0.11,0.5c0.08,0.14,0.19,0.27,0.34,0.41l0.78,0.62
			c0.27,0.22,0.46,0.44,0.56,0.66s0.15,0.5,0.15,0.85c0,0.51-0.12,0.9-0.35,1.17C445.5,29.41,445.16,29.54,444.7,29.54z"/>
		<path d="M448,29.54c-0.37,0-0.63-0.12-0.77-0.35c-0.15-0.24-0.22-0.61-0.22-1.11v-4.33c0-0.07,0.03-0.11,0.08-0.11h0.61
			c0.06,0,0.08,0.04,0.08,0.11v4.32c0,0.29,0.03,0.48,0.1,0.58c0.07,0.1,0.18,0.14,0.33,0.14c0.21,0,0.41-0.08,0.59-0.24
			s0.37-0.38,0.55-0.65l0.07,0.67c-0.21,0.28-0.43,0.51-0.67,0.7C448.51,29.45,448.26,29.54,448,29.54z M449.4,29.47
			c-0.05,0-0.08-0.04-0.1-0.11c-0.02-0.17-0.03-0.37-0.04-0.59s-0.02-0.4-0.02-0.51l-0.06-0.07v-4.44c0-0.07,0.03-0.11,0.1-0.11h0.6
			c0.06,0,0.08,0.04,0.08,0.11v4.28c0,0.34,0,0.61,0.01,0.82c0.01,0.21,0.02,0.37,0.02,0.49c0.01,0.09-0.02,0.13-0.07,0.13H449.4z"
			/>
		<path d="M451.16,29.47c-0.06,0-0.08-0.04-0.08-0.11v-4.28c0-0.34,0-0.61-0.01-0.82s-0.01-0.37-0.03-0.49
			c-0.01-0.09,0.02-0.13,0.07-0.13h0.52c0.06,0,0.1,0.04,0.11,0.11c0.02,0.15,0.04,0.34,0.05,0.58c0.01,0.23,0.02,0.41,0.02,0.53
			l0.05,0.07v4.44c0,0.07-0.03,0.11-0.08,0.11H451.16z M453.43,29.47c-0.06,0-0.08-0.04-0.08-0.11v-4.28c0-0.26-0.04-0.46-0.12-0.58
			s-0.21-0.19-0.38-0.19c-0.16,0-0.33,0.07-0.51,0.2c-0.18,0.13-0.37,0.33-0.57,0.58l-0.06-0.65c0.23-0.29,0.46-0.51,0.69-0.65
			c0.23-0.15,0.47-0.22,0.74-0.22c0.33,0,0.58,0.12,0.74,0.36c0.17,0.24,0.25,0.61,0.25,1.1v4.33c0,0.07-0.03,0.11-0.08,0.11H453.43
			z M452.15,22.79c-0.03,0-0.05-0.01-0.06-0.03c-0.01-0.02,0-0.05,0.01-0.08l0.76-1.44c0.02-0.06,0.06-0.08,0.12-0.08h0.6
			c0.04,0,0.07,0.01,0.08,0.04c0.01,0.02,0.01,0.06-0.02,0.1l-0.85,1.43c-0.03,0.05-0.08,0.07-0.16,0.07H452.15z"/>
		<path d="M458.21,29.54c-0.54,0-0.93-0.16-1.19-0.47s-0.38-0.8-0.38-1.46v-2.1c0-0.66,0.13-1.15,0.38-1.47
			c0.26-0.32,0.65-0.47,1.19-0.47s0.93,0.16,1.19,0.47c0.26,0.32,0.38,0.81,0.38,1.47v2.1c0,0.66-0.13,1.14-0.38,1.46
			C459.14,29.38,458.75,29.54,458.21,29.54z M458.21,28.79c0.28,0,0.48-0.09,0.61-0.28S459,28.02,459,27.6v-2.06
			c0-0.43-0.06-0.74-0.19-0.94s-0.33-0.29-0.61-0.29c-0.28,0-0.48,0.1-0.61,0.29s-0.19,0.5-0.19,0.94v2.06
			c0,0.42,0.06,0.73,0.19,0.91C457.74,28.69,457.94,28.79,458.21,28.79z"/>
	</g>
</g>
<text transform="matrix(1 0 0 1 385.7556 57.8195)" style="font-family:'PTSans-Narrow'; font-size:12px;">Zasuń</text>
<text transform="matrix(1 0 0 1 420.0566 57.8195)" style="font-family:'PTSans-Narrow'; font-size:12px;">ZASUŃ</text>
<text transform="matrix(1 0 0 1 461.163 57.9513)" style="font-family:'PTSans-Narrow'; font-size:12px;">zasuń o</text>
<g>
	<g>
		<path d="M386.43,77.59l3.65-5.27h-3.31v-1.48h5.5v1.07l-3.65,5.27h3.7v1.48h-5.88V77.59z"/>
		<path d="M393.69,77.01c0-1.33,1.1-2.01,3.91-2.18c-0.06-0.53-0.46-0.86-1.26-0.86c-0.57,0-1.14,0.22-1.81,0.56l-0.63-1.16
			c0.82-0.47,1.77-0.8,2.78-0.8c1.67,0,2.69,0.87,2.69,2.69v3.4h-1.44l-0.13-0.67h-0.04c-0.6,0.45-1.35,0.81-2.11,0.81
			C394.44,78.8,393.69,78.01,393.69,77.01z M397.6,76.87v-0.97c-1.75,0.09-2.22,0.47-2.22,0.98c0,0.38,0.32,0.57,0.82,0.57
			C396.73,77.44,397.18,77.19,397.6,76.87z"/>
		<path d="M400.79,77.89l0.75-1.1c0.73,0.45,1.55,0.71,2.4,0.71c0.65,0,0.94-0.22,0.94-0.51c0-0.33-0.29-0.45-1.46-0.7
			c-1.62-0.35-2.26-0.94-2.26-1.86c0-1.11,1.04-1.86,2.73-1.86c1.06,0,1.96,0.42,2.58,0.81l-0.79,1.06
			c-0.6-0.36-1.29-0.57-1.95-0.57c-0.55,0-0.82,0.2-0.82,0.48c0,0.33,0.37,0.41,1.37,0.63c1.84,0.41,2.35,0.93,2.35,1.9
			c0,1.08-1.03,1.92-2.94,1.92C402.64,78.8,401.54,78.39,400.79,77.89z"/>
		<path d="M408.1,76.38v-3.67h1.77v3.45c0,0.79,0.21,1.14,0.87,1.14c0.44,0,0.75-0.16,1.15-0.68v-3.91h1.77v5.95h-1.44l-0.13-0.85
			h-0.05c-0.53,0.61-1.15,1-2.01,1C408.67,78.8,408.1,77.88,408.1,76.38z"/>
		<path d="M415.42,72.71h1.44l0.13,0.79h0.05c0.52-0.51,1.17-0.94,2.06-0.94c1.34,0,1.94,0.92,1.94,2.42v3.67h-1.77v-3.45
			c0-0.79-0.23-1.14-0.87-1.14c-0.47,0-0.79,0.22-1.2,0.62v3.97h-1.77V72.71z M417.39,71.07l1.84-2.19l1.2,1.17l-2.17,1.88
			L417.39,71.07z"/>
	</g>
</g>
<path d="M571.45,262.59l7.24-10.68h-6.62v-0.7h7.63v0.5l-7.26,10.67h7.38v0.71h-8.36V262.59z"/>
<path d="M582.63,260.93c0-1.94,1.94-2.85,6.63-3.26c-0.02-1.42-0.59-2.75-2.57-2.75c-1.3,0-2.57,0.67-3.27,1.18l-0.37-0.59
	c0.69-0.5,2.19-1.29,3.74-1.29c2.32,0,3.28,1.49,3.28,3.34v5.52h-0.68l-0.09-1.29h-0.04c-0.99,0.8-2.33,1.51-3.61,1.51
	C584.1,263.3,582.63,262.55,582.63,260.93z M589.26,261.05v-2.77c-4.4,0.39-5.81,1.22-5.81,2.61c0,1.24,1.16,1.71,2.33,1.71
	C586.89,262.61,588.05,262.07,589.26,261.05z"/>
<path d="M593.26,261.93l0.42-0.58c0.96,0.75,2.1,1.27,3.92,1.27c1.76,0,2.67-0.8,2.67-1.7c0-0.78-0.3-1.41-3.05-1.96
	c-2.2-0.44-3.45-1.15-3.45-2.43c0-1.25,1.06-2.3,3.38-2.3c1.16,0,2.49,0.46,3.32,1.06l-0.43,0.57c-0.77-0.57-1.77-0.96-2.95-0.96
	c-1.88,0-2.49,0.76-2.49,1.58c0,0.91,0.89,1.37,2.84,1.77c2.99,0.63,3.65,1.32,3.65,2.61c0,1.3-1.29,2.44-3.57,2.44
	C595.75,263.3,594.28,262.66,593.26,261.93z"/>
<path d="M604.14,259.82v-5.38h0.8v5.28c0,1.93,0.72,2.86,2.44,2.86c1.22,0,2.13-0.61,3.31-1.96v-6.19h0.8v8.65h-0.68l-0.09-1.67
	h-0.07c-0.93,1.09-2.01,1.89-3.4,1.89C605.15,263.3,604.14,262.17,604.14,259.82z"/>
<path d="M615.28,254.44h0.67l0.09,1.66h0.07c1-1.07,2.02-1.88,3.41-1.88c2.1,0,3.1,1.13,3.1,3.48v5.39h-0.8v-5.28
	c0-1.93-0.72-2.86-2.43-2.86c-1.23,0-2.07,0.64-3.32,1.95v6.2h-0.8V254.44z"/>
<g>
	<g>
		<path d="M386.43,207.14l3.65-5.27h-3.31v-1.48h5.5v1.07l-3.65,5.27h3.7v1.48h-5.88V207.14z"/>
		<path d="M393.69,206.56c0-1.33,1.1-2.01,3.91-2.18c-0.06-0.53-0.46-0.86-1.26-0.86c-0.57,0-1.14,0.22-1.81,0.56l-0.63-1.16
			c0.82-0.47,1.77-0.8,2.78-0.8c1.67,0,2.69,0.87,2.69,2.69v3.4h-1.44l-0.13-0.67h-0.04c-0.6,0.45-1.35,0.81-2.11,0.81
			C394.44,208.36,393.69,207.56,393.69,206.56z M397.6,206.42v-0.97c-1.75,0.09-2.22,0.47-2.22,0.98c0,0.38,0.32,0.57,0.82,0.57
			C396.73,206.99,397.18,206.75,397.6,206.42z"/>
		<path d="M400.79,207.45l0.75-1.1c0.73,0.45,1.55,0.71,2.4,0.71c0.65,0,0.94-0.22,0.94-0.51c0-0.33-0.29-0.45-1.46-0.7
			c-1.62-0.35-2.26-0.94-2.26-1.86c0-1.11,1.04-1.86,2.73-1.86c1.06,0,1.96,0.42,2.58,0.81l-0.79,1.06
			c-0.6-0.36-1.29-0.57-1.95-0.57c-0.55,0-0.82,0.2-0.82,0.48c0,0.33,0.37,0.41,1.37,0.63c1.84,0.41,2.35,0.93,2.35,1.9
			c0,1.08-1.03,1.92-2.94,1.92C402.64,208.36,401.54,207.95,400.79,207.45z"/>
		<path d="M408.1,205.94v-3.67h1.77v3.45c0,0.79,0.21,1.14,0.87,1.14c0.44,0,0.75-0.16,1.15-0.68v-3.91h1.77v5.95h-1.44l-0.13-0.85
			h-0.05c-0.53,0.61-1.15,1-2.01,1C408.67,208.36,408.1,207.44,408.1,205.94z"/>
		<path d="M415.42,202.26h1.44l0.13,0.79h0.05c0.52-0.51,1.17-0.94,2.06-0.94c1.34,0,1.94,0.92,1.94,2.42v3.67h-1.77v-3.45
			c0-0.79-0.23-1.14-0.87-1.14c-0.47,0-0.79,0.22-1.2,0.62v3.97h-1.77V202.26z M417.39,200.62l1.84-2.19l1.2,1.17l-2.17,1.88
			L417.39,200.62z"/>
	</g>
</g>
<g>
	<g>
		<path d="M344.23,292.63l4.19-6.12h-3.82v-1.01h5.31v0.73l-4.2,6.12h4.25v1.02h-5.74V292.63z"/>
		<path d="M351.58,291.82c0-1.31,1.19-1.96,4.15-2.18c-0.04-0.72-0.43-1.31-1.47-1.31c-0.71,0-1.41,0.32-1.98,0.66l-0.46-0.8
			c0.66-0.41,1.63-0.83,2.65-0.83c1.62,0,2.46,0.93,2.46,2.47v3.53h-0.99l-0.1-0.76h-0.04c-0.63,0.49-1.44,0.9-2.24,0.9
			C352.44,293.51,351.58,292.85,351.58,291.82z M355.73,291.77v-1.37c-2.3,0.17-2.98,0.63-2.98,1.33c0,0.59,0.53,0.83,1.15,0.83
			C354.52,292.56,355.12,292.27,355.73,291.77z"/>
		<path d="M358.67,292.6l0.53-0.77c0.69,0.47,1.49,0.77,2.5,0.77c0.9,0,1.33-0.36,1.33-0.8c0-0.42-0.24-0.68-1.72-0.98
			c-1.55-0.32-2.27-0.86-2.27-1.74c0-0.98,0.88-1.71,2.5-1.71c0.93,0,1.82,0.37,2.41,0.76l-0.56,0.75c-0.56-0.37-1.23-0.6-1.95-0.6
			c-0.87,0-1.21,0.34-1.21,0.75c0,0.46,0.47,0.64,1.62,0.88c1.91,0.42,2.39,0.91,2.39,1.83c0,0.98-0.95,1.79-2.68,1.79
			C360.43,293.51,359.39,293.09,358.67,292.6z"/>
		<path d="M365.95,291.14v-3.64h1.19v3.48c0,1.01,0.34,1.5,1.22,1.5c0.61,0,1.06-0.27,1.64-0.97v-4.01h1.19v5.86h-0.99l-0.09-0.98
			h-0.05c-0.57,0.66-1.24,1.12-2.13,1.12C366.57,293.51,365.95,292.67,365.95,291.14z"/>
		<path d="M373.32,287.5h0.98l0.1,0.93h0.05c0.59-0.6,1.25-1.08,2.16-1.08c1.37,0,2,0.84,2,2.37v3.64h-1.19v-3.48
			c0-1.02-0.34-1.5-1.21-1.5c-0.64,0-1.07,0.31-1.67,0.93v4.04h-1.19V287.5z M375.27,285.99l1.74-2.06l0.83,0.8l-1.96,1.85
			L375.27,285.99z"/>
	</g>
</g>
<text transform="matrix(1 0 0 1 343.4747 343.2877)" style="font-family:'ProximaNova-Light'; font-size:12px;">Zasuń</text>
<g>
	<g>
		<path d="M344.23,313.06l4.19-6.12h-3.82v-1.01h5.31v0.73l-4.2,6.12h4.25v1.02h-5.74V313.06z"/>
		<path d="M353.57,305.93h1.4l2.59,7.85h-1.29l-1.27-4.28c-0.26-0.85-0.51-1.73-0.74-2.62h-0.05c-0.24,0.89-0.48,1.77-0.73,2.62
			l-1.29,4.28h-1.23L353.57,305.93z M352.43,310.58h3.64v0.96h-3.64V310.58z"/>
		<path d="M358.63,312.78l0.71-0.83c0.6,0.56,1.39,0.93,2.24,0.93c0.99,0,1.55-0.46,1.55-1.09c0-0.77-0.57-0.98-1.35-1.31
			l-1.11-0.49c-0.8-0.32-1.68-0.9-1.68-2.05c0-1.22,1.1-2.15,2.65-2.15c0.97,0,1.86,0.38,2.47,0.98l-0.62,0.77
			c-0.52-0.44-1.1-0.7-1.9-0.7c-0.83,0-1.38,0.38-1.38,1.03c0,0.68,0.68,0.93,1.37,1.2l1.06,0.47c0.98,0.38,1.72,0.96,1.72,2.11
			c0,1.26-1.06,2.29-2.85,2.29C360.39,313.93,359.37,313.49,358.63,312.78z"/>
		<path d="M365.97,310.8v-4.87h1.21v4.94c0,1.44,0.61,2.01,1.5,2.01c0.89,0,1.52-0.57,1.52-2.01v-4.94h1.16v4.87
			c0,2.2-1.05,3.13-2.68,3.13C367.05,313.93,365.97,313,365.97,310.8z"/>
		<path d="M373.21,305.93h1.29l2.29,4.67l0.73,1.65h0.03c-0.05-0.79-0.16-1.73-0.16-2.58v-3.74h1.15v7.85h-1.29l-2.29-4.67
			l-0.73-1.65h-0.03c0.05,0.82,0.16,1.71,0.16,2.56v3.77h-1.15V305.93z M375.09,304.88l1.79-1.58l0.66,0.79l-1.92,1.39
			L375.09,304.88z"/>
	</g>
</g>
<text transform="matrix(1 0 0 1 343.4747 359.8997)" style="font-family:'ProximaNova-Light'; font-size:12px;">Zasuń</text>
<g>
	<g>
		<path d="M393.04,292.52l4.01-5.83h-3.65v-1.17h5.37v0.84l-4.02,5.83h4.07v1.17h-5.79V292.52z"/>
		<path d="M400.36,291.78c0-1.32,1.16-1.98,4.07-2.18c-0.05-0.66-0.44-1.16-1.4-1.16c-0.66,0-1.32,0.29-1.92,0.62l-0.51-0.92
			c0.71-0.43,1.68-0.82,2.7-0.82c1.63,0,2.53,0.91,2.53,2.55v3.49h-1.14l-0.11-0.73h-0.04c-0.62,0.48-1.41,0.87-2.2,0.87
			C401.18,293.51,400.36,292.8,400.36,291.78z M404.43,291.7v-1.24c-2.12,0.14-2.73,0.57-2.73,1.21c0,0.52,0.46,0.74,1.04,0.74
			C403.34,292.42,403.89,292.14,404.43,291.7z"/>
		<path d="M407.46,292.6l0.6-0.88c0.7,0.47,1.51,0.75,2.46,0.75c0.82,0,1.2-0.31,1.2-0.7c0-0.39-0.26-0.6-1.63-0.89
			c-1.57-0.33-2.27-0.88-2.27-1.78c0-1.02,0.93-1.76,2.58-1.76c0.98,0,1.87,0.38,2.46,0.78l-0.64,0.85
			c-0.57-0.37-1.25-0.59-1.95-0.59c-0.76,0-1.08,0.29-1.08,0.65c0,0.42,0.43,0.56,1.54,0.8c1.88,0.42,2.37,0.92,2.37,1.85
			c0,1.01-0.98,1.83-2.77,1.83C409.25,293.51,408.19,293.09,407.46,292.6z"/>
		<path d="M414.75,291.12v-3.65h1.39v3.47c0,0.94,0.3,1.38,1.1,1.38c0.55,0,0.95-0.23,1.48-0.87v-3.98h1.39v5.89h-1.14l-0.11-0.94
			h-0.05c-0.56,0.64-1.21,1.08-2.09,1.08C415.35,293.51,414.75,292.64,414.75,291.12z"/>
		<path d="M422.1,287.47h1.13l0.11,0.89h0.05c0.56-0.57,1.23-1.03,2.12-1.03c1.36,0,1.98,0.87,1.98,2.39v3.65h-1.39v-3.47
			c0-0.94-0.3-1.38-1.1-1.38c-0.58,0-0.97,0.28-1.51,0.83v4.02h-1.39V287.47z M424.05,285.92l1.77-2.1l0.95,0.93l-2.03,1.86
			L424.05,285.92z"/>
	</g>
</g>
<g>
	<g>
		<path d="M502.48,161.19l3.65-5.27h-3.31v-1.48h5.5v1.07l-3.65,5.27h3.7v1.48h-5.88V161.19z"/>
		<path d="M509.74,160.61c0-1.33,1.1-2.01,3.91-2.18c-0.06-0.53-0.46-0.86-1.26-0.86c-0.57,0-1.14,0.22-1.81,0.56l-0.63-1.16
			c0.82-0.47,1.77-0.8,2.78-0.8c1.67,0,2.69,0.87,2.69,2.69v3.4h-1.44l-0.13-0.67h-0.04c-0.6,0.45-1.35,0.81-2.11,0.81
			C510.49,162.4,509.74,161.61,509.74,160.61z M513.65,160.47v-0.97c-1.75,0.09-2.22,0.47-2.22,0.98c0,0.38,0.32,0.57,0.82,0.57
			C512.78,161.04,513.23,160.79,513.65,160.47z"/>
		<path d="M516.84,161.49l0.75-1.1c0.73,0.45,1.55,0.71,2.4,0.71c0.65,0,0.94-0.22,0.94-0.51c0-0.33-0.29-0.45-1.46-0.7
			c-1.62-0.35-2.26-0.94-2.26-1.86c0-1.11,1.04-1.86,2.73-1.86c1.06,0,1.96,0.42,2.58,0.81l-0.79,1.06
			c-0.6-0.36-1.29-0.57-1.95-0.57c-0.55,0-0.82,0.2-0.82,0.48c0,0.33,0.37,0.41,1.37,0.63c1.84,0.41,2.35,0.93,2.35,1.9
			c0,1.08-1.03,1.92-2.94,1.92C518.69,162.4,517.59,161.99,516.84,161.49z"/>
		<path d="M524.15,159.98v-3.67h1.77v3.45c0,0.79,0.21,1.14,0.87,1.14c0.44,0,0.75-0.16,1.15-0.68v-3.91h1.77v5.95h-1.44l-0.13-0.85
			h-0.05c-0.53,0.61-1.15,1-2.01,1C524.72,162.4,524.15,161.48,524.15,159.98z"/>
		<path d="M531.47,156.31h1.44l0.13,0.79h0.05c0.52-0.51,1.17-0.94,2.06-0.94c1.34,0,1.94,0.92,1.94,2.42v3.67h-1.77v-3.45
			c0-0.79-0.23-1.14-0.87-1.14c-0.47,0-0.79,0.22-1.2,0.62v3.97h-1.77V156.31z M533.44,154.67l1.84-2.19l1.2,1.17l-2.17,1.88
			L533.44,154.67z"/>
	</g>
</g>
<g>
	<path d="M502.89,296.34v-1.27h8.73v1.27l-7.38,10.08h7.57v1.26h-9.18v-1.26l7.38-10.08H502.89z"/>
	<path d="M518.81,302.18c0-0.64-0.2-1.16-0.61-1.56s-0.92-0.6-1.56-0.6c-0.46,0-0.89,0.1-1.29,0.31s-0.69,0.42-0.87,0.64l-0.27,0.31
		l-0.81-0.81c0.04-0.05,0.08-0.11,0.15-0.18s0.2-0.2,0.4-0.39s0.43-0.35,0.65-0.5s0.53-0.28,0.9-0.39s0.75-0.17,1.14-0.17
		c0.98,0,1.8,0.32,2.45,0.96s0.97,1.43,0.97,2.37v5.49h-1.26v-1.17c-0.02,0.04-0.06,0.08-0.11,0.14s-0.16,0.17-0.33,0.33
		s-0.36,0.29-0.56,0.41s-0.46,0.23-0.79,0.32s-0.66,0.14-1.01,0.14c-0.86,0-1.59-0.25-2.18-0.76s-0.88-1.09-0.88-1.75
		c0-0.72,0.22-1.3,0.65-1.75s1.06-0.73,1.87-0.87L518.81,302.18z M518.03,305.88c0.52-0.53,0.79-1.22,0.79-2.07v-0.54l-2.97,0.54
		c-1.08,0.21-1.62,0.71-1.63,1.53c0,0.39,0.16,0.71,0.48,0.96s0.76,0.38,1.32,0.38C516.83,306.68,517.5,306.41,518.03,305.88z"/>
	<path d="M527.26,300.92c-0.05-0.07-0.12-0.15-0.21-0.25s-0.3-0.23-0.63-0.4s-0.68-0.25-1.05-0.25c-0.48,0-0.87,0.13-1.17,0.38
		s-0.45,0.54-0.45,0.88c0,0.35,0.16,0.62,0.48,0.83s0.71,0.38,1.17,0.5s0.91,0.27,1.37,0.43s0.85,0.42,1.17,0.79s0.48,0.83,0.48,1.4
		c0,0.74-0.28,1.36-0.85,1.86s-1.33,0.74-2.29,0.74c-0.41,0-0.8-0.05-1.16-0.16s-0.66-0.23-0.89-0.38s-0.44-0.29-0.61-0.44
		s-0.3-0.28-0.38-0.38l-0.11-0.17l0.91-0.9c0.02,0.04,0.06,0.08,0.1,0.14s0.13,0.16,0.28,0.3s0.3,0.27,0.46,0.39s0.38,0.22,0.63,0.3
		s0.52,0.13,0.78,0.13c0.61,0,1.08-0.13,1.4-0.4s0.49-0.61,0.49-1.03c0-0.36-0.16-0.65-0.49-0.88s-0.71-0.4-1.17-0.54
		s-0.91-0.28-1.37-0.44s-0.85-0.42-1.17-0.76s-0.49-0.8-0.49-1.35c0-0.65,0.27-1.22,0.82-1.71s1.23-0.73,2.06-0.73
		c0.33,0,0.66,0.04,0.98,0.12s0.58,0.18,0.79,0.29s0.39,0.23,0.55,0.35s0.28,0.22,0.35,0.29l0.13,0.13L527.26,300.92z"/>
	<path d="M536.97,306.5c-0.02,0.04-0.06,0.08-0.11,0.14s-0.16,0.17-0.33,0.33s-0.36,0.29-0.56,0.41s-0.46,0.23-0.79,0.32
		s-0.66,0.14-1.01,0.14c-1.01,0-1.84-0.35-2.51-1.05s-1-1.61-1-2.73v-5.04h1.26v5.04c0,0.76,0.23,1.38,0.7,1.87s1.04,0.74,1.72,0.74
		c0.73,0,1.35-0.27,1.85-0.81s0.76-1.23,0.76-2.07v-4.77h1.27v8.64h-1.27V306.5z"/>
	<path d="M542.46,300.29c0.02-0.04,0.06-0.08,0.11-0.15s0.16-0.18,0.33-0.35s0.36-0.32,0.56-0.44s0.46-0.24,0.78-0.34
		s0.66-0.15,1.01-0.15c1.04,0,1.89,0.34,2.54,1.01s0.98,1.57,0.98,2.68v5.13h-1.27v-5.13c0-0.76-0.22-1.36-0.66-1.82
		s-1-0.69-1.68-0.69c-0.77,0-1.41,0.27-1.92,0.81s-0.77,1.23-0.77,2.07v4.77h-1.26v-8.64h1.26V300.29z M545.97,295.07h1.35
		l-1.71,2.43h-0.98L545.97,295.07z"/>
</g>
<g>
	<path d="M563.73,296.34v-1.27h8.73v1.27l-7.38,10.08h7.57v1.26h-9.18v-1.26l7.38-10.08H563.73z"/>
	<path d="M576.78,304.17l-1.44,3.51h-1.44l5.22-12.6h1.26l5.22,12.6h-1.43l-1.44-3.51H576.78z M579.75,296.96l-2.43,5.94h4.86
		L579.75,296.96z"/>
	<path d="M593.58,303.15c-0.25-0.3-0.58-0.54-0.98-0.71s-0.84-0.32-1.33-0.46s-0.97-0.29-1.46-0.46s-0.93-0.37-1.33-0.61
		s-0.73-0.58-0.98-1.02s-0.38-0.96-0.38-1.57c0-0.95,0.37-1.76,1.12-2.42s1.72-1,2.94-1c0.46,0,0.89,0.06,1.3,0.17
		s0.76,0.25,1.03,0.4s0.52,0.31,0.74,0.47s0.37,0.29,0.47,0.4l0.15,0.18l-0.91,0.91c-0.02-0.04-0.06-0.08-0.11-0.14
		s-0.16-0.16-0.33-0.3s-0.36-0.27-0.56-0.39s-0.46-0.22-0.78-0.31s-0.66-0.14-1.01-0.14c-0.83,0-1.48,0.21-1.97,0.63
		s-0.73,0.93-0.73,1.53c0,0.43,0.13,0.8,0.38,1.11s0.58,0.54,0.98,0.71s0.85,0.32,1.34,0.46s0.97,0.29,1.45,0.46
		s0.93,0.37,1.33,0.61s0.73,0.58,0.98,1.01s0.38,0.96,0.38,1.58c0,1.07-0.38,1.93-1.12,2.6s-1.79,1-3.11,1
		c-0.54,0-1.05-0.07-1.54-0.2s-0.88-0.29-1.2-0.47s-0.59-0.36-0.83-0.55s-0.41-0.35-0.5-0.47l-0.17-0.2l0.83-0.91
		c0.02,0.04,0.07,0.09,0.13,0.16s0.2,0.2,0.4,0.38s0.43,0.33,0.66,0.47s0.56,0.25,0.96,0.37s0.82,0.17,1.25,0.17
		c0.93,0,1.64-0.22,2.14-0.65s0.75-0.99,0.75-1.69C593.96,303.82,593.83,303.45,593.58,303.15z"/>
	<path d="M605.72,305.47c0.74-0.75,1.11-1.66,1.11-2.74v-7.66h1.35v7.66c0,1.39-0.51,2.6-1.52,3.61s-2.22,1.52-3.61,1.52
		s-2.59-0.51-3.61-1.52s-1.52-2.21-1.52-3.6v-7.66h1.34v7.66c0,1.08,0.37,1.99,1.11,2.74s1.63,1.12,2.67,1.12
		S604.98,306.22,605.72,305.47z"/>
	<path d="M622.03,295.07v12.6h-1.17l-7.73-10.17v10.17h-1.35v-12.6h1.17l7.74,10.18v-10.18H622.03z M617.8,290.93h1.35l-1.71,2.43
		h-0.98L617.8,290.93z"/>
</g>
<g>
	<g>
		<path d="M502.65,143.21l4.82-7.12h-4.41v-0.47h5.08v0.33l-4.83,7.11h4.91v0.48h-5.57V143.21z"/>
		<path d="M510.1,142.11c0-1.29,1.29-1.9,4.42-2.17c-0.01-0.95-0.39-1.83-1.71-1.83c-0.87,0-1.71,0.45-2.18,0.78l-0.25-0.39
			c0.46-0.33,1.46-0.86,2.49-0.86c1.54,0,2.18,0.99,2.18,2.22v3.68h-0.45l-0.06-0.86h-0.03c-0.66,0.53-1.55,1.01-2.4,1.01
			C511.08,143.69,510.1,143.19,510.1,142.11z M514.52,142.19v-1.84c-2.93,0.26-3.87,0.81-3.87,1.74c0,0.83,0.77,1.14,1.55,1.14
			C512.94,143.22,513.71,142.87,514.52,142.19z"/>
		<path d="M517.19,142.78l0.28-0.39c0.64,0.5,1.4,0.84,2.61,0.84c1.18,0,1.78-0.53,1.78-1.14c0-0.52-0.2-0.94-2.03-1.31
			c-1.46-0.29-2.3-0.77-2.3-1.62c0-0.83,0.71-1.53,2.25-1.53c0.77,0,1.66,0.3,2.21,0.71l-0.29,0.38c-0.51-0.38-1.18-0.64-1.96-0.64
			c-1.25,0-1.66,0.51-1.66,1.05c0,0.61,0.59,0.91,1.9,1.18c1.99,0.42,2.43,0.88,2.43,1.74c0,0.87-0.86,1.63-2.38,1.63
			C518.84,143.69,517.87,143.26,517.19,142.78z"/>
		<path d="M524.44,141.37v-3.59h0.53v3.52c0,1.28,0.48,1.91,1.62,1.91c0.81,0,1.42-0.41,2.2-1.3v-4.12h0.53v5.76h-0.45l-0.06-1.12
			h-0.05c-0.62,0.73-1.34,1.26-2.27,1.26C525.11,143.69,524.44,142.93,524.44,141.37z"/>
		<path d="M531.87,137.78h0.45l0.06,1.11h0.05c0.66-0.71,1.34-1.25,2.27-1.25c1.4,0,2.07,0.75,2.07,2.32v3.59h-0.53v-3.52
			c0-1.29-0.48-1.91-1.62-1.91c-0.82,0-1.38,0.43-2.21,1.3v4.13h-0.53V137.78z M533.77,136.41l1.62-1.91l0.4,0.38l-1.72,1.81
			L533.77,136.41z"/>
	</g>
</g>
<g>
	<path d="M0-63.95l3.65-5.27H0.34v-1.48h5.5v1.07l-3.65,5.27h3.7v1.48H0V-63.95z"/>
	<path d="M7.26-64.53c0-1.33,1.1-2.01,3.91-2.18c-0.06-0.53-0.46-0.86-1.26-0.86c-0.57,0-1.14,0.22-1.81,0.56l-0.63-1.16
		c0.82-0.47,1.77-0.8,2.78-0.8c1.67,0,2.69,0.87,2.69,2.69v3.4H11.5l-0.13-0.67h-0.04c-0.6,0.45-1.35,0.81-2.11,0.81
		C8.01-62.74,7.26-63.53,7.26-64.53z M11.17-64.67v-0.97c-1.75,0.09-2.22,0.47-2.22,0.98c0,0.38,0.32,0.57,0.82,0.57
		C10.3-64.11,10.75-64.35,11.17-64.67z"/>
	<path d="M14.36-63.65l0.75-1.1c0.73,0.45,1.55,0.71,2.4,0.71c0.65,0,0.94-0.22,0.94-0.51c0-0.33-0.29-0.45-1.46-0.7
		c-1.62-0.35-2.26-0.94-2.26-1.86c0-1.11,1.04-1.86,2.73-1.86c1.06,0,1.96,0.42,2.58,0.81l-0.79,1.06c-0.6-0.36-1.29-0.57-1.95-0.57
		c-0.55,0-0.82,0.2-0.82,0.48c0,0.33,0.37,0.41,1.37,0.63c1.84,0.41,2.35,0.93,2.35,1.9c0,1.08-1.03,1.92-2.94,1.92
		C16.21-62.74,15.11-63.15,14.36-63.65z"/>
	<path d="M21.67-65.16v-3.67h1.77v3.45c0,0.79,0.21,1.14,0.87,1.14c0.44,0,0.75-0.16,1.15-0.68v-3.91h1.77v5.95h-1.44l-0.13-0.85
		H25.6c-0.53,0.61-1.15,1-2.01,1C22.24-62.74,21.67-63.66,21.67-65.16z"/>
	<path d="M28.99-68.83h1.44l0.13,0.79h0.05c0.52-0.51,1.17-0.94,2.06-0.94c1.34,0,1.94,0.92,1.94,2.42v3.67h-1.77v-3.45
		c0-0.79-0.23-1.14-0.87-1.14c-0.47,0-0.79,0.22-1.2,0.62v3.97h-1.77V-68.83z M30.96-70.47l1.84-2.19l1.2,1.17l-2.17,1.88
		L30.96-70.47z"/>
</g>
<g>
	<path d="M386.43,127.83l3.65-5.27h-3.31v-1.48h5.5v1.07l-3.65,5.27h3.7v1.48h-5.88V127.83z"/>
	<path d="M393.69,127.25c0-1.33,1.1-2.01,3.91-2.18c-0.06-0.53-0.46-0.86-1.26-0.86c-0.57,0-1.14,0.22-1.81,0.56l-0.63-1.16
		c0.82-0.47,1.77-0.8,2.78-0.8c1.67,0,2.69,0.87,2.69,2.69v3.4h-1.44l-0.13-0.67h-0.04c-0.6,0.45-1.35,0.81-2.11,0.81
		C394.44,129.05,393.69,128.25,393.69,127.25z M397.6,127.11v-0.97c-1.75,0.09-2.22,0.47-2.22,0.98c0,0.38,0.32,0.57,0.82,0.57
		C396.73,127.68,397.18,127.44,397.6,127.11z"/>
	<path d="M400.79,128.13l0.75-1.1c0.73,0.45,1.55,0.71,2.4,0.71c0.65,0,0.94-0.22,0.94-0.51c0-0.33-0.29-0.45-1.46-0.7
		c-1.62-0.35-2.26-0.94-2.26-1.86c0-1.11,1.04-1.86,2.73-1.86c1.06,0,1.96,0.42,2.58,0.81l-0.79,1.06c-0.6-0.36-1.29-0.57-1.95-0.57
		c-0.55,0-0.82,0.2-0.82,0.48c0,0.33,0.37,0.41,1.37,0.63c1.84,0.41,2.35,0.93,2.35,1.9c0,1.08-1.03,1.92-2.94,1.92
		C402.64,129.05,401.54,128.63,400.79,128.13z"/>
	<path d="M408.1,126.63v-3.67h1.77v3.45c0,0.79,0.21,1.14,0.87,1.14c0.44,0,0.75-0.16,1.15-0.68v-3.91h1.77v5.95h-1.44l-0.13-0.85
		h-0.05c-0.53,0.61-1.15,1-2.01,1C408.67,129.05,408.1,128.13,408.1,126.63z"/>
	<path d="M415.42,122.95h1.44l0.13,0.79h0.05c0.52-0.51,1.17-0.94,2.06-0.94c1.34,0,1.94,0.92,1.94,2.42v3.67h-1.77v-3.45
		c0-0.79-0.23-1.14-0.87-1.14c-0.47,0-0.79,0.22-1.2,0.62v3.97h-1.77V122.95z"/>
</g>
<path d="M386.43,192.35l3.65-5.27h-3.31v-1.48h5.5v1.07l-3.65,5.27h3.7v1.48h-5.88V192.35z"/>
<path d="M393.69,191.77c0-1.33,1.1-2.01,3.91-2.18c-0.06-0.53-0.46-0.86-1.26-0.86c-0.57,0-1.14,0.22-1.81,0.56l-0.63-1.16
	c0.82-0.47,1.77-0.8,2.78-0.8c1.67,0,2.69,0.87,2.69,2.69v3.4h-1.44l-0.13-0.67h-0.04c-0.6,0.45-1.35,0.81-2.11,0.81
	C394.44,193.57,393.69,192.77,393.69,191.77z M397.6,191.63v-0.97c-1.75,0.09-2.22,0.47-2.22,0.98c0,0.38,0.32,0.57,0.82,0.57
	C396.73,192.2,397.18,191.96,397.6,191.63z"/>
<path d="M400.79,192.65l0.75-1.1c0.73,0.45,1.55,0.71,2.4,0.71c0.65,0,0.94-0.22,0.94-0.51c0-0.33-0.29-0.45-1.46-0.7
	c-1.62-0.35-2.26-0.94-2.26-1.86c0-1.11,1.04-1.86,2.73-1.86c1.06,0,1.96,0.42,2.58,0.81l-0.79,1.06c-0.6-0.36-1.29-0.57-1.95-0.57
	c-0.55,0-0.82,0.2-0.82,0.48c0,0.33,0.37,0.41,1.37,0.63c1.84,0.41,2.35,0.93,2.35,1.9c0,1.08-1.03,1.92-2.94,1.92
	C402.64,193.57,401.54,193.16,400.79,192.65z"/>
<path d="M408.1,191.15v-3.67h1.77v3.45c0,0.79,0.21,1.14,0.87,1.14c0.44,0,0.75-0.16,1.15-0.68v-3.91h1.77v5.95h-1.44l-0.13-0.85
	h-0.05c-0.53,0.61-1.15,1-2.01,1C408.67,193.57,408.1,192.65,408.1,191.15z"/>
<path d="M415.42,184.57h1.44l0.13,0.79h0.05c0.52-0.51,1.17-0.94,2.06-0.94c1.34,0,1.94,0.92,1.94,2.42v3.67h-1.77v-3.45
	c0-0.79-0.23-1.14-0.87-1.14c-0.47,0-0.79,0.22-1.2,0.62v3.97h-1.77V184.57z"/>
<g>
	<g>
		<path d="M428.01,77.65l3.65-5.27h-3.31v-1.48h5.5v1.07l-3.65,5.27h3.7v1.48h-5.88V77.65z"/>
		<path d="M437.07,70.91h2.12l2.43,7.82h-1.88l-1.01-3.96c-0.2-0.78-0.44-1.7-0.62-2.52h-0.05c-0.19,0.82-0.41,1.74-0.61,2.52
			l-1.02,3.96h-1.81L437.07,70.91z M436.25,75.49h3.74v1.38h-3.74V75.49z"/>
		<path d="M442.34,77.74l1.02-1.21c0.59,0.48,1.32,0.82,2.08,0.82c0.75,0,1.1-0.29,1.1-0.67c0-0.56-0.46-0.7-1.2-1.01l-1.02-0.43
			c-0.87-0.33-1.66-0.99-1.66-2.13c0-1.29,1.17-2.33,2.86-2.33c0.94,0,1.89,0.35,2.6,1.02l-0.89,1.12c-0.55-0.4-1.04-0.61-1.8-0.61
			c-0.58,0-0.98,0.24-0.98,0.7c0,0.47,0.52,0.64,1.27,0.92l0.96,0.41c1.02,0.38,1.67,1.02,1.67,2.12c0,1.3-1.09,2.42-3.02,2.42
			C444.26,78.87,443.16,78.48,442.34,77.74z"/>
		<path d="M449.7,75.72v-4.81h1.77v4.99c0,0.94,0.34,1.45,1.08,1.45c0.74,0,1.1-0.51,1.1-1.45v-4.99h1.71v4.81
			c0,2.03-0.91,3.15-2.81,3.15C450.65,78.87,449.7,77.74,449.7,75.72z"/>
		<path d="M456.92,70.91h1.81l1.64,3.89l0.67,1.72h0.04c-0.08-0.82-0.24-1.92-0.24-2.84v-2.76h1.69v7.82h-1.81l-1.64-3.89
			l-0.67-1.71h-0.04c0.08,0.86,0.24,1.91,0.24,2.83v2.77h-1.69V70.91z M458.62,69.68l2.05-1.68l0.94,1.14l-2.2,1.42L458.62,69.68z"
			/>
	</g>
</g>
<g>
	<g>
		<path d="M445.18,161.12l3.65-5.27h-3.31v-1.48h5.5v1.07l-3.65,5.27h3.7v1.48h-5.88V161.12z"/>
		<path d="M454.24,154.38h2.12l2.43,7.82h-1.88l-1.01-3.96c-0.2-0.78-0.44-1.7-0.62-2.52h-0.05c-0.19,0.82-0.41,1.74-0.61,2.52
			l-1.02,3.96h-1.81L454.24,154.38z M453.42,158.95h3.74v1.38h-3.74V158.95z"/>
		<path d="M459.51,161.21l1.02-1.21c0.59,0.48,1.32,0.82,2.08,0.82c0.75,0,1.1-0.29,1.1-0.67c0-0.56-0.46-0.7-1.2-1.01l-1.02-0.43
			c-0.87-0.33-1.66-0.99-1.66-2.13c0-1.29,1.17-2.33,2.86-2.33c0.94,0,1.89,0.35,2.6,1.02l-0.89,1.12c-0.55-0.4-1.04-0.61-1.8-0.61
			c-0.58,0-0.98,0.24-0.98,0.7c0,0.47,0.52,0.64,1.27,0.92l0.96,0.41c1.02,0.38,1.67,1.02,1.67,2.12c0,1.3-1.09,2.42-3.02,2.42
			C461.43,162.34,460.34,161.95,459.51,161.21z"/>
		<path d="M466.87,159.18v-4.81h1.77v4.99c0,0.94,0.34,1.45,1.08,1.45c0.74,0,1.1-0.51,1.1-1.45v-4.99h1.71v4.81
			c0,2.03-0.91,3.15-2.81,3.15C467.82,162.34,466.87,161.21,466.87,159.18z"/>
		<path d="M474.1,154.38h1.81l1.64,3.89l0.67,1.72h0.04c-0.08-0.82-0.24-1.92-0.24-2.84v-2.76h1.69v7.82h-1.81l-1.64-3.89
			l-0.67-1.71h-0.04c0.08,0.86,0.24,1.91,0.24,2.83v2.77h-1.69V154.38z M475.8,153.15l2.05-1.68l0.94,1.14l-2.2,1.42L475.8,153.15z"
			/>
	</g>
</g>
<g>
	<g>
		<path d="M446.23,209.51l3.65-5.27h-3.31v-1.48h5.5v1.07l-3.65,5.27h3.7v1.48h-5.88V209.51z"/>
		<path d="M455.29,202.76h2.12l2.43,7.82h-1.88l-1.01-3.96c-0.2-0.78-0.44-1.7-0.62-2.52h-0.05c-0.19,0.82-0.41,1.74-0.61,2.52
			l-1.02,3.96h-1.81L455.29,202.76z M454.47,207.34h3.74v1.38h-3.74V207.34z"/>
		<path d="M460.56,209.59l1.02-1.21c0.59,0.48,1.32,0.82,2.08,0.82c0.75,0,1.1-0.29,1.1-0.67c0-0.56-0.46-0.7-1.2-1.01l-1.02-0.43
			c-0.87-0.33-1.66-0.99-1.66-2.13c0-1.29,1.17-2.33,2.86-2.33c0.94,0,1.89,0.35,2.6,1.02l-0.89,1.12c-0.55-0.4-1.04-0.61-1.8-0.61
			c-0.58,0-0.98,0.24-0.98,0.7c0,0.47,0.52,0.64,1.27,0.92l0.96,0.41c1.02,0.38,1.67,1.02,1.67,2.12c0,1.3-1.09,2.42-3.02,2.42
			C462.48,210.72,461.39,210.33,460.56,209.59z"/>
		<path d="M467.92,207.57v-4.81h1.77v4.99c0,0.94,0.34,1.45,1.08,1.45c0.74,0,1.1-0.51,1.1-1.45v-4.99h1.71v4.81
			c0,2.03-0.91,3.15-2.81,3.15C468.87,210.72,467.92,209.6,467.92,207.57z"/>
		<path d="M475.15,202.76h1.81l1.64,3.89l0.67,1.72h0.04c-0.08-0.82-0.24-1.92-0.24-2.84v-2.76h1.69v7.82h-1.81l-1.64-3.89
			l-0.67-1.71h-0.04c0.08,0.86,0.24,1.91,0.24,2.83v2.77h-1.69V202.76z M476.85,201.53l2.05-1.68l0.94,1.14l-2.2,1.42L476.85,201.53
			z"/>
	</g>
</g>
<g>
	<g>
		<path d="M469.28,77.91l3.1-3.62h-2.73v-1.38h5.19v0.94l-3.12,3.62h3.2v1.39h-5.64V77.91z"/>
		<path d="M476.37,77.21c0-1.33,1.1-2.01,3.91-2.18c-0.06-0.53-0.46-0.86-1.26-0.86c-0.57,0-1.14,0.22-1.81,0.56l-0.63-1.16
			c0.82-0.47,1.77-0.8,2.78-0.8c1.67,0,2.69,0.87,2.69,2.69v3.4h-1.44l-0.13-0.67h-0.04c-0.6,0.45-1.35,0.81-2.11,0.81
			C477.12,79,476.37,78.21,476.37,77.21z M480.29,77.06v-0.97c-1.75,0.09-2.22,0.47-2.22,0.98c0,0.38,0.32,0.57,0.82,0.57
			C479.42,77.63,479.87,77.39,480.29,77.06z"/>
		<path d="M483.47,78.09l0.75-1.1c0.73,0.45,1.55,0.71,2.4,0.71c0.65,0,0.94-0.22,0.94-0.51c0-0.33-0.29-0.45-1.46-0.7
			c-1.62-0.35-2.26-0.94-2.26-1.86c0-1.11,1.04-1.86,2.73-1.86c1.06,0,1.96,0.42,2.58,0.81l-0.79,1.06
			c-0.6-0.36-1.29-0.57-1.95-0.57c-0.55,0-0.82,0.2-0.82,0.48c0,0.33,0.37,0.41,1.37,0.63c1.84,0.41,2.35,0.93,2.35,1.9
			c0,1.08-1.03,1.92-2.94,1.92C485.32,79,484.22,78.59,483.47,78.09z"/>
		<path d="M490.78,76.58v-3.67h1.77v3.45c0,0.79,0.21,1.14,0.87,1.14c0.44,0,0.75-0.16,1.15-0.68v-3.91h1.77v5.95h-1.44L494.76,78
			h-0.05c-0.53,0.61-1.15,1-2.01,1C491.35,79,490.78,78.08,490.78,76.58z"/>
		<path d="M498.1,72.91h1.44l0.13,0.79h0.05c0.52-0.51,1.17-0.94,2.06-0.94c1.34,0,1.94,0.92,1.94,2.42v3.67h-1.77v-3.45
			c0-0.79-0.23-1.14-0.87-1.14c-0.47,0-0.79,0.22-1.2,0.62v3.97h-1.77V72.91z M500.08,71.27l1.84-2.19l1.2,1.17l-2.17,1.88
			L500.08,71.27z"/>
		<path d="M512.2,75.88c0-1.98,1.46-3.12,3.03-3.12s3.03,1.14,3.03,3.12c0,1.97-1.46,3.12-3.03,3.12S512.2,77.86,512.2,75.88z
			 M516.46,75.88c0-1.03-0.41-1.7-1.23-1.7s-1.23,0.67-1.23,1.7c0,1.03,0.42,1.69,1.23,1.69S516.46,76.91,516.46,75.88z"/>
	</g>
</g>
<g>
	<rect x="401.83" y="113.03" width="18.33" height="1.75"/>
	<rect x="387.12" y="113.47" width="16.82" height="0.88"/>
	<circle cx="387.12" cy="113.91" r="0.88"/>
	<circle class="st0" cx="387.12" cy="113.91" r="0.44"/>
	<circle cx="420.16" cy="113.91" r="0.87"/>
</g>
<g>
	<g>
		<circle cx="481.09" cy="190.45" r="1.12"/>
		<path class="st0" d="M481.09,189.58c0.48,0,0.87,0.39,0.87,0.87s-0.39,0.87-0.87,0.87c-0.48,0-0.87-0.39-0.87-0.87
			S480.61,189.58,481.09,189.58 M481.09,189.08c-0.76,0-1.37,0.61-1.37,1.37s0.61,1.37,1.37,1.37c0.76,0,1.37-0.61,1.37-1.37
			S481.84,189.08,481.09,189.08L481.09,189.08z"/>
	</g>
	<rect x="476.82" y="189.57" width="4.27" height="1.75"/>
	<rect x="474.17" y="190.01" width="4.09" height="0.88"/>
	<circle cx="474.17" cy="190.45" r="0.88"/>
	<circle class="st0" cx="474.17" cy="190.45" r="0.44"/>
</g>
<g>
	<rect x="428.11" y="168.69" transform="matrix(0.5336 -0.8457 0.8457 0.5336 57.144 443.2649)" width="4.77" height="2.25"/>
	<path class="st0" d="M430.89,167.55l1.48,0.93l-2.28,3.61l-1.48-0.93L430.89,167.55 M430.73,166.86l-0.27,0.42l-2.28,3.61
		l-0.27,0.42l0.42,0.27l1.48,0.93l0.42,0.27l0.27-0.42l2.28-3.61l0.27-0.42l-0.42-0.27l-1.48-0.93L430.73,166.86L430.73,166.86z"/>
</g>
<rect x="429.91" y="167.06" transform="matrix(-0.5337 0.8457 -0.8457 -0.5337 804.1224 -108.4198)" width="4.09" height="0.88"/>
<circle cx="433.05" cy="165.77" r="0.88"/>
<circle class="st0" cx="438.09" cy="179.22" r="0.44"/>
<circle cx="418.22" cy="121.08" r="0.88"/>
<path d="M420.33,191.95h-2.11v1.47h2.11c0.39,0,0.7-0.31,0.7-0.7v-0.07C421.03,192.26,420.72,191.95,420.33,191.95z"/>
<g>
	<path d="M386.43,161.19l3.65-5.27h-3.31v-1.48h5.5v1.07l-3.65,5.27h3.7v1.48h-5.88V161.19z"/>
	<path d="M393.69,160.61c0-1.33,1.1-2.01,3.91-2.18c-0.06-0.53-0.46-0.86-1.26-0.86c-0.57,0-1.14,0.22-1.81,0.56l-0.63-1.16
		c0.82-0.47,1.77-0.8,2.78-0.8c1.67,0,2.69,0.87,2.69,2.69v3.4h-1.44l-0.13-0.67h-0.04c-0.6,0.45-1.35,0.81-2.11,0.81
		C394.44,162.4,393.69,161.61,393.69,160.61z M397.6,160.47v-0.97c-1.75,0.09-2.22,0.47-2.22,0.98c0,0.38,0.32,0.57,0.82,0.57
		C396.73,161.04,397.18,160.79,397.6,160.47z"/>
	<path d="M400.79,161.49l0.75-1.1c0.73,0.45,1.55,0.71,2.4,0.71c0.65,0,0.94-0.22,0.94-0.51c0-0.33-0.29-0.45-1.46-0.7
		c-1.62-0.35-2.26-0.94-2.26-1.86c0-1.11,1.04-1.86,2.73-1.86c1.06,0,1.96,0.42,2.58,0.81l-0.79,1.06c-0.6-0.36-1.29-0.57-1.95-0.57
		c-0.55,0-0.82,0.2-0.82,0.48c0,0.33,0.37,0.41,1.37,0.63c1.84,0.41,2.35,0.93,2.35,1.9c0,1.08-1.03,1.92-2.94,1.92
		C402.64,162.4,401.54,161.99,400.79,161.49z"/>
	<path d="M408.1,159.98v-3.67h1.77v3.45c0,0.79,0.21,1.14,0.87,1.14c0.44,0,0.75-0.16,1.15-0.68v-3.91h1.77v5.95h-1.44l-0.13-0.85
		h-0.05c-0.53,0.61-1.15,1-2.01,1C408.67,162.4,408.1,161.48,408.1,159.98z"/>
	<path d="M415.42,156.31h1.44l0.13,0.79h0.05c0.52-0.51,1.17-0.94,2.06-0.94c1.34,0,1.94,0.92,1.94,2.42v3.67h-1.77v-3.45
		c0-0.79-0.23-1.14-0.87-1.14c-0.47,0-0.79,0.22-1.2,0.62v3.97h-1.77V156.31z"/>
</g>
<g>
	<path d="M562.65,161.28l3.65-5.27h-3.31v-1.48h5.5v1.07l-3.65,5.27h3.7v1.48h-5.88V161.28z"/>
	<path d="M569.91,160.7c0-1.33,1.1-2.01,3.91-2.18c-0.06-0.53-0.46-0.86-1.26-0.86c-0.57,0-1.14,0.22-1.81,0.56l-0.63-1.16
		c0.82-0.47,1.77-0.8,2.78-0.8c1.67,0,2.69,0.87,2.69,2.69v3.4h-1.44l-0.13-0.67h-0.04c-0.6,0.45-1.35,0.81-2.11,0.81
		C570.66,162.49,569.91,161.7,569.91,160.7z M573.83,160.56v-0.97c-1.75,0.09-2.22,0.47-2.22,0.98c0,0.38,0.32,0.57,0.82,0.57
		C572.96,161.13,573.41,160.88,573.83,160.56z"/>
	<path d="M577.01,161.58l0.75-1.1c0.73,0.45,1.55,0.71,2.4,0.71c0.65,0,0.94-0.22,0.94-0.51c0-0.33-0.29-0.45-1.46-0.7
		c-1.62-0.35-2.26-0.94-2.26-1.86c0-1.11,1.04-1.86,2.73-1.86c1.06,0,1.96,0.42,2.58,0.81l-0.79,1.06c-0.6-0.36-1.29-0.57-1.95-0.57
		c-0.55,0-0.82,0.2-0.82,0.48c0,0.33,0.37,0.41,1.37,0.63c1.84,0.41,2.35,0.93,2.35,1.9c0,1.08-1.03,1.92-2.94,1.92
		C578.86,162.49,577.76,162.08,577.01,161.58z"/>
	<path d="M584.32,160.07v-3.67h1.77v3.45c0,0.79,0.21,1.14,0.87,1.14c0.44,0,0.75-0.16,1.15-0.68v-3.91h1.77v5.95h-1.44l-0.13-0.85
		h-0.05c-0.53,0.61-1.15,1-2.01,1C584.89,162.49,584.32,161.57,584.32,160.07z"/>
	<path d="M591.64,156.4h1.44l0.13,0.79h0.05c0.52-0.51,1.17-0.94,2.06-0.94c1.34,0,1.94,0.92,1.94,2.42v3.67h-1.77v-3.45
		c0-0.79-0.23-1.14-0.87-1.14c-0.47,0-0.79,0.22-1.2,0.62v3.97h-1.77V156.4z"/>
</g>
<rect x="439.67" y="176.73" width="5.88" height="1.47"/>
<rect x="529.76" y="201.54" width="5.61" height="1.47"/>
<g>
	<path d="M593.72,209.32l5.48-7.9h-4.97v-2.23h8.26v1.61L597,208.7h5.55v2.23h-8.83V209.32z"/>
	<path d="M604.61,208.45c0-2,1.65-3.02,5.88-3.28c-0.09-0.8-0.7-1.29-1.89-1.29c-0.86,0-1.72,0.33-2.72,0.84l-0.94-1.74
		c1.24-0.71,2.66-1.21,4.18-1.21c2.51,0,4.03,1.31,4.03,4.04v5.11h-2.16l-0.19-1.01h-0.07c-0.9,0.68-2.02,1.22-3.17,1.22
		C605.74,211.14,604.61,209.95,604.61,208.45z M610.48,208.23v-1.46c-2.63,0.13-3.33,0.7-3.33,1.46c0,0.57,0.48,0.85,1.23,0.85
		C609.18,209.09,609.85,208.73,610.48,208.23z"/>
	<path d="M615.26,209.77l1.13-1.65c1.1,0.68,2.33,1.06,3.6,1.06c0.98,0,1.42-0.33,1.42-0.77c0-0.5-0.43-0.68-2.19-1.05
		c-2.43-0.52-3.4-1.41-3.4-2.79c0-1.66,1.55-2.8,4.1-2.8c1.59,0,2.94,0.63,3.87,1.22l-1.19,1.59c-0.9-0.55-1.94-0.85-2.92-0.85
		c-0.83,0-1.24,0.3-1.24,0.71c0,0.5,0.55,0.61,2.06,0.95c2.76,0.62,3.52,1.4,3.52,2.86c0,1.62-1.54,2.88-4.41,2.88
		C618.03,211.14,616.38,210.52,615.26,209.77z"/>
	<path d="M626.22,207.51v-5.52h2.65v5.17c0,1.18,0.32,1.72,1.3,1.72c0.66,0,1.12-0.23,1.73-1.02v-5.87h2.65v8.93h-2.17l-0.19-1.28
		h-0.07c-0.79,0.91-1.73,1.5-3.01,1.5C627.08,211.14,626.22,209.76,626.22,207.51z"/>
	<path d="M637.2,201.99h2.16l0.19,1.19h0.07c0.78-0.76,1.76-1.41,3.09-1.41c2.02,0,2.91,1.38,2.91,3.63v5.52h-2.65v-5.17
		c0-1.19-0.34-1.72-1.31-1.72c-0.71,0-1.19,0.33-1.81,0.93v5.96h-2.65V201.99z"/>
	<rect x="637.2" y="197.54" width="8.42" height="2.23"/>
</g>
<g>
	<path d="M756.39,232.63l5.48-7.9h-4.97v-2.23h8.26v1.61l-5.49,7.91h5.55v2.23h-8.83V232.63z"/>
	<path d="M767.28,231.76c0-2,1.65-3.02,5.88-3.28c-0.09-0.8-0.7-1.29-1.89-1.29c-0.86,0-1.72,0.33-2.72,0.84l-0.94-1.74
		c1.24-0.71,2.66-1.21,4.18-1.21c2.51,0,4.03,1.31,4.03,4.04v5.11h-2.16l-0.19-1.01h-0.07c-0.9,0.68-2.02,1.22-3.17,1.22
		C768.41,234.46,767.28,233.26,767.28,231.76z M773.16,231.55v-1.46c-2.63,0.13-3.33,0.7-3.33,1.46c0,0.57,0.48,0.85,1.23,0.85
		C771.85,232.4,772.52,232.04,773.16,231.55z"/>
	<path d="M777.93,233.09l1.13-1.65c1.1,0.68,2.33,1.06,3.6,1.06c0.98,0,1.42-0.33,1.42-0.77c0-0.5-0.43-0.68-2.19-1.05
		c-2.43-0.52-3.4-1.41-3.4-2.79c0-1.66,1.55-2.8,4.1-2.8c1.59,0,2.94,0.63,3.87,1.22l-1.19,1.59c-0.9-0.55-1.94-0.85-2.92-0.85
		c-0.83,0-1.24,0.3-1.24,0.71c0,0.5,0.55,0.61,2.06,0.95c2.76,0.62,3.52,1.4,3.52,2.86c0,1.62-1.54,2.88-4.41,2.88
		C780.71,234.46,779.06,233.84,777.93,233.09z"/>
	<path d="M788.89,230.82v-5.52h2.65v5.17c0,1.18,0.32,1.72,1.3,1.72c0.66,0,1.12-0.23,1.73-1.02v-5.87h2.65v8.93h-2.17l-0.19-1.28
		h-0.07c-0.79,0.91-1.73,1.5-3.01,1.5C789.75,234.46,788.89,233.07,788.89,230.82z"/>
	<path d="M799.88,225.31h2.16l0.19,1.19h0.07c0.78-0.76,1.76-1.41,3.09-1.41c2.02,0,2.91,1.38,2.91,3.63v5.52h-2.65v-5.17
		c0-1.19-0.34-1.72-1.31-1.72c-0.71,0-1.19,0.33-1.81,0.93v5.96h-2.65V225.31z"/>
	<rect x="799.88" y="220.85" width="8.42" height="2.23"/>
</g>
<path d="M679.72,233.37l5.48-7.9h-4.97v-2.23h8.26v1.61l-5.49,7.91h5.55v2.23h-8.83V233.37z"/>
<path d="M679.72,320.16l5.48-7.9h-4.97v-2.23h8.26v1.61l-5.49,7.91h5.55v2.23h-8.83V320.16z"/>
<path d="M690.61,232.5c0-2,1.65-3.02,5.88-3.28c-0.09-0.8-0.7-1.29-1.89-1.29c-0.86,0-1.72,0.33-2.72,0.84l-0.94-1.74
	c1.24-0.71,2.66-1.21,4.18-1.21c2.51,0,4.03,1.31,4.03,4.04v5.11h-2.16l-0.19-1.01h-0.07c-0.9,0.68-2.02,1.22-3.17,1.22
	C691.74,235.2,690.61,234.01,690.61,232.5z M696.49,232.29v-1.46c-2.63,0.13-3.33,0.7-3.33,1.46c0,0.57,0.48,0.85,1.23,0.85
	C695.18,233.15,695.85,232.78,696.49,232.29z"/>
<path d="M701.26,233.83l1.13-1.65c1.1,0.68,2.33,1.06,3.6,1.06c0.98,0,1.42-0.33,1.42-0.77c0-0.5-0.43-0.68-2.19-1.05
	c-2.43-0.52-3.4-1.41-3.4-2.79c0-1.66,1.55-2.8,4.1-2.8c1.59,0,2.94,0.63,3.87,1.22l-1.19,1.59c-0.9-0.55-1.94-0.85-2.92-0.85
	c-0.83,0-1.24,0.3-1.24,0.71c0,0.5,0.55,0.61,2.06,0.95c2.76,0.62,3.52,1.4,3.52,2.86c0,1.62-1.54,2.88-4.41,2.88
	C704.04,235.2,702.39,234.58,701.26,233.83z"/>
<path d="M712.22,231.56v-5.52h2.65v5.17c0,1.18,0.32,1.72,1.3,1.72c0.66,0,1.12-0.23,1.73-1.02v-5.87h2.65v8.93h-2.17l-0.19-1.28
	h-0.07c-0.79,0.91-1.73,1.5-3.01,1.5C713.08,235.2,712.22,233.82,712.22,231.56z"/>
<path d="M723.21,226.05h2.16l0.19,1.19h0.07c0.78-0.76,1.76-1.41,3.09-1.41c2.02,0,2.91,1.38,2.91,3.63v5.52h-2.65v-5.17
	c0-1.19-0.34-1.72-1.31-1.72c-0.71,0-1.19,0.33-1.81,0.93v5.96h-2.65V226.05z"/>
<g>
	<circle cx="429.35" cy="171.62" r="0.87"/>
</g>
<rect x="416.12" y="192.32" width="2.1" height="0.74"/>
<path d="M378.66,191.95h-2.11v1.47h2.11c0.39,0,0.7-0.31,0.7-0.7v-0.07C379.37,192.26,379.05,191.95,378.66,191.95z"/>
<rect x="374.46" y="192.32" width="2.1" height="0.74"/>
<path d="M416.12,191.95L416.12,191.95c-0.39,0-0.7,0.31-0.7,0.7v0.07c0,0.39,0.31,0.7,0.7,0.7l0,0c0.39,0,0.7-0.31,0.7-0.7v-0.07
	C416.82,192.26,416.51,191.95,416.12,191.95z"/>
<path d="M500.77,209.36l3.65-5.27h-3.31v-1.48h5.5v1.07l-3.65,5.27h3.7v1.48h-5.88V209.36z"/>
<path d="M508.03,208.78c0-1.33,1.1-2.01,3.91-2.18c-0.06-0.53-0.46-0.86-1.26-0.86c-0.57,0-1.14,0.22-1.81,0.56l-0.63-1.16
	c0.82-0.47,1.77-0.8,2.78-0.8c1.67,0,2.69,0.87,2.69,2.69v3.4h-1.44l-0.13-0.67h-0.04c-0.6,0.45-1.35,0.81-2.11,0.81
	C508.78,210.58,508.03,209.78,508.03,208.78z M511.94,208.64v-0.97c-1.75,0.09-2.22,0.47-2.22,0.98c0,0.38,0.32,0.57,0.82,0.57
	C511.07,209.21,511.52,208.97,511.94,208.64z"/>
<path d="M515.13,209.67l0.75-1.1c0.73,0.45,1.55,0.71,2.4,0.71c0.65,0,0.94-0.22,0.94-0.51c0-0.33-0.29-0.45-1.46-0.7
	c-1.62-0.35-2.26-0.94-2.26-1.86c0-1.11,1.04-1.86,2.73-1.86c1.06,0,1.96,0.42,2.58,0.81l-0.79,1.06c-0.6-0.36-1.29-0.57-1.95-0.57
	c-0.55,0-0.82,0.2-0.82,0.48c0,0.33,0.37,0.41,1.37,0.63c1.84,0.41,2.35,0.93,2.35,1.9c0,1.08-1.03,1.92-2.94,1.92
	C516.98,210.58,515.88,210.17,515.13,209.67z"/>
<path d="M522.44,208.16v-3.67h1.77v3.45c0,0.79,0.21,1.14,0.87,1.14c0.44,0,0.75-0.16,1.15-0.68v-3.91h1.77v5.95h-1.44l-0.13-0.85
	h-0.05c-0.53,0.61-1.15,1-2.01,1C523.01,210.58,522.44,209.66,522.44,208.16z"/>
<path d="M529.76,204.48h1.44l0.13,0.79h0.05c0.52-0.51,1.17-0.94,2.06-0.94c1.34,0,1.94,0.92,1.94,2.42v3.67h-1.77v-3.45
	c0-0.79-0.23-1.14-0.87-1.14c-0.47,0-0.79,0.22-1.2,0.62v3.97h-1.77V204.48z"/>
<rect x="579.5" y="201.54" width="3.4" height="1.47"/>
<path d="M548.3,209.36l3.65-5.27h-3.31v-1.48h5.5v1.07l-3.65,5.27h3.7v1.48h-5.88V209.36z"/>
<path d="M555.56,208.78c0-1.33,1.1-2.01,3.91-2.18c-0.06-0.53-0.46-0.86-1.26-0.86c-0.57,0-1.14,0.22-1.81,0.56l-0.63-1.16
	c0.82-0.47,1.77-0.8,2.78-0.8c1.67,0,2.69,0.87,2.69,2.69v3.4h-1.44l-0.13-0.67h-0.04c-0.6,0.45-1.35,0.81-2.11,0.81
	C556.31,210.58,555.56,209.78,555.56,208.78z M559.47,208.64v-0.97c-1.75,0.09-2.22,0.47-2.22,0.98c0,0.38,0.32,0.57,0.82,0.57
	C558.6,209.21,559.05,208.97,559.47,208.64z"/>
<path d="M562.66,209.67l0.75-1.1c0.73,0.45,1.55,0.71,2.4,0.71c0.65,0,0.94-0.22,0.94-0.51c0-0.33-0.29-0.45-1.46-0.7
	c-1.62-0.35-2.26-0.94-2.26-1.86c0-1.11,1.04-1.86,2.73-1.86c1.06,0,1.96,0.42,2.58,0.81l-0.79,1.06c-0.6-0.36-1.29-0.57-1.95-0.57
	c-0.55,0-0.82,0.2-0.82,0.48c0,0.33,0.37,0.41,1.37,0.63c1.84,0.41,2.35,0.93,2.35,1.9c0,1.08-1.03,1.92-2.94,1.92
	C564.51,210.58,563.41,210.17,562.66,209.67z"/>
<path d="M569.96,208.16v-3.67h1.77v3.45c0,0.79,0.21,1.14,0.87,1.14c0.44,0,0.75-0.16,1.15-0.68v-3.91h1.77v5.95h-1.44l-0.13-0.85
	h-0.05c-0.53,0.61-1.15,1-2.01,1C570.54,210.58,569.96,209.66,569.96,208.16z"/>
<path d="M577.29,204.48h1.44l0.13,0.79h0.05c0.52-0.51,1.17-0.94,2.06-0.94c1.34,0,1.94,0.92,1.94,2.42v3.67h-1.77v-3.45
	c0-0.79-0.23-1.14-0.87-1.14c-0.47,0-0.79,0.22-1.2,0.62v3.97h-1.77V204.48z"/>
<path d="M343.47,192.26l3.95-5.7h-3.58v-1.6h5.95v1.16l-3.95,5.7h4v1.61h-6.37V192.26z"/>
<path d="M350.97,191.77c0-1.33,1.1-2.01,3.91-2.18c-0.06-0.53-0.46-0.86-1.26-0.86c-0.57,0-1.14,0.22-1.81,0.56l-0.63-1.16
	c0.82-0.47,1.77-0.8,2.78-0.8c1.67,0,2.69,0.87,2.69,2.69v3.4h-1.44l-0.13-0.67h-0.04c-0.6,0.45-1.35,0.81-2.11,0.81
	C351.73,193.57,350.97,192.77,350.97,191.77z M354.89,191.63v-0.97c-1.75,0.09-2.22,0.47-2.22,0.98c0,0.38,0.32,0.57,0.82,0.57
	C354.02,192.2,354.47,191.96,354.89,191.63z"/>
<path d="M358.08,192.65l0.75-1.1c0.73,0.45,1.55,0.71,2.4,0.71c0.65,0,0.94-0.22,0.94-0.51c0-0.33-0.29-0.45-1.46-0.7
	c-1.62-0.35-2.26-0.94-2.26-1.86c0-1.11,1.04-1.86,2.73-1.86c1.06,0,1.96,0.42,2.58,0.81l-0.79,1.06c-0.6-0.36-1.29-0.57-1.95-0.57
	c-0.55,0-0.82,0.2-0.82,0.48c0,0.33,0.37,0.41,1.37,0.63c1.84,0.41,2.35,0.93,2.35,1.9c0,1.08-1.03,1.92-2.94,1.92
	C359.92,193.57,358.83,193.16,358.08,192.65z"/>
<path d="M365.38,191.15v-3.67h1.77v3.45c0,0.79,0.21,1.14,0.87,1.14c0.44,0,0.75-0.16,1.15-0.68v-3.91h1.77v5.95h-1.44l-0.13-0.85
	h-0.05c-0.53,0.61-1.15,1-2.01,1C365.96,193.57,365.38,192.65,365.38,191.15z"/>
<path d="M372.7,185.11h1.44l0.13,0.79h0.05c0.52-0.51,1.17-0.94,2.06-0.94c1.34,0,1.94,0.92,1.94,2.42v3.67h-1.77v-3.45
	c0-0.79-0.23-1.14-0.87-1.14c-0.47,0-0.79,0.22-1.2,0.62v3.97h-1.77V185.11z"/>
<path d="M373.75,191.95h-0.35c-0.39,0-0.7,0.31-0.7,0.7v0.07c0,0.39,0.31,0.7,0.7,0.7h0.35c0.39,0,0.7-0.31,0.7-0.7v-0.07
	C374.46,192.26,374.14,191.95,373.75,191.95z"/>
<circle cx="578.02" cy="202.27" r="0.74"/>
<g>
	<path d="M0-23.68l4.82-7.12H0.41v-0.47h5.08v0.33l-4.83,7.11h4.91v0.48H0V-23.68z"/>
	<path d="M7.46-24.78c0-1.29,1.29-1.9,4.42-2.17c-0.01-0.95-0.39-1.83-1.71-1.83c-0.87,0-1.71,0.45-2.18,0.78L7.74-28.4
		c0.46-0.33,1.46-0.86,2.49-0.86c1.54,0,2.18,0.99,2.18,2.22v3.68h-0.45l-0.06-0.86h-0.03c-0.66,0.53-1.55,1.01-2.4,1.01
		C8.44-23.21,7.46-23.71,7.46-24.78z M11.88-24.71v-1.84C8.94-26.29,8-25.74,8-24.81c0,0.83,0.77,1.14,1.55,1.14
		C10.29-23.67,11.06-24.03,11.88-24.71z"/>
	<path d="M14.54-24.12l0.28-0.39c0.64,0.5,1.4,0.84,2.61,0.84c1.18,0,1.78-0.53,1.78-1.14c0-0.52-0.2-0.94-2.03-1.31
		c-1.46-0.29-2.3-0.77-2.3-1.62c0-0.83,0.71-1.53,2.25-1.53c0.77,0,1.66,0.3,2.21,0.71l-0.29,0.38c-0.51-0.38-1.18-0.64-1.96-0.64
		c-1.25,0-1.66,0.51-1.66,1.05c0,0.61,0.59,0.91,1.9,1.18c1.99,0.42,2.43,0.88,2.43,1.74c0,0.87-0.86,1.63-2.38,1.63
		C16.2-23.21,15.22-23.64,14.54-24.12z"/>
	<path d="M21.8-25.52v-3.59h0.53v3.52c0,1.28,0.48,1.91,1.62,1.91c0.81,0,1.42-0.41,2.2-1.3v-4.12h0.53v5.76h-0.45l-0.06-1.12h-0.05
		c-0.62,0.73-1.34,1.26-2.27,1.26C22.47-23.21,21.8-23.96,21.8-25.52z"/>
	<path d="M29.22-29.11h0.45L29.73-28h0.05c0.66-0.71,1.34-1.25,2.27-1.25c1.4,0,2.07,0.75,2.07,2.32v3.59h-0.53v-3.52
		c0-1.29-0.48-1.91-1.62-1.91c-0.82,0-1.38,0.43-2.21,1.3v4.13h-0.53V-29.11z"/>
	<rect x="29.22" y="-31.27" width="4.9" height="0.47"/>
</g>
<path d="M548.3,229.82l4.82-7.12h-4.41v-0.47h5.08v0.33l-4.83,7.11h4.91v0.48h-5.57V229.82z"/>
<path d="M555.76,228.72c0-1.29,1.29-1.9,4.42-2.17c-0.01-0.95-0.39-1.83-1.71-1.83c-0.87,0-1.71,0.45-2.18,0.78l-0.25-0.39
	c0.46-0.33,1.46-0.86,2.49-0.86c1.54,0,2.18,0.99,2.18,2.22v3.68h-0.45l-0.06-0.86h-0.03c-0.66,0.53-1.55,1.01-2.4,1.01
	C556.73,230.3,555.76,229.8,555.76,228.72z M560.17,228.8v-1.84c-2.93,0.26-3.87,0.81-3.87,1.74c0,0.83,0.77,1.14,1.55,1.14
	C558.59,229.84,559.36,229.48,560.17,228.8z"/>
<path d="M562.84,229.39l0.28-0.39c0.64,0.5,1.4,0.84,2.61,0.84c1.18,0,1.78-0.53,1.78-1.14c0-0.52-0.2-0.94-2.03-1.31
	c-1.46-0.29-2.3-0.77-2.3-1.62c0-0.83,0.71-1.53,2.25-1.53c0.77,0,1.66,0.3,2.21,0.71l-0.29,0.38c-0.51-0.38-1.18-0.64-1.96-0.64
	c-1.25,0-1.66,0.51-1.66,1.05c0,0.61,0.59,0.91,1.9,1.18c1.99,0.42,2.43,0.88,2.43,1.74c0,0.87-0.86,1.63-2.38,1.63
	C564.5,230.3,563.52,229.87,562.84,229.39z"/>
<path d="M570.09,227.98v-3.59h0.53v3.52c0,1.28,0.48,1.91,1.62,1.91c0.81,0,1.42-0.41,2.2-1.3v-4.12h0.53v5.76h-0.45l-0.06-1.12
	h-0.05c-0.62,0.73-1.34,1.26-2.27,1.26C570.76,230.3,570.09,229.54,570.09,227.98z"/>
<path d="M577.52,224.4h0.45l0.06,1.11h0.05c0.66-0.71,1.34-1.25,2.27-1.25c1.4,0,2.07,0.75,2.07,2.32v3.59h-0.53v-3.52
	c0-1.29-0.48-1.91-1.62-1.91c-0.82,0-1.38,0.43-2.21,1.3v4.13h-0.53V224.4z"/>
<rect x="578.45" y="222.24" width="3.96" height="0.47"/>
<circle cx="577.75" cy="222.47" r="0.23"/>
<rect x="616.71" y="251.2" width="5.92" height="0.71"/>
<circle cx="615.64" cy="251.56" r="0.36"/>
<path d="M500.77,262.59l7.24-10.68h-6.62v-0.7h7.63v0.5l-7.26,10.67h7.38v0.71h-8.36V262.59z"/>
<path d="M511.96,260.93c0-1.94,1.94-2.85,6.63-3.26c-0.02-1.42-0.59-2.75-2.57-2.75c-1.3,0-2.57,0.67-3.27,1.18l-0.37-0.59
	c0.69-0.5,2.19-1.29,3.74-1.29c2.32,0,3.28,1.49,3.28,3.34v5.52h-0.68l-0.09-1.29h-0.04c-0.99,0.8-2.33,1.51-3.61,1.51
	C513.43,263.3,511.96,262.55,511.96,260.93z M518.59,261.05v-2.77c-4.4,0.39-5.81,1.22-5.81,2.61c0,1.24,1.16,1.71,2.33,1.71
	C516.22,262.61,517.37,262.07,518.59,261.05z"/>
<path d="M522.58,261.93l0.42-0.58c0.96,0.75,2.1,1.27,3.92,1.27c1.76,0,2.67-0.8,2.67-1.7c0-0.78-0.3-1.41-3.05-1.96
	c-2.2-0.44-3.45-1.15-3.45-2.43c0-1.25,1.06-2.3,3.38-2.3c1.16,0,2.49,0.46,3.32,1.06l-0.43,0.57c-0.77-0.57-1.77-0.96-2.95-0.96
	c-1.88,0-2.49,0.76-2.49,1.58c0,0.91,0.89,1.37,2.84,1.77c2.99,0.63,3.65,1.32,3.65,2.61c0,1.3-1.29,2.44-3.57,2.44
	C525.07,263.3,523.61,262.66,522.58,261.93z"/>
<path d="M533.47,259.82v-5.38h0.8v5.28c0,1.93,0.72,2.86,2.44,2.86c1.22,0,2.13-0.61,3.31-1.96v-6.19h0.8v8.65h-0.68l-0.09-1.67
	h-0.07c-0.93,1.09-2.01,1.89-3.4,1.89C534.47,263.3,533.47,262.17,533.47,259.82z"/>
<path d="M544.61,254.44h0.67l0.09,1.66h0.07c1-1.07,2.02-1.88,3.41-1.88c2.1,0,3.1,1.13,3.1,3.48v5.39h-0.8v-5.28
	c0-1.93-0.72-2.86-2.43-2.86c-1.23,0-2.07,0.64-3.32,1.95v6.2h-0.8V254.44z"/>
<rect x="544.61" y="251.2" width="7.35" height="0.71"/>
<g>
	<rect x="615.28" y="268.71" transform="matrix(-1 -1.224647e-16 1.224647e-16 -1 1236.48 538.1274)" width="5.92" height="0.71"/>
	
		<rect x="609.36" y="267.99" transform="matrix(-1 -1.224647e-16 1.224647e-16 -1 1224.6382 536.6987)" width="5.92" height="0.71"/>
	<rect x="615.28" y="267.28" transform="matrix(-1 -1.224647e-16 1.224647e-16 -1 1236.48 535.27)" width="5.92" height="0.71"/>
	<g>
		<circle cx="621.2" cy="268.35" r="1.07"/>
		<circle class="st0" cx="621.2" cy="268.35" r="0.36"/>
	</g>
	<g>
		<circle cx="609.36" cy="268.35" r="1.07"/>
		<circle class="st0" cx="609.36" cy="268.35" r="0.36"/>
	</g>
</g>
<g>
	<rect x="705.65" y="244.78" width="22.61" height="2.23"/>
	<rect x="683.04" y="242.56" width="22.61" height="2.23"/>
	<rect x="705.65" y="240.33" width="22.61" height="2.23"/>
	<g>
		<circle cx="728.26" cy="243.67" r="3.34"/>
		<circle class="st0" cx="728.26" cy="243.67" r="1.11"/>
	</g>
	<g>
		<circle cx="683.04" cy="243.67" r="3.34"/>
		<circle class="st0" cx="683.04" cy="243.67" r="1.11"/>
	</g>
	<rect x="705.65" y="242.56" class="st0" width="22.61" height="2.23"/>
</g>
<g>
	<rect x="783.01" y="243.67" width="22.61" height="2.23"/>
	<rect x="760.4" y="241.44" width="22.61" height="2.23"/>
	<rect x="783.01" y="239.22" width="22.61" height="2.23"/>
	<g>
		<circle cx="805.62" cy="242.56" r="3.34"/>
		<circle class="st0" cx="805.62" cy="242.56" r="1.11"/>
	</g>
	<g>
		<circle cx="760.4" cy="242.56" r="3.34"/>
		<circle class="st0" cx="760.4" cy="242.56" r="1.11"/>
	</g>
	<rect x="783.01" y="241.44" class="st0" width="22.61" height="2.23"/>
</g>
<g>
	<rect x="696.14" y="321.03" width="6.47" height="0.74"/>
	<rect x="689.67" y="320.28" width="6.47" height="0.74"/>
	<rect x="696.14" y="319.54" width="6.47" height="0.74"/>
	<g>
		<circle cx="702.6" cy="320.65" r="1.11"/>
		<circle class="st0" cx="702.6" cy="320.65" r="0.37"/>
	</g>
	<g>
		<circle cx="689.67" cy="320.65" r="1.11"/>
		<circle class="st0" cx="689.67" cy="320.65" r="0.37"/>
	</g>
	<rect x="696.14" y="320.28" class="st0" width="6.47" height="0.74"/>
</g>
<g>
	<rect x="651.36" y="320.16" transform="matrix(-1.836970e-16 1 -1 -1.836970e-16 974.8885 -333.8276)" width="6" height="0.74"/>
	<rect x="652.1" y="314.16" transform="matrix(-1.836970e-16 1 -1 -1.836970e-16 969.6313 -340.5691)" width="6" height="0.74"/>
	<rect x="652.84" y="320.16" transform="matrix(-1.836970e-16 1 -1 -1.836970e-16 976.3729 -335.312)" width="6" height="0.74"/>
	<g>
		<circle cx="655.1" cy="323.53" r="1.11"/>
		<circle class="st0" cx="655.1" cy="323.53" r="0.37"/>
	</g>
	<g>
		<circle cx="655.1" cy="311.53" r="1.11"/>
		<circle class="st0" cx="655.1" cy="311.53" r="0.37"/>
	</g>
	
		<rect x="652.1" y="320.16" transform="matrix(-1.836970e-16 1 -1 -1.836970e-16 975.6307 -334.5697)" class="st0" width="6" height="0.74"/>
</g>
<rect x="666.56" y="319.54" width="5.44" height="2.23"/>
<rect x="663.17" y="309.55" width="6.06" height="2.23"/>
<g>
	<rect x="662.32" y="317.4" transform="matrix(-0.5489 0.8359 -0.8359 -0.5489 1296.1348 -63.9295)" width="6" height="0.74"/>
	<rect x="666.23" y="312.8" transform="matrix(-0.5489 0.8359 -0.8359 -0.5489 1298.345 -74.337)" width="6" height="0.74"/>
	<rect x="663.56" y="318.22" transform="matrix(-0.5489 0.8359 -0.8359 -0.5489 1298.7377 -63.7046)" width="6" height="0.74"/>
	<g>
		<circle cx="664.29" cy="320.69" r="1.11"/>
		<circle class="st0" cx="664.29" cy="320.69" r="0.37"/>
	</g>
	<g>
		<circle cx="670.88" cy="310.66" r="1.11"/>
		<circle class="st0" cx="670.88" cy="310.66" r="0.37"/>
	</g>
	
		<rect x="662.94" y="317.81" transform="matrix(-0.5489 0.8359 -0.8359 -0.5489 1297.4363 -63.817)" class="st0" width="6" height="0.74"/>
</g>
<rect x="593.47" y="311.9" width="26.67" height="1.26"/>
<rect x="566.8" y="313.16" width="26.67" height="1.26"/>
<rect x="593.47" y="314.42" width="26.67" height="1.26"/>
<g>
	<circle cx="620.15" cy="313.79" r="1.89"/>
	<circle class="st0" cx="620.15" cy="313.79" r="0.63"/>
</g>
<g>
	<circle cx="565.35" cy="313.79" r="1.89"/>
	<circle class="st0" cx="565.35" cy="313.79" r="0.63"/>
</g>
<rect x="593.47" y="313.16" class="st0" width="26.67" height="1.26"/>
<rect x="593.47" y="328.2" width="26.67" height="1.26"/>
<rect x="566.8" y="329.45" width="26.67" height="1.26"/>
<rect x="593.47" y="330.71" width="26.67" height="1.26"/>
<g>
	<circle cx="620.15" cy="330.08" r="1.89"/>
	<circle class="st0" cx="620.15" cy="330.08" r="0.63"/>
</g>
<g>
	<circle cx="563.94" cy="337.36" r="1.89"/>
	<circle class="st0" cx="563.94" cy="337.36" r="0.63"/>
</g>
<rect x="593.47" y="329.45" class="st0" width="26.67" height="1.26"/>
<text transform="matrix(1 0 0 1 500.4988 284.5968)" style="font-family:'TTNorms-Light'; font-size:18px;">Zasuń</text>
<rect x="564.09" y="328.2" transform="matrix(0.7071 -0.7071 0.7071 0.7071 -67.6323 496.8839)" width="3.77" height="3.77"/>
<text transform="matrix(1 0 0 1 347.6692 381.3572)" style="font-family:'ProximaNova-Light'; font-size:12px;">zasuń</text>
<g>
	<g>
		<path d="M348.45,413.7v-0.6l4.39-6.44h-4.01v-0.84h5.24v0.6l-4.4,6.43h4.46v0.85H348.45z"/>
		<path d="M355.25,413.7l2.65-7.87h1.13l2.65,7.87h-1.06l-1.37-4.4c-0.14-0.44-0.27-0.88-0.4-1.31c-0.13-0.44-0.26-0.88-0.38-1.34
			h-0.05c-0.13,0.46-0.26,0.9-0.38,1.34c-0.13,0.44-0.26,0.87-0.4,1.31l-1.38,4.4H355.25z M356.64,411.3v-0.8h3.61v0.8H356.64z"/>
		<path d="M365.73,413.84c-0.58,0-1.11-0.11-1.59-0.32s-0.91-0.49-1.27-0.85l0.6-0.7c0.3,0.3,0.64,0.53,1.04,0.71
			s0.82,0.27,1.27,0.27c0.54,0,0.97-0.12,1.27-0.35c0.3-0.23,0.45-0.53,0.45-0.9c0-0.28-0.06-0.5-0.19-0.67s-0.29-0.31-0.5-0.42
			c-0.21-0.11-0.45-0.22-0.73-0.34l-1.13-0.49c-0.26-0.11-0.53-0.25-0.79-0.42c-0.26-0.17-0.48-0.38-0.65-0.64s-0.26-0.58-0.26-0.97
			c0-0.4,0.11-0.76,0.33-1.07s0.53-0.56,0.92-0.74s0.84-0.27,1.33-0.27s0.95,0.09,1.37,0.27s0.77,0.41,1.06,0.7l-0.53,0.65
			c-0.26-0.23-0.54-0.41-0.85-0.55c-0.31-0.13-0.67-0.2-1.08-0.2c-0.46,0-0.82,0.1-1.1,0.31c-0.28,0.2-0.42,0.49-0.42,0.85
			c0,0.25,0.07,0.45,0.21,0.61c0.14,0.16,0.32,0.29,0.53,0.4c0.22,0.1,0.44,0.2,0.66,0.3l1.1,0.48c0.33,0.13,0.62,0.28,0.89,0.46
			c0.26,0.18,0.47,0.4,0.62,0.67c0.15,0.26,0.23,0.59,0.23,0.97c0,0.42-0.11,0.79-0.34,1.13s-0.54,0.61-0.96,0.81
			C366.8,413.74,366.3,413.84,365.73,413.84z"/>
		<path d="M372.88,413.84c-0.38,0-0.74-0.06-1.06-0.17c-0.32-0.12-0.61-0.3-0.85-0.54c-0.24-0.24-0.43-0.57-0.56-0.97
			c-0.13-0.4-0.2-0.88-0.2-1.44v-4.9h1.01v4.92c0,0.54,0.07,0.98,0.22,1.3c0.14,0.32,0.34,0.56,0.59,0.7
			c0.25,0.14,0.53,0.22,0.85,0.22c0.32,0,0.61-0.07,0.86-0.22c0.25-0.14,0.45-0.38,0.59-0.7c0.14-0.32,0.22-0.76,0.22-1.3v-4.92
			h0.97v4.9c0,0.56-0.07,1.04-0.2,1.44c-0.13,0.4-0.32,0.72-0.55,0.97c-0.24,0.24-0.51,0.42-0.83,0.54
			C373.62,413.79,373.26,413.84,372.88,413.84z"/>
		<path d="M377.45,413.7v-7.87h1.1l2.52,4.94l0.76,1.63h0.02c-0.02-0.39-0.04-0.8-0.08-1.23c-0.04-0.43-0.05-0.85-0.05-1.27v-4.08
			h0.96v7.87h-1.1l-2.52-4.94l-0.76-1.63h-0.02c0.02,0.4,0.04,0.81,0.08,1.22c0.04,0.42,0.05,0.83,0.05,1.24v4.12H377.45z
			 M379.84,405.34l-0.43-0.5l1.69-1.54l0.56,0.66L379.84,405.34z"/>
	</g>
</g>
<text transform="matrix(1 0 0 1 347.6692 393.4122)" style="font-family:'ProximaNova-Light'; font-size:12px;">zasuń</text>
<g>
	<g>
		<path d="M348.45,424.95v-0.6l4.39-6.44h-4.01v-0.84h5.24v0.6l-4.4,6.43h4.46v0.85H348.45z"/>
		<path d="M357.82,425.1c-0.36,0-0.69-0.07-1-0.2c-0.3-0.13-0.54-0.32-0.72-0.57c-0.18-0.25-0.26-0.54-0.26-0.89
			c0-0.66,0.33-1.15,0.98-1.49c0.66-0.34,1.74-0.57,3.24-0.69c-0.01-0.26-0.06-0.51-0.16-0.73c-0.1-0.22-0.26-0.4-0.49-0.53
			s-0.52-0.2-0.9-0.2c-0.25,0-0.49,0.03-0.74,0.1c-0.24,0.07-0.48,0.16-0.7,0.26s-0.42,0.22-0.61,0.33l-0.38-0.67
			c0.19-0.13,0.43-0.26,0.7-0.39c0.28-0.13,0.57-0.24,0.89-0.32s0.65-0.13,1-0.13c0.54,0,0.98,0.1,1.33,0.3s0.61,0.48,0.78,0.83
			c0.17,0.36,0.26,0.78,0.26,1.27v3.58h-0.8l-0.08-0.79h-0.04c-0.32,0.26-0.68,0.48-1.08,0.66
			C358.64,425.01,358.24,425.1,357.82,425.1z M358.08,424.31c0.34,0,0.67-0.08,1-0.23s0.66-0.36,0.98-0.64v-1.54
			c-0.83,0.07-1.49,0.17-1.96,0.3s-0.81,0.29-1.01,0.49c-0.2,0.2-0.29,0.42-0.29,0.68c0,0.22,0.06,0.39,0.18,0.53
			c0.12,0.14,0.28,0.24,0.47,0.31C357.65,424.27,357.86,424.31,358.08,424.31z"/>
		<path d="M365.79,425.1c-0.57,0-1.1-0.09-1.6-0.28c-0.5-0.18-0.92-0.4-1.27-0.64l0.46-0.65c0.34,0.24,0.71,0.43,1.12,0.58
			c0.41,0.14,0.88,0.22,1.42,0.22c0.5,0,0.87-0.09,1.11-0.28c0.24-0.18,0.37-0.4,0.37-0.64c0-0.11-0.02-0.22-0.07-0.31
			c-0.04-0.1-0.13-0.19-0.25-0.28s-0.31-0.17-0.55-0.25c-0.24-0.08-0.56-0.16-0.96-0.24c-0.76-0.16-1.33-0.38-1.71-0.65
			c-0.38-0.27-0.57-0.62-0.57-1.06c0-0.47,0.2-0.87,0.61-1.18c0.41-0.32,1.01-0.47,1.81-0.47c0.45,0,0.88,0.07,1.3,0.22
			c0.42,0.15,0.77,0.32,1.06,0.52l-0.48,0.64c-0.26-0.19-0.56-0.34-0.9-0.45c-0.34-0.11-0.69-0.16-1.06-0.16
			c-0.34,0-0.6,0.04-0.8,0.11s-0.34,0.18-0.42,0.31s-0.13,0.27-0.13,0.42c0,0.25,0.13,0.44,0.4,0.58c0.27,0.14,0.7,0.27,1.29,0.39
			c0.65,0.14,1.15,0.29,1.49,0.46s0.59,0.36,0.72,0.58c0.13,0.22,0.2,0.47,0.2,0.77c0,0.32-0.1,0.61-0.3,0.87
			c-0.2,0.26-0.49,0.47-0.88,0.63C366.82,425.02,366.35,425.1,365.79,425.1z"/>
		<path d="M372.22,425.1c-0.7,0-1.21-0.2-1.54-0.6c-0.33-0.4-0.49-0.98-0.49-1.75v-3.62h1v3.49c0,0.55,0.1,0.96,0.31,1.23
			c0.2,0.27,0.55,0.4,1.04,0.4c0.34,0,0.64-0.09,0.92-0.26c0.28-0.17,0.57-0.45,0.89-0.82v-4.04h0.98v5.83h-0.8l-0.08-1.02h-0.05
			c-0.3,0.34-0.62,0.61-0.97,0.83C373.07,424.99,372.67,425.1,372.22,425.1z"/>
		<path d="M377.59,424.95v-5.83h0.82l0.08,1h0.05c0.3-0.33,0.63-0.6,0.98-0.82c0.35-0.22,0.76-0.32,1.21-0.32
			c0.69,0,1.2,0.2,1.52,0.6c0.33,0.4,0.49,0.98,0.49,1.75v3.62h-0.98v-3.49c0-0.55-0.1-0.96-0.31-1.23c-0.21-0.27-0.55-0.4-1.03-0.4
			c-0.34,0-0.65,0.09-0.92,0.26c-0.27,0.18-0.58,0.44-0.92,0.79v4.07H377.59z M380.03,418.14l-0.52-0.49l1.7-2.02l0.7,0.67
			L380.03,418.14z"/>
	</g>
</g>
<g>
	<path d="M348.45,452.61v-0.6l4.39-6.44h-4.01v-0.84h5.24v0.6l-4.4,6.43h4.46v0.85H348.45z"/>
	<path d="M357.82,452.76c-0.36,0-0.69-0.07-1-0.2c-0.3-0.13-0.54-0.32-0.72-0.57c-0.18-0.25-0.26-0.54-0.26-0.89
		c0-0.66,0.33-1.15,0.98-1.49c0.66-0.34,1.74-0.57,3.24-0.69c-0.01-0.26-0.06-0.51-0.16-0.73c-0.1-0.22-0.26-0.4-0.49-0.53
		s-0.52-0.2-0.9-0.2c-0.25,0-0.49,0.03-0.74,0.1c-0.24,0.07-0.48,0.16-0.7,0.26s-0.42,0.22-0.61,0.33l-0.38-0.67
		c0.19-0.13,0.43-0.26,0.7-0.39c0.28-0.13,0.57-0.24,0.89-0.32s0.65-0.13,1-0.13c0.54,0,0.98,0.1,1.33,0.3s0.61,0.48,0.78,0.83
		c0.17,0.36,0.26,0.78,0.26,1.27v3.58h-0.8l-0.08-0.79h-0.04c-0.32,0.26-0.68,0.48-1.08,0.66
		C358.64,452.66,358.24,452.76,357.82,452.76z M358.08,451.96c0.34,0,0.67-0.08,1-0.23s0.66-0.36,0.98-0.64v-1.54
		c-0.83,0.07-1.49,0.17-1.96,0.3s-0.81,0.29-1.01,0.49c-0.2,0.2-0.29,0.42-0.29,0.68c0,0.22,0.06,0.39,0.18,0.53
		c0.12,0.14,0.28,0.24,0.47,0.31C357.65,451.93,357.86,451.96,358.08,451.96z"/>
	<path d="M365.79,452.76c-0.57,0-1.1-0.09-1.6-0.28c-0.5-0.18-0.92-0.4-1.27-0.64l0.46-0.65c0.34,0.24,0.71,0.43,1.12,0.58
		c0.41,0.14,0.88,0.22,1.42,0.22c0.5,0,0.87-0.09,1.11-0.28c0.24-0.18,0.37-0.4,0.37-0.64c0-0.11-0.02-0.22-0.07-0.31
		c-0.04-0.1-0.13-0.19-0.25-0.28s-0.31-0.17-0.55-0.25c-0.24-0.08-0.56-0.16-0.96-0.24c-0.76-0.16-1.33-0.38-1.71-0.65
		c-0.38-0.27-0.57-0.62-0.57-1.06c0-0.47,0.2-0.87,0.61-1.18c0.41-0.32,1.01-0.47,1.81-0.47c0.45,0,0.88,0.07,1.3,0.22
		c0.42,0.15,0.77,0.32,1.06,0.52l-0.48,0.64c-0.26-0.19-0.56-0.34-0.9-0.45c-0.34-0.11-0.69-0.16-1.06-0.16
		c-0.34,0-0.6,0.04-0.8,0.11s-0.34,0.18-0.42,0.31s-0.13,0.27-0.13,0.42c0,0.25,0.13,0.44,0.4,0.58c0.27,0.14,0.7,0.27,1.29,0.39
		c0.65,0.14,1.15,0.29,1.49,0.46s0.59,0.36,0.72,0.58c0.13,0.22,0.2,0.47,0.2,0.77c0,0.32-0.1,0.61-0.3,0.87
		c-0.2,0.26-0.49,0.47-0.88,0.63C366.82,452.68,366.35,452.76,365.79,452.76z"/>
	<path d="M372.22,452.76c-0.7,0-1.21-0.2-1.54-0.6c-0.33-0.4-0.49-0.98-0.49-1.75v-3.62h1v3.49c0,0.55,0.1,0.96,0.31,1.23
		c0.2,0.27,0.55,0.4,1.04,0.4c0.34,0,0.64-0.09,0.92-0.26c0.28-0.17,0.57-0.45,0.89-0.82v-4.04h0.98v5.83h-0.8l-0.08-1.02h-0.05
		c-0.3,0.34-0.62,0.61-0.97,0.83C373.07,452.65,372.67,452.76,372.22,452.76z"/>
	<path d="M377.59,452.61v-5.83h0.82l0.08,1h0.05c0.3-0.33,0.63-0.6,0.98-0.82c0.35-0.22,0.76-0.32,1.21-0.32
		c0.69,0,1.2,0.2,1.52,0.6c0.33,0.4,0.49,0.98,0.49,1.75v3.62h-0.98v-3.49c0-0.55-0.1-0.96-0.31-1.23c-0.21-0.27-0.55-0.4-1.03-0.4
		c-0.34,0-0.65,0.09-0.92,0.26c-0.27,0.18-0.58,0.44-0.92,0.79v4.07H377.59z"/>
</g>
<rect x="377.59" y="444.73" width="5.16" height="0.84"/>
<g>
	<g>
		<path class="st0" d="M0,7.88v-0.6l4.39-6.44H0.38V0h5.24v0.6l-4.4,6.43h4.46v0.85H0z"/>
		<path class="st0" d="M9.37,8.03c-0.36,0-0.69-0.07-1-0.2C8.07,7.7,7.83,7.51,7.66,7.26C7.48,7.01,7.39,6.72,7.39,6.37
			c0-0.66,0.33-1.15,0.98-1.49c0.66-0.34,1.74-0.57,3.24-0.69c-0.01-0.26-0.06-0.51-0.16-0.73c-0.1-0.22-0.26-0.4-0.49-0.53
			s-0.52-0.2-0.9-0.2c-0.25,0-0.49,0.03-0.74,0.1c-0.24,0.07-0.48,0.16-0.7,0.26S8.21,3.31,8.03,3.42L7.64,2.75
			c0.19-0.13,0.43-0.26,0.7-0.39c0.28-0.13,0.57-0.24,0.89-0.32s0.65-0.13,1-0.13c0.54,0,0.98,0.1,1.33,0.3s0.61,0.48,0.78,0.83
			c0.17,0.36,0.26,0.78,0.26,1.27v3.58h-0.8l-0.08-0.79h-0.04C11.36,7.35,11,7.57,10.6,7.75C10.2,7.94,9.79,8.03,9.37,8.03z
			 M9.64,7.24c0.34,0,0.67-0.08,1-0.23s0.66-0.36,0.98-0.64V4.84c-0.83,0.07-1.49,0.17-1.96,0.3S8.84,5.43,8.65,5.62
			c-0.2,0.2-0.29,0.42-0.29,0.68c0,0.22,0.06,0.39,0.18,0.53c0.12,0.14,0.28,0.24,0.47,0.31C9.2,7.2,9.41,7.24,9.64,7.24z"/>
		<path class="st0" d="M17.34,8.03c-0.57,0-1.1-0.09-1.6-0.28c-0.5-0.18-0.92-0.4-1.27-0.64l0.46-0.65
			c0.34,0.24,0.71,0.43,1.12,0.58c0.41,0.14,0.88,0.22,1.42,0.22c0.5,0,0.87-0.09,1.11-0.28c0.24-0.18,0.37-0.4,0.37-0.64
			c0-0.11-0.02-0.22-0.07-0.31c-0.04-0.1-0.13-0.19-0.25-0.28s-0.31-0.17-0.55-0.25c-0.24-0.08-0.56-0.16-0.96-0.24
			c-0.76-0.16-1.33-0.38-1.71-0.65C15.02,4.35,14.83,4,14.83,3.56c0-0.47,0.2-0.87,0.61-1.18c0.41-0.32,1.01-0.47,1.81-0.47
			c0.45,0,0.88,0.07,1.3,0.22c0.42,0.15,0.77,0.32,1.06,0.52l-0.48,0.64c-0.26-0.19-0.56-0.34-0.9-0.45
			c-0.34-0.11-0.69-0.16-1.06-0.16c-0.34,0-0.6,0.04-0.8,0.11s-0.34,0.18-0.42,0.31s-0.13,0.27-0.13,0.42c0,0.25,0.13,0.44,0.4,0.58
			c0.27,0.14,0.7,0.27,1.29,0.39c0.65,0.14,1.15,0.29,1.49,0.46s0.59,0.36,0.72,0.58c0.13,0.22,0.2,0.47,0.2,0.77
			c0,0.32-0.1,0.61-0.3,0.87c-0.2,0.26-0.49,0.47-0.88,0.63C18.37,7.95,17.9,8.03,17.34,8.03z"/>
		<path class="st0" d="M23.77,8.03c-0.7,0-1.21-0.2-1.54-0.6c-0.33-0.4-0.49-0.98-0.49-1.75V2.05h1v3.49c0,0.55,0.1,0.96,0.31,1.23
			c0.2,0.27,0.55,0.4,1.04,0.4c0.34,0,0.64-0.09,0.92-0.26c0.28-0.17,0.57-0.45,0.89-0.82V2.05h0.98v5.83h-0.8l-0.08-1.02h-0.05
			c-0.3,0.34-0.62,0.61-0.97,0.83C24.62,7.92,24.22,8.03,23.77,8.03z"/>
		<path class="st0" d="M29.14,7.88V2.05h0.82l0.08,1h0.05c0.3-0.33,0.63-0.6,0.98-0.82c0.35-0.22,0.76-0.32,1.21-0.32
			c0.69,0,1.2,0.2,1.52,0.6c0.33,0.4,0.49,0.98,0.49,1.75v3.62h-0.98V4.39c0-0.55-0.1-0.96-0.31-1.23c-0.21-0.27-0.55-0.4-1.03-0.4
			c-0.34,0-0.65,0.09-0.92,0.26c-0.27,0.18-0.58,0.44-0.92,0.79v4.07H29.14z"/>
	</g>
	<rect x="29.14" class="st0" width="5.16" height="0.84"/>
</g>
<g>
	<g>
		<path d="M0-7.97v-0.6l4.39-6.44H0.38v-0.84h5.24v0.6l-4.4,6.43h4.46v0.85H0z"/>
		<path d="M9.37-7.83c-0.36,0-0.69-0.07-1-0.2c-0.3-0.13-0.54-0.32-0.72-0.57C7.48-8.84,7.39-9.14,7.39-9.48
			c0-0.66,0.33-1.15,0.98-1.49c0.66-0.34,1.74-0.57,3.24-0.69c-0.01-0.26-0.06-0.51-0.16-0.73c-0.1-0.22-0.26-0.4-0.49-0.53
			s-0.52-0.2-0.9-0.2c-0.25,0-0.49,0.03-0.74,0.1c-0.24,0.07-0.48,0.16-0.7,0.26s-0.42,0.22-0.61,0.33l-0.38-0.67
			c0.19-0.13,0.43-0.26,0.7-0.39c0.28-0.13,0.57-0.24,0.89-0.32s0.65-0.13,1-0.13c0.54,0,0.98,0.1,1.33,0.3s0.61,0.48,0.78,0.83
			c0.17,0.36,0.26,0.78,0.26,1.27v3.58h-0.8l-0.08-0.79h-0.04C11.36-8.51,11-8.29,10.6-8.1C10.2-7.92,9.79-7.83,9.37-7.83z
			 M9.64-8.62c0.34,0,0.67-0.08,1-0.23s0.66-0.36,0.98-0.64v-1.54c-0.83,0.07-1.49,0.17-1.96,0.3s-0.81,0.29-1.01,0.49
			c-0.2,0.2-0.29,0.42-0.29,0.68c0,0.22,0.06,0.39,0.18,0.53c0.12,0.14,0.28,0.24,0.47,0.31C9.2-8.65,9.41-8.62,9.64-8.62z"/>
		<path d="M17.34-7.83c-0.57,0-1.1-0.09-1.6-0.28c-0.5-0.18-0.92-0.4-1.27-0.64l0.46-0.65c0.34,0.24,0.71,0.43,1.12,0.58
			c0.41,0.14,0.88,0.22,1.42,0.22c0.5,0,0.87-0.09,1.11-0.28c0.24-0.18,0.37-0.4,0.37-0.64c0-0.11-0.02-0.22-0.07-0.31
			c-0.04-0.1-0.13-0.19-0.25-0.28s-0.31-0.17-0.55-0.25c-0.24-0.08-0.56-0.16-0.96-0.24c-0.76-0.16-1.33-0.38-1.71-0.65
			c-0.38-0.27-0.57-0.62-0.57-1.06c0-0.47,0.2-0.87,0.61-1.18c0.41-0.32,1.01-0.47,1.81-0.47c0.45,0,0.88,0.07,1.3,0.22
			c0.42,0.15,0.77,0.32,1.06,0.52l-0.48,0.64c-0.26-0.19-0.56-0.34-0.9-0.45c-0.34-0.11-0.69-0.16-1.06-0.16
			c-0.34,0-0.6,0.04-0.8,0.11s-0.34,0.18-0.42,0.31s-0.13,0.27-0.13,0.42c0,0.25,0.13,0.44,0.4,0.58c0.27,0.14,0.7,0.27,1.29,0.39
			c0.65,0.14,1.15,0.29,1.49,0.46s0.59,0.36,0.72,0.58c0.13,0.22,0.2,0.47,0.2,0.77c0,0.32-0.1,0.61-0.3,0.87
			c-0.2,0.26-0.49,0.47-0.88,0.63C18.37-7.91,17.9-7.83,17.34-7.83z"/>
		<path d="M23.77-7.83c-0.7,0-1.21-0.2-1.54-0.6c-0.33-0.4-0.49-0.98-0.49-1.75v-3.62h1v3.49c0,0.55,0.1,0.96,0.31,1.23
			c0.2,0.27,0.55,0.4,1.04,0.4c0.34,0,0.64-0.09,0.92-0.26c0.28-0.17,0.57-0.45,0.89-0.82v-4.04h0.98v5.83h-0.8l-0.08-1.02h-0.05
			c-0.3,0.34-0.62,0.61-0.97,0.83C24.62-7.94,24.22-7.83,23.77-7.83z"/>
		<path d="M29.14-7.97v-5.83h0.82l0.08,1h0.05c0.3-0.33,0.63-0.6,0.98-0.82c0.35-0.22,0.76-0.32,1.21-0.32c0.69,0,1.2,0.2,1.52,0.6
			c0.33,0.4,0.49,0.98,0.49,1.75v3.62h-0.98v-3.49c0-0.55-0.1-0.96-0.31-1.23c-0.21-0.27-0.55-0.4-1.03-0.4
			c-0.34,0-0.65,0.09-0.92,0.26c-0.27,0.18-0.58,0.44-0.92,0.79v4.07H29.14z"/>
	</g>
	<rect x="29.14" y="-15.85" width="5.16" height="0.84"/>
</g>
</svg>
