<?xml version="1.0" encoding="utf-8"?>
<!-- Generator: Adobe Illustrator 27.2.0, SVG Export Plug-In . SVG Version: 6.00 Build 0)  -->
<svg version="1.1" id="Warstwa_1" xmlns="http://www.w3.org/2000/svg" xmlns:xlink="http://www.w3.org/1999/xlink" x="0px" y="0px"
	 viewBox="0 0 34.12 8.06" style="enable-background:new 0 0 34.12 8.06;" xml:space="preserve">
<style type="text/css">
	.st0{fill:#FFFFFF;}
</style>
<rect x="428.44" y="202.29" width="5.88" height="1.47"/>
<g>
	<g>
		<path d="M385.95,60.6c-0.06,0-0.08-0.04-0.08-0.11v-0.05c0-0.05,0.01-0.1,0.04-0.14l2-5.24c0.09-0.22,0.18-0.43,0.27-0.65
			c0.09-0.22,0.18-0.43,0.26-0.63v-0.02c-0.15,0.01-0.31,0.01-0.47,0.02s-0.32,0.01-0.47,0.01h-1.32c-0.06,0-0.1-0.04-0.1-0.13
			v-0.78c0-0.08,0.03-0.12,0.1-0.12h3.62c0.06,0,0.1,0.04,0.1,0.11v0.04c0,0.02,0,0.05-0.01,0.08c0,0.03-0.01,0.05-0.02,0.08
			l-2.11,5.41c-0.07,0.19-0.15,0.38-0.23,0.57s-0.16,0.37-0.24,0.55v0.02c0.18-0.01,0.34-0.01,0.48-0.02s0.29-0.01,0.43-0.01h1.4
			c0.06,0,0.1,0.04,0.1,0.13v0.78c0,0.08-0.03,0.12-0.1,0.12H385.95z"/>
		<path d="M391.4,60.68c-0.33,0-0.58-0.14-0.77-0.41c-0.18-0.28-0.28-0.66-0.28-1.16c0-0.55,0.12-0.99,0.37-1.31
			c0.25-0.32,0.66-0.52,1.22-0.58l0.66-0.08l-0.01,0.73l-0.46,0.07c-0.25,0.02-0.43,0.12-0.55,0.3c-0.12,0.18-0.17,0.42-0.17,0.74
			c0,0.25,0.03,0.44,0.1,0.57c0.07,0.13,0.17,0.2,0.29,0.2c0.12,0,0.24-0.05,0.37-0.15c0.13-0.1,0.28-0.28,0.47-0.55l0.07,0.76
			c-0.25,0.32-0.47,0.55-0.67,0.68C391.87,60.61,391.64,60.68,391.4,60.68z M392.78,60.6c-0.06,0-0.09-0.04-0.11-0.12
			c-0.02-0.14-0.03-0.31-0.05-0.52s-0.02-0.39-0.02-0.55l-0.1-0.11v-3c0-0.28-0.03-0.47-0.1-0.58s-0.19-0.16-0.38-0.16
			c-0.19,0-0.32,0.06-0.4,0.17c-0.07,0.12-0.1,0.3-0.07,0.56c0.01,0.08-0.03,0.12-0.11,0.12h-0.77c-0.09,0-0.14-0.05-0.14-0.14
			c-0.04-0.52,0.07-0.92,0.33-1.21c0.26-0.28,0.66-0.43,1.19-0.43c0.54,0,0.94,0.13,1.18,0.38c0.24,0.25,0.36,0.68,0.36,1.28v2.82
			c0,0.34,0,0.61,0.01,0.83c0.01,0.22,0.02,0.39,0.02,0.52c0.02,0.09-0.01,0.13-0.07,0.13H392.78z"/>
		<path d="M395.94,60.68c-0.56,0-0.96-0.15-1.21-0.46c-0.24-0.31-0.34-0.76-0.29-1.35c0-0.08,0.04-0.12,0.11-0.12h0.83
			c0.06,0,0.1,0.04,0.1,0.11c-0.02,0.34,0.01,0.57,0.08,0.71c0.07,0.14,0.2,0.21,0.4,0.21c0.34,0,0.52-0.22,0.52-0.67
			c0-0.19-0.03-0.35-0.1-0.48s-0.18-0.26-0.34-0.38l-0.84-0.64c-0.24-0.18-0.42-0.4-0.55-0.64c-0.12-0.24-0.19-0.53-0.19-0.88
			c0-0.46,0.13-0.82,0.38-1.07c0.26-0.25,0.64-0.37,1.14-0.37c0.52,0,0.91,0.14,1.16,0.42c0.25,0.28,0.36,0.67,0.33,1.18
			c0,0.07-0.04,0.11-0.11,0.11h-0.82c-0.03,0-0.06-0.01-0.08-0.02s-0.03-0.05-0.02-0.11c0.02-0.22-0.01-0.38-0.08-0.5
			c-0.07-0.12-0.2-0.17-0.37-0.17c-0.3,0-0.46,0.17-0.46,0.52c0,0.18,0.03,0.34,0.1,0.46s0.18,0.24,0.33,0.36l0.8,0.62
			c0.28,0.22,0.48,0.44,0.59,0.67c0.12,0.23,0.17,0.52,0.17,0.88c0,0.53-0.13,0.93-0.4,1.21C396.88,60.54,396.48,60.68,395.94,60.68
			z"/>
		<path d="M399.39,60.68c-0.38,0-0.65-0.12-0.81-0.36c-0.16-0.24-0.23-0.62-0.23-1.14v-4.32c0-0.09,0.04-0.13,0.11-0.13h0.88
			c0.07,0,0.11,0.04,0.11,0.13v4.2c0,0.25,0.03,0.41,0.08,0.5c0.06,0.08,0.15,0.13,0.29,0.13c0.16,0,0.32-0.06,0.47-0.19
			c0.16-0.12,0.3-0.29,0.44-0.51l0.14,0.7c-0.2,0.29-0.43,0.53-0.68,0.71S399.66,60.68,399.39,60.68z M400.86,60.6
			c-0.06,0-0.09-0.04-0.11-0.12c-0.02-0.15-0.03-0.34-0.05-0.55c-0.02-0.22-0.02-0.39-0.02-0.52l-0.1-0.18v-4.38
			c0-0.09,0.04-0.13,0.11-0.13h0.88c0.07,0,0.11,0.04,0.11,0.13v4.27c0,0.31,0,0.58,0.01,0.8c0,0.22,0.01,0.4,0.03,0.53
			c0.01,0.1-0.02,0.14-0.1,0.14H400.86z"/>
		<path d="M402.75,60.6c-0.07,0-0.11-0.04-0.11-0.12V56.2c0-0.31,0-0.58-0.01-0.8c0-0.22-0.01-0.4-0.03-0.53
			c-0.01-0.1,0.02-0.14,0.08-0.14h0.76c0.07,0,0.11,0.04,0.12,0.12c0.02,0.14,0.04,0.33,0.05,0.55s0.02,0.39,0.02,0.52l0.1,0.18
			v4.39c0,0.08-0.04,0.12-0.11,0.12H402.75z M405.06,60.6c-0.07,0-0.11-0.04-0.11-0.12v-4.2c0-0.22-0.03-0.39-0.1-0.49
			c-0.07-0.1-0.17-0.15-0.32-0.15c-0.14,0-0.28,0.05-0.42,0.16s-0.3,0.25-0.46,0.44l-0.13-0.67c0.22-0.28,0.45-0.5,0.69-0.67
			c0.24-0.17,0.51-0.25,0.8-0.25c0.34,0,0.6,0.12,0.77,0.37s0.26,0.62,0.26,1.13v4.33c0,0.08-0.04,0.12-0.11,0.12H405.06z
			 M403.77,53.92c-0.04,0-0.07-0.01-0.08-0.04c-0.01-0.02-0.01-0.06,0.01-0.1l0.78-1.46c0.02-0.06,0.07-0.1,0.14-0.1h0.79
			c0.04,0,0.07,0.01,0.08,0.04c0.02,0.03,0.01,0.06-0.02,0.1l-0.9,1.46c-0.04,0.06-0.1,0.08-0.18,0.08H403.77z"/>
	</g>
</g>
<g>
	<g>
		<path d="M409.89,60.6c-0.05,0-0.07-0.03-0.07-0.08v-0.04c0-0.04,0.01-0.08,0.04-0.13l2.14-5.6c0.08-0.21,0.16-0.41,0.24-0.62
			c0.08-0.2,0.16-0.41,0.24-0.62v-0.02c-0.15,0.01-0.3,0.01-0.45,0.01s-0.3,0-0.45,0h-1.44c-0.06,0-0.08-0.04-0.08-0.11v-0.54
			c0-0.07,0.03-0.11,0.08-0.11h3.32c0.06,0,0.08,0.03,0.08,0.08v0.02c0,0.02,0,0.05-0.01,0.07c0,0.02-0.01,0.05-0.02,0.07
			l-2.24,5.81c-0.06,0.18-0.13,0.35-0.2,0.52s-0.14,0.34-0.21,0.52v0.02c0.18-0.01,0.34-0.01,0.47-0.01s0.27,0,0.42,0h1.51
			c0.06,0,0.08,0.04,0.08,0.11v0.54c0,0.07-0.03,0.11-0.08,0.11H409.89z"/>
		<path d="M413.73,60.6c-0.06,0-0.08-0.04-0.07-0.12l1.56-7.66c0.01-0.06,0.04-0.08,0.11-0.08h0.84c0.06,0,0.1,0.03,0.11,0.08
			l1.57,7.66c0.01,0.08-0.02,0.12-0.07,0.12h-0.66c-0.05,0-0.08-0.02-0.1-0.07l-0.97-5.2c-0.06-0.28-0.11-0.56-0.16-0.83
			c-0.05-0.28-0.1-0.55-0.14-0.83h-0.02c-0.04,0.28-0.08,0.56-0.13,0.83s-0.09,0.56-0.15,0.85l-0.97,5.18
			c-0.01,0.05-0.04,0.07-0.08,0.07H413.73z M414.69,58.67l0.14-0.76h1.8l0.17,0.76H414.69z"/>
		<path d="M419.83,60.68c-0.43,0-0.78-0.1-1.03-0.29c-0.26-0.19-0.43-0.45-0.53-0.79c-0.1-0.33-0.13-0.71-0.1-1.13
			c0.01-0.08,0.04-0.12,0.08-0.12h0.6c0.06,0,0.09,0.04,0.08,0.12c-0.06,0.49,0,0.85,0.16,1.09c0.16,0.24,0.42,0.36,0.76,0.36
			c0.31,0,0.55-0.09,0.7-0.28c0.16-0.19,0.23-0.48,0.23-0.88c0-0.35-0.05-0.64-0.14-0.87c-0.1-0.23-0.26-0.43-0.5-0.61l-0.97-0.77
			c-0.33-0.26-0.57-0.55-0.73-0.87c-0.16-0.32-0.23-0.71-0.23-1.17c0.01-0.57,0.15-1.01,0.44-1.33c0.28-0.32,0.68-0.47,1.18-0.47
			c0.59,0,1.03,0.19,1.3,0.58c0.28,0.38,0.38,0.91,0.32,1.57c0,0.09-0.03,0.13-0.08,0.13h-0.61c-0.06,0-0.08-0.04-0.07-0.13
			c0.05-0.45,0-0.79-0.16-1.03c-0.15-0.24-0.38-0.36-0.68-0.36c-0.26,0-0.46,0.08-0.61,0.25s-0.23,0.42-0.24,0.77
			c0,0.32,0.06,0.59,0.17,0.82c0.11,0.22,0.28,0.43,0.52,0.61l0.94,0.73c0.23,0.18,0.42,0.36,0.56,0.56
			c0.14,0.2,0.24,0.42,0.31,0.67c0.06,0.25,0.1,0.55,0.1,0.88c0,0.61-0.14,1.09-0.43,1.43C420.87,60.5,420.43,60.68,419.83,60.68z"
			/>
		<path d="M424.32,60.68c-0.63,0-1.09-0.2-1.39-0.61c-0.29-0.41-0.44-1.02-0.44-1.85v-5.38c0-0.06,0.03-0.1,0.08-0.1h0.61
			c0.06,0,0.08,0.03,0.08,0.1v5.36c0,0.59,0.08,1.03,0.25,1.3c0.16,0.28,0.43,0.41,0.8,0.41c0.38,0,0.65-0.14,0.81-0.41
			s0.25-0.71,0.25-1.31v-5.36c0-0.06,0.03-0.1,0.08-0.1h0.61c0.06,0,0.08,0.03,0.08,0.1v5.38c0,0.82-0.15,1.44-0.46,1.85
			C425.39,60.47,424.93,60.68,424.32,60.68z"/>
		<path d="M427.42,60.6c-0.05,0-0.07-0.04-0.07-0.11v-7.64c0-0.07,0.03-0.11,0.08-0.11h0.98c0.06,0,0.09,0.02,0.1,0.07l1.3,4.61
			c0.06,0.21,0.13,0.44,0.19,0.7c0.06,0.26,0.13,0.52,0.19,0.78c0.06,0.26,0.11,0.49,0.15,0.7h0.02c-0.01-0.16-0.02-0.34-0.02-0.53
			c-0.01-0.19-0.01-0.39-0.02-0.59c0-0.2-0.01-0.4-0.01-0.59c0-0.19-0.01-0.37-0.01-0.53v-4.54c0-0.06,0.03-0.1,0.08-0.1h0.59
			c0.06,0,0.08,0.03,0.08,0.1v7.66c0,0.07-0.03,0.11-0.08,0.11h-0.98c-0.04,0-0.07-0.02-0.08-0.06l-1.26-4.46
			c-0.12-0.42-0.22-0.83-0.31-1.23s-0.17-0.77-0.24-1.11h-0.02c0.01,0.23,0.01,0.49,0.02,0.77c0,0.28,0.01,0.57,0.01,0.85
			c0,0.28,0.01,0.54,0.01,0.77v4.36c0,0.07-0.02,0.11-0.07,0.11H427.42z M428.7,52.04c-0.03,0-0.05-0.01-0.06-0.03
			c-0.01-0.02,0-0.05,0.01-0.08l0.62-1.22c0.04-0.06,0.08-0.08,0.13-0.08h0.62c0.04,0,0.06,0.01,0.07,0.04
			c0.01,0.03,0,0.06-0.02,0.1l-0.73,1.2c-0.02,0.05-0.06,0.07-0.14,0.07H428.7z"/>
	</g>
</g>
<g>
	<g>
		<path d="M435.93,60.74c-0.06,0-0.08-0.03-0.08-0.08v-0.02c0-0.07,0.01-0.12,0.04-0.16l1.61-3.79c0.07-0.18,0.14-0.35,0.21-0.51
			s0.13-0.33,0.2-0.51v-0.01c-0.13,0-0.25,0-0.37,0s-0.25,0-0.38,0h-1.03c-0.06,0-0.08-0.03-0.08-0.1v-0.54
			c0-0.07,0.03-0.11,0.08-0.11h2.74c0.06,0,0.08,0.02,0.08,0.07V55c0,0.06-0.01,0.11-0.04,0.16l-1.61,3.8
			c-0.07,0.17-0.14,0.34-0.22,0.5c-0.07,0.17-0.14,0.34-0.2,0.5v0.01c0.14,0,0.26,0,0.37,0s0.23,0,0.35,0h1.15
			c0.06,0,0.08,0.04,0.08,0.11v0.54c0,0.07-0.03,0.11-0.08,0.11H435.93z"/>
		<path d="M440.52,60.81c-0.31,0-0.55-0.14-0.73-0.41c-0.17-0.27-0.26-0.65-0.26-1.14c0-0.54,0.12-0.98,0.36-1.31
			c0.24-0.33,0.63-0.53,1.18-0.58l0.62-0.07v0.64L441.16,58c-0.28,0.03-0.49,0.15-0.63,0.35c-0.14,0.2-0.21,0.48-0.21,0.85
			c0,0.26,0.04,0.47,0.12,0.62c0.08,0.15,0.19,0.23,0.32,0.23c0.14,0,0.27-0.05,0.41-0.16c0.14-0.11,0.32-0.31,0.55-0.61l0.04,0.7
			c-0.24,0.3-0.45,0.51-0.62,0.64C440.96,60.74,440.76,60.81,440.52,60.81z M441.81,60.74c-0.05,0-0.08-0.04-0.08-0.11
			c-0.02-0.14-0.03-0.33-0.05-0.55c-0.02-0.22-0.02-0.41-0.02-0.56l-0.05-0.06v-3.02c0-0.33-0.04-0.55-0.11-0.68
			c-0.08-0.12-0.23-0.19-0.46-0.19c-0.22,0-0.38,0.06-0.47,0.19c-0.09,0.12-0.12,0.33-0.1,0.61c0,0.07-0.03,0.11-0.1,0.11h-0.53
			c-0.08,0-0.12-0.05-0.13-0.14c-0.04-0.47,0.05-0.84,0.28-1.1c0.23-0.26,0.58-0.4,1.05-0.4c0.49,0,0.83,0.12,1.04,0.35
			c0.2,0.23,0.31,0.64,0.31,1.24v2.88c0,0.32,0,0.59,0.01,0.82c0.01,0.22,0.02,0.39,0.02,0.5c0.01,0.08-0.01,0.12-0.06,0.12H441.81z
			"/>
		<path d="M444.7,60.81c-0.49,0-0.84-0.15-1.07-0.46c-0.22-0.3-0.32-0.75-0.28-1.33c0-0.06,0.03-0.1,0.08-0.1h0.61
			c0.05,0,0.07,0.03,0.07,0.08c-0.01,0.38,0.03,0.66,0.11,0.82c0.08,0.16,0.25,0.24,0.49,0.24c0.41,0,0.61-0.26,0.61-0.79
			c0-0.21-0.03-0.38-0.1-0.52s-0.18-0.27-0.34-0.4l-0.79-0.62c-0.25-0.19-0.43-0.41-0.54-0.65c-0.11-0.24-0.17-0.54-0.17-0.88
			c0-0.43,0.11-0.77,0.34-1s0.56-0.35,0.99-0.35c0.45,0,0.79,0.14,1.01,0.41c0.23,0.27,0.32,0.64,0.27,1.12
			c0,0.06-0.03,0.1-0.08,0.1h-0.6c-0.02,0-0.03,0-0.05-0.01s-0.03-0.04-0.02-0.11c0.02-0.24-0.02-0.43-0.11-0.56
			c-0.09-0.14-0.24-0.2-0.44-0.2c-0.37,0-0.55,0.21-0.55,0.62c0,0.2,0.04,0.37,0.11,0.5c0.08,0.14,0.19,0.27,0.34,0.41l0.78,0.62
			c0.27,0.22,0.46,0.44,0.56,0.66s0.15,0.5,0.15,0.85c0,0.51-0.12,0.9-0.35,1.17C445.5,60.67,445.16,60.81,444.7,60.81z"/>
		<path d="M448,60.81c-0.37,0-0.63-0.12-0.77-0.35c-0.15-0.24-0.22-0.61-0.22-1.11v-4.33c0-0.07,0.03-0.11,0.08-0.11h0.61
			c0.06,0,0.08,0.04,0.08,0.11v4.32c0,0.29,0.03,0.48,0.1,0.58c0.07,0.1,0.18,0.14,0.33,0.14c0.21,0,0.41-0.08,0.59-0.24
			s0.37-0.38,0.55-0.65l0.07,0.67c-0.21,0.28-0.43,0.51-0.67,0.7C448.51,60.72,448.26,60.81,448,60.81z M449.4,60.74
			c-0.05,0-0.08-0.04-0.1-0.11c-0.02-0.17-0.03-0.37-0.04-0.59s-0.02-0.4-0.02-0.51l-0.06-0.07v-4.44c0-0.07,0.03-0.11,0.1-0.11h0.6
			c0.06,0,0.08,0.04,0.08,0.11v4.28c0,0.34,0,0.61,0.01,0.82c0.01,0.21,0.02,0.37,0.02,0.49c0.01,0.09-0.02,0.13-0.07,0.13H449.4z"
			/>
		<path d="M451.16,60.74c-0.06,0-0.08-0.04-0.08-0.11v-4.28c0-0.34,0-0.61-0.01-0.82s-0.01-0.37-0.03-0.49
			c-0.01-0.09,0.02-0.13,0.07-0.13h0.52c0.06,0,0.1,0.04,0.11,0.11c0.02,0.15,0.04,0.34,0.05,0.58c0.01,0.23,0.02,0.41,0.02,0.53
			l0.05,0.07v4.44c0,0.07-0.03,0.11-0.08,0.11H451.16z M453.43,60.74c-0.06,0-0.08-0.04-0.08-0.11v-4.28c0-0.26-0.04-0.46-0.12-0.58
			s-0.21-0.19-0.38-0.19c-0.16,0-0.33,0.07-0.51,0.2c-0.18,0.13-0.37,0.33-0.57,0.58l-0.06-0.65c0.23-0.29,0.46-0.51,0.69-0.65
			c0.23-0.15,0.47-0.22,0.74-0.22c0.33,0,0.58,0.12,0.74,0.36c0.17,0.24,0.25,0.61,0.25,1.1v4.33c0,0.07-0.03,0.11-0.08,0.11H453.43
			z M452.15,54.05c-0.03,0-0.05-0.01-0.06-0.03c-0.01-0.02,0-0.05,0.01-0.08l0.76-1.44c0.02-0.06,0.06-0.08,0.12-0.08h0.6
			c0.04,0,0.07,0.01,0.08,0.04c0.01,0.02,0.01,0.06-0.02,0.1l-0.85,1.43c-0.03,0.05-0.08,0.07-0.16,0.07H452.15z"/>
		<path d="M458.21,60.81c-0.54,0-0.93-0.16-1.19-0.47s-0.38-0.8-0.38-1.46v-2.1c0-0.66,0.13-1.15,0.38-1.47
			c0.26-0.32,0.65-0.47,1.19-0.47s0.93,0.16,1.19,0.47c0.26,0.32,0.38,0.81,0.38,1.47v2.1c0,0.66-0.13,1.14-0.38,1.46
			C459.14,60.65,458.75,60.81,458.21,60.81z M458.21,60.05c0.28,0,0.48-0.09,0.61-0.28s0.19-0.49,0.19-0.91V56.8
			c0-0.43-0.06-0.74-0.19-0.94s-0.33-0.29-0.61-0.29c-0.28,0-0.48,0.1-0.61,0.29s-0.19,0.5-0.19,0.94v2.06
			c0,0.42,0.06,0.73,0.19,0.91C457.74,59.96,457.94,60.05,458.21,60.05z"/>
	</g>
</g>
<text transform="matrix(1 0 0 1 385.7556 89.0855)" style="font-family:'PTSans-Narrow'; font-size:12px;">Zasuń</text>
<text transform="matrix(1 0 0 1 420.0566 89.0855)" style="font-family:'PTSans-Narrow'; font-size:12px;">ZASUŃ</text>
<text transform="matrix(1 0 0 1 461.163 89.2173)" style="font-family:'PTSans-Narrow'; font-size:12px;">zasuń o</text>
<g>
	<g>
		<path d="M386.43,108.85l3.65-5.27h-3.31v-1.48h5.5v1.07l-3.65,5.27h3.7v1.48h-5.88V108.85z"/>
		<path d="M393.69,108.27c0-1.33,1.1-2.01,3.91-2.18c-0.06-0.53-0.46-0.86-1.26-0.86c-0.57,0-1.14,0.22-1.81,0.56l-0.63-1.16
			c0.82-0.47,1.77-0.8,2.78-0.8c1.67,0,2.69,0.87,2.69,2.69v3.4h-1.44l-0.13-0.67h-0.04c-0.6,0.45-1.35,0.81-2.11,0.81
			C394.44,110.07,393.69,109.27,393.69,108.27z M397.6,108.13v-0.97c-1.75,0.09-2.22,0.47-2.22,0.98c0,0.38,0.32,0.57,0.82,0.57
			C396.73,108.7,397.18,108.46,397.6,108.13z"/>
		<path d="M400.79,109.16l0.75-1.1c0.73,0.45,1.55,0.71,2.4,0.71c0.65,0,0.94-0.22,0.94-0.51c0-0.33-0.29-0.45-1.46-0.7
			c-1.62-0.35-2.26-0.94-2.26-1.86c0-1.11,1.04-1.86,2.73-1.86c1.06,0,1.96,0.42,2.58,0.81l-0.79,1.06
			c-0.6-0.36-1.29-0.57-1.95-0.57c-0.55,0-0.82,0.2-0.82,0.48c0,0.33,0.37,0.41,1.37,0.63c1.84,0.41,2.35,0.93,2.35,1.9
			c0,1.08-1.03,1.92-2.94,1.92C402.64,110.07,401.54,109.66,400.79,109.16z"/>
		<path d="M408.1,107.65v-3.67h1.77v3.45c0,0.79,0.21,1.14,0.87,1.14c0.44,0,0.75-0.16,1.15-0.68v-3.91h1.77v5.95h-1.44l-0.13-0.85
			h-0.05c-0.53,0.61-1.15,1-2.01,1C408.67,110.07,408.1,109.15,408.1,107.65z"/>
		<path d="M415.42,103.97h1.44l0.13,0.79h0.05c0.52-0.51,1.17-0.94,2.06-0.94c1.34,0,1.94,0.92,1.94,2.42v3.67h-1.77v-3.45
			c0-0.79-0.23-1.14-0.87-1.14c-0.47,0-0.79,0.22-1.2,0.62v3.97h-1.77V103.97z M417.39,102.33l1.84-2.19l1.2,1.17l-2.17,1.88
			L417.39,102.33z"/>
	</g>
</g>
<path d="M571.45,293.85l7.24-10.68h-6.62v-0.7h7.63v0.5l-7.26,10.67h7.38v0.71h-8.36V293.85z"/>
<path d="M582.63,292.2c0-1.94,1.94-2.85,6.63-3.26c-0.02-1.42-0.59-2.75-2.57-2.75c-1.3,0-2.57,0.67-3.27,1.18l-0.37-0.59
	c0.69-0.5,2.19-1.29,3.74-1.29c2.32,0,3.28,1.49,3.28,3.34v5.52h-0.68l-0.09-1.29h-0.04c-0.99,0.8-2.33,1.51-3.61,1.51
	C584.1,294.57,582.63,293.82,582.63,292.2z M589.26,292.31v-2.77c-4.4,0.39-5.81,1.22-5.81,2.61c0,1.24,1.16,1.71,2.33,1.71
	C586.89,293.87,588.05,293.34,589.26,292.31z"/>
<path d="M593.26,293.2l0.42-0.58c0.96,0.75,2.1,1.27,3.92,1.27c1.76,0,2.67-0.8,2.67-1.7c0-0.78-0.3-1.41-3.05-1.96
	c-2.2-0.44-3.45-1.15-3.45-2.43c0-1.25,1.06-2.3,3.38-2.3c1.16,0,2.49,0.46,3.32,1.06l-0.43,0.57c-0.77-0.57-1.77-0.96-2.95-0.96
	c-1.88,0-2.49,0.76-2.49,1.58c0,0.91,0.89,1.37,2.84,1.77c2.99,0.63,3.65,1.32,3.65,2.61c0,1.3-1.29,2.44-3.57,2.44
	C595.75,294.57,594.28,293.92,593.26,293.2z"/>
<path d="M604.14,291.09v-5.38h0.8v5.28c0,1.93,0.72,2.86,2.44,2.86c1.22,0,2.13-0.61,3.31-1.96v-6.19h0.8v8.65h-0.68l-0.09-1.67
	h-0.07c-0.93,1.09-2.01,1.89-3.4,1.89C605.15,294.57,604.14,293.44,604.14,291.09z"/>
<path d="M615.28,285.71h0.67l0.09,1.66h0.07c1-1.07,2.02-1.88,3.41-1.88c2.1,0,3.1,1.13,3.1,3.48v5.39h-0.8v-5.28
	c0-1.93-0.72-2.86-2.43-2.86c-1.23,0-2.07,0.64-3.32,1.95v6.2h-0.8V285.71z"/>
<g>
	<g>
		<path d="M386.43,238.41l3.65-5.27h-3.31v-1.48h5.5v1.07l-3.65,5.27h3.7v1.48h-5.88V238.41z"/>
		<path d="M393.69,237.83c0-1.33,1.1-2.01,3.91-2.18c-0.06-0.53-0.46-0.86-1.26-0.86c-0.57,0-1.14,0.22-1.81,0.56l-0.63-1.16
			c0.82-0.47,1.77-0.8,2.78-0.8c1.67,0,2.69,0.87,2.69,2.69v3.4h-1.44l-0.13-0.67h-0.04c-0.6,0.45-1.35,0.81-2.11,0.81
			C394.44,239.62,393.69,238.83,393.69,237.83z M397.6,237.69v-0.97c-1.75,0.09-2.22,0.47-2.22,0.98c0,0.38,0.32,0.57,0.82,0.57
			C396.73,238.26,397.18,238.01,397.6,237.69z"/>
		<path d="M400.79,238.71l0.75-1.1c0.73,0.45,1.55,0.71,2.4,0.71c0.65,0,0.94-0.22,0.94-0.51c0-0.33-0.29-0.45-1.46-0.7
			c-1.62-0.35-2.26-0.94-2.26-1.86c0-1.11,1.04-1.86,2.73-1.86c1.06,0,1.96,0.42,2.58,0.81l-0.79,1.06
			c-0.6-0.36-1.29-0.57-1.95-0.57c-0.55,0-0.82,0.2-0.82,0.48c0,0.33,0.37,0.41,1.37,0.63c1.84,0.41,2.35,0.93,2.35,1.9
			c0,1.08-1.03,1.92-2.94,1.92C402.64,239.62,401.54,239.21,400.79,238.71z"/>
		<path d="M408.1,237.2v-3.67h1.77v3.45c0,0.79,0.21,1.14,0.87,1.14c0.44,0,0.75-0.16,1.15-0.68v-3.91h1.77v5.95h-1.44l-0.13-0.85
			h-0.05c-0.53,0.61-1.15,1-2.01,1C408.67,239.62,408.1,238.7,408.1,237.2z"/>
		<path d="M415.42,233.53h1.44l0.13,0.79h0.05c0.52-0.51,1.17-0.94,2.06-0.94c1.34,0,1.94,0.92,1.94,2.42v3.67h-1.77v-3.45
			c0-0.79-0.23-1.14-0.87-1.14c-0.47,0-0.79,0.22-1.2,0.62v3.97h-1.77V233.53z M417.39,231.89l1.84-2.19l1.2,1.17l-2.17,1.88
			L417.39,231.89z"/>
	</g>
</g>
<g>
	<g>
		<path d="M502.48,192.45l3.65-5.27h-3.31v-1.48h5.5v1.07l-3.65,5.27h3.7v1.48h-5.88V192.45z"/>
		<path d="M509.74,191.88c0-1.33,1.1-2.01,3.91-2.18c-0.06-0.53-0.46-0.86-1.26-0.86c-0.57,0-1.14,0.22-1.81,0.56l-0.63-1.16
			c0.82-0.47,1.77-0.8,2.78-0.8c1.67,0,2.69,0.87,2.69,2.69v3.4h-1.44l-0.13-0.67h-0.04c-0.6,0.45-1.35,0.81-2.11,0.81
			C510.49,193.67,509.74,192.88,509.74,191.88z M513.65,191.73v-0.97c-1.75,0.09-2.22,0.47-2.22,0.98c0,0.38,0.32,0.57,0.82,0.57
			C512.78,192.3,513.23,192.06,513.65,191.73z"/>
		<path d="M516.84,192.76l0.75-1.1c0.73,0.45,1.55,0.71,2.4,0.71c0.65,0,0.94-0.22,0.94-0.51c0-0.33-0.29-0.45-1.46-0.7
			c-1.62-0.35-2.26-0.94-2.26-1.86c0-1.11,1.04-1.86,2.73-1.86c1.06,0,1.96,0.42,2.58,0.81l-0.79,1.06
			c-0.6-0.36-1.29-0.57-1.95-0.57c-0.55,0-0.82,0.2-0.82,0.48c0,0.33,0.37,0.41,1.37,0.63c1.84,0.41,2.35,0.93,2.35,1.9
			c0,1.08-1.03,1.92-2.94,1.92C518.69,193.67,517.59,193.26,516.84,192.76z"/>
		<path d="M524.15,191.25v-3.67h1.77v3.45c0,0.79,0.21,1.14,0.87,1.14c0.44,0,0.75-0.16,1.15-0.68v-3.91h1.77v5.95h-1.44l-0.13-0.85
			h-0.05c-0.53,0.61-1.15,1-2.01,1C524.72,193.67,524.15,192.75,524.15,191.25z"/>
		<path d="M531.47,187.57h1.44l0.13,0.79h0.05c0.52-0.51,1.17-0.94,2.06-0.94c1.34,0,1.94,0.92,1.94,2.42v3.67h-1.77v-3.45
			c0-0.79-0.23-1.14-0.87-1.14c-0.47,0-0.79,0.22-1.2,0.62v3.97h-1.77V187.57z M533.44,185.94l1.84-2.19l1.2,1.17l-2.17,1.88
			L533.44,185.94z"/>
	</g>
</g>
<g>
	<path d="M502.89,327.6v-1.27h8.73v1.27l-7.38,10.08h7.57v1.26h-9.18v-1.26L510,327.6H502.89z"/>
	<path d="M518.81,333.45c0-0.64-0.2-1.16-0.61-1.56s-0.92-0.6-1.56-0.6c-0.46,0-0.89,0.1-1.29,0.31s-0.69,0.42-0.87,0.64l-0.27,0.31
		l-0.81-0.81c0.04-0.05,0.08-0.11,0.15-0.18s0.2-0.2,0.4-0.39s0.43-0.35,0.65-0.5s0.53-0.28,0.9-0.39s0.75-0.17,1.14-0.17
		c0.98,0,1.8,0.32,2.45,0.96s0.97,1.43,0.97,2.37v5.49h-1.26v-1.17c-0.02,0.04-0.06,0.08-0.11,0.14s-0.16,0.17-0.33,0.33
		s-0.36,0.29-0.56,0.41s-0.46,0.23-0.79,0.32s-0.66,0.14-1.01,0.14c-0.86,0-1.59-0.25-2.18-0.76s-0.88-1.09-0.88-1.75
		c0-0.72,0.22-1.3,0.65-1.75s1.06-0.73,1.87-0.87L518.81,333.45z M518.03,337.15c0.52-0.53,0.79-1.22,0.79-2.07v-0.54l-2.97,0.54
		c-1.08,0.21-1.62,0.71-1.63,1.53c0,0.39,0.16,0.71,0.48,0.96s0.76,0.38,1.32,0.38C516.83,337.95,517.5,337.68,518.03,337.15z"/>
	<path d="M527.26,332.19c-0.05-0.07-0.12-0.15-0.21-0.25s-0.3-0.23-0.63-0.4s-0.68-0.25-1.05-0.25c-0.48,0-0.87,0.13-1.17,0.38
		s-0.45,0.54-0.45,0.88c0,0.35,0.16,0.62,0.48,0.83s0.71,0.38,1.17,0.5s0.91,0.27,1.37,0.43s0.85,0.42,1.17,0.79s0.48,0.83,0.48,1.4
		c0,0.74-0.28,1.36-0.85,1.86s-1.33,0.74-2.29,0.74c-0.41,0-0.8-0.05-1.16-0.16s-0.66-0.23-0.89-0.38s-0.44-0.29-0.61-0.44
		s-0.3-0.28-0.38-0.38l-0.11-0.17l0.91-0.9c0.02,0.04,0.06,0.08,0.1,0.14s0.13,0.16,0.28,0.3s0.3,0.27,0.46,0.39s0.38,0.22,0.63,0.3
		s0.52,0.13,0.78,0.13c0.61,0,1.08-0.13,1.4-0.4s0.49-0.61,0.49-1.03c0-0.36-0.16-0.65-0.49-0.88s-0.71-0.4-1.17-0.54
		s-0.91-0.28-1.37-0.44s-0.85-0.42-1.17-0.76s-0.49-0.8-0.49-1.35c0-0.65,0.27-1.22,0.82-1.71s1.23-0.73,2.06-0.73
		c0.33,0,0.66,0.04,0.98,0.12s0.58,0.18,0.79,0.29s0.39,0.23,0.55,0.35s0.28,0.22,0.35,0.29l0.13,0.13L527.26,332.19z"/>
	<path d="M536.97,337.77c-0.02,0.04-0.06,0.08-0.11,0.14s-0.16,0.17-0.33,0.33s-0.36,0.29-0.56,0.41s-0.46,0.23-0.79,0.32
		s-0.66,0.14-1.01,0.14c-1.01,0-1.84-0.35-2.51-1.05s-1-1.61-1-2.73v-5.04h1.26v5.04c0,0.76,0.23,1.38,0.7,1.87s1.04,0.74,1.72,0.74
		c0.73,0,1.35-0.27,1.85-0.81s0.76-1.23,0.76-2.07v-4.77h1.27v8.64h-1.27V337.77z"/>
	<path d="M542.46,331.56c0.02-0.04,0.06-0.08,0.11-0.15s0.16-0.18,0.33-0.35s0.36-0.32,0.56-0.44s0.46-0.24,0.78-0.34
		s0.66-0.15,1.01-0.15c1.04,0,1.89,0.34,2.54,1.01s0.98,1.57,0.98,2.68v5.13h-1.27v-5.13c0-0.76-0.22-1.36-0.66-1.82
		s-1-0.69-1.68-0.69c-0.77,0-1.41,0.27-1.92,0.81s-0.77,1.23-0.77,2.07v4.77h-1.26v-8.64h1.26V331.56z M545.97,326.34h1.35
		l-1.71,2.43h-0.98L545.97,326.34z"/>
</g>
<g>
	<path d="M563.73,327.6v-1.27h8.73v1.27l-7.38,10.08h7.57v1.26h-9.18v-1.26l7.38-10.08H563.73z"/>
	<path d="M576.78,335.43l-1.44,3.51h-1.44l5.22-12.6h1.26l5.22,12.6h-1.43l-1.44-3.51H576.78z M579.75,328.23l-2.43,5.94h4.86
		L579.75,328.23z"/>
	<path d="M593.58,334.41c-0.25-0.3-0.58-0.54-0.98-0.71s-0.84-0.32-1.33-0.46s-0.97-0.29-1.46-0.46s-0.93-0.37-1.33-0.61
		s-0.73-0.58-0.98-1.02s-0.38-0.96-0.38-1.57c0-0.95,0.37-1.76,1.12-2.42s1.72-1,2.94-1c0.46,0,0.89,0.06,1.3,0.17
		s0.76,0.25,1.03,0.4s0.52,0.31,0.74,0.47s0.37,0.29,0.47,0.4l0.15,0.18l-0.91,0.91c-0.02-0.04-0.06-0.08-0.11-0.14
		s-0.16-0.16-0.33-0.3s-0.36-0.27-0.56-0.39s-0.46-0.22-0.78-0.31s-0.66-0.14-1.01-0.14c-0.83,0-1.48,0.21-1.97,0.63
		s-0.73,0.93-0.73,1.53c0,0.43,0.13,0.8,0.38,1.11s0.58,0.54,0.98,0.71s0.85,0.32,1.34,0.46s0.97,0.29,1.45,0.46
		s0.93,0.37,1.33,0.61s0.73,0.58,0.98,1.01s0.38,0.96,0.38,1.58c0,1.07-0.38,1.93-1.12,2.6s-1.79,1-3.11,1
		c-0.54,0-1.05-0.07-1.54-0.2s-0.88-0.29-1.2-0.47s-0.59-0.36-0.83-0.55s-0.41-0.35-0.5-0.47l-0.17-0.2l0.83-0.91
		c0.02,0.04,0.07,0.09,0.13,0.16s0.2,0.2,0.4,0.38s0.43,0.33,0.66,0.47s0.56,0.25,0.96,0.37s0.82,0.17,1.25,0.17
		c0.93,0,1.64-0.22,2.14-0.65s0.75-0.99,0.75-1.69C593.96,335.09,593.83,334.72,593.58,334.41z"/>
	<path d="M605.72,336.73c0.74-0.75,1.11-1.66,1.11-2.74v-7.66h1.35v7.66c0,1.39-0.51,2.6-1.52,3.61s-2.22,1.52-3.61,1.52
		s-2.59-0.51-3.61-1.52s-1.52-2.21-1.52-3.6v-7.66h1.34v7.66c0,1.08,0.37,1.99,1.11,2.74s1.63,1.12,2.67,1.12
		S604.98,337.48,605.72,336.73z"/>
	<path d="M622.03,326.34v12.6h-1.17l-7.73-10.17v10.17h-1.35v-12.6h1.17l7.74,10.18v-10.18H622.03z M617.8,322.2h1.35l-1.71,2.43
		h-0.98L617.8,322.2z"/>
</g>
<g>
	<g>
		<path d="M502.65,174.48l4.82-7.12h-4.41v-0.47h5.08v0.33l-4.83,7.11h4.91v0.48h-5.57V174.48z"/>
		<path d="M510.1,173.38c0-1.29,1.29-1.9,4.42-2.17c-0.01-0.95-0.39-1.83-1.71-1.83c-0.87,0-1.71,0.45-2.18,0.78l-0.25-0.39
			c0.46-0.33,1.46-0.86,2.49-0.86c1.54,0,2.18,0.99,2.18,2.22v3.68h-0.45l-0.06-0.86h-0.03c-0.66,0.53-1.55,1.01-2.4,1.01
			C511.08,174.95,510.1,174.46,510.1,173.38z M514.52,173.45v-1.84c-2.93,0.26-3.87,0.81-3.87,1.74c0,0.83,0.77,1.14,1.55,1.14
			C512.94,174.49,513.71,174.13,514.52,173.45z"/>
		<path d="M517.19,174.04l0.28-0.39c0.64,0.5,1.4,0.84,2.61,0.84c1.18,0,1.78-0.53,1.78-1.14c0-0.52-0.2-0.94-2.03-1.31
			c-1.46-0.29-2.3-0.77-2.3-1.62c0-0.83,0.71-1.53,2.25-1.53c0.77,0,1.66,0.3,2.21,0.71L521.7,170c-0.51-0.38-1.18-0.64-1.96-0.64
			c-1.25,0-1.66,0.51-1.66,1.05c0,0.61,0.59,0.91,1.9,1.18c1.99,0.42,2.43,0.88,2.43,1.74c0,0.87-0.86,1.63-2.38,1.63
			C518.84,174.95,517.87,174.52,517.19,174.04z"/>
		<path d="M524.44,172.64v-3.59h0.53v3.52c0,1.28,0.48,1.91,1.62,1.91c0.81,0,1.42-0.41,2.2-1.3v-4.12h0.53v5.76h-0.45l-0.06-1.12
			h-0.05c-0.62,0.73-1.34,1.26-2.27,1.26C525.11,174.95,524.44,174.2,524.44,172.64z"/>
		<path d="M531.87,169.05h0.45l0.06,1.11h0.05c0.66-0.71,1.34-1.25,2.27-1.25c1.4,0,2.07,0.75,2.07,2.32v3.59h-0.53v-3.52
			c0-1.29-0.48-1.91-1.62-1.91c-0.82,0-1.38,0.43-2.21,1.3v4.13h-0.53V169.05z M533.77,167.67l1.62-1.91l0.4,0.38l-1.72,1.81
			L533.77,167.67z"/>
	</g>
</g>
<g>
	<path d="M0-32.69l3.65-5.27H0.34v-1.48h5.5v1.07L2.19-33.1h3.7v1.48H0V-32.69z"/>
	<path d="M7.26-33.27c0-1.33,1.1-2.01,3.91-2.18c-0.06-0.53-0.46-0.86-1.26-0.86c-0.57,0-1.14,0.22-1.81,0.56l-0.63-1.16
		c0.82-0.47,1.77-0.8,2.78-0.8c1.67,0,2.69,0.87,2.69,2.69v3.4H11.5l-0.13-0.67h-0.04c-0.6,0.45-1.35,0.81-2.11,0.81
		C8.01-31.47,7.26-32.27,7.26-33.27z M11.17-33.41v-0.97c-1.75,0.09-2.22,0.47-2.22,0.98c0,0.38,0.32,0.57,0.82,0.57
		C10.3-32.84,10.75-33.08,11.17-33.41z"/>
	<path d="M14.36-32.38l0.75-1.1c0.73,0.45,1.55,0.71,2.4,0.71c0.65,0,0.94-0.22,0.94-0.51c0-0.33-0.29-0.45-1.46-0.7
		c-1.62-0.35-2.26-0.94-2.26-1.86c0-1.11,1.04-1.86,2.73-1.86c1.06,0,1.96,0.42,2.58,0.81l-0.79,1.06c-0.6-0.36-1.29-0.57-1.95-0.57
		c-0.55,0-0.82,0.2-0.82,0.48c0,0.33,0.37,0.41,1.37,0.63c1.84,0.41,2.35,0.93,2.35,1.9c0,1.08-1.03,1.92-2.94,1.92
		C16.21-31.47,15.11-31.88,14.36-32.38z"/>
	<path d="M21.67-33.89v-3.67h1.77v3.45c0,0.79,0.21,1.14,0.87,1.14c0.44,0,0.75-0.16,1.15-0.68v-3.91h1.77v5.95h-1.44l-0.13-0.85
		H25.6c-0.53,0.61-1.15,1-2.01,1C22.24-31.47,21.67-32.39,21.67-33.89z"/>
	<path d="M28.99-37.57h1.44l0.13,0.79h0.05c0.52-0.51,1.17-0.94,2.06-0.94c1.34,0,1.94,0.92,1.94,2.42v3.67h-1.77v-3.45
		c0-0.79-0.23-1.14-0.87-1.14c-0.47,0-0.79,0.22-1.2,0.62v3.97h-1.77V-37.57z M30.96-39.21l1.84-2.19l1.2,1.17l-2.17,1.88
		L30.96-39.21z"/>
</g>
<g>
	<path d="M386.43,159.1l3.65-5.27h-3.31v-1.48h5.5v1.07l-3.65,5.27h3.7v1.48h-5.88V159.1z"/>
	<path d="M393.69,158.52c0-1.33,1.1-2.01,3.91-2.18c-0.06-0.53-0.46-0.86-1.26-0.86c-0.57,0-1.14,0.22-1.81,0.56l-0.63-1.16
		c0.82-0.47,1.77-0.8,2.78-0.8c1.67,0,2.69,0.87,2.69,2.69v3.4h-1.44l-0.13-0.67h-0.04c-0.6,0.45-1.35,0.81-2.11,0.81
		C394.44,160.31,393.69,159.52,393.69,158.52z M397.6,158.38v-0.97c-1.75,0.09-2.22,0.47-2.22,0.98c0,0.38,0.32,0.57,0.82,0.57
		C396.73,158.94,397.18,158.7,397.6,158.38z"/>
	<path d="M400.79,159.4l0.75-1.1c0.73,0.45,1.55,0.71,2.4,0.71c0.65,0,0.94-0.22,0.94-0.51c0-0.33-0.29-0.45-1.46-0.7
		c-1.62-0.35-2.26-0.94-2.26-1.86c0-1.11,1.04-1.86,2.73-1.86c1.06,0,1.96,0.42,2.58,0.81l-0.79,1.06c-0.6-0.36-1.29-0.57-1.95-0.57
		c-0.55,0-0.82,0.2-0.82,0.48c0,0.33,0.37,0.41,1.37,0.63c1.84,0.41,2.35,0.93,2.35,1.9c0,1.08-1.03,1.92-2.94,1.92
		C402.64,160.31,401.54,159.9,400.79,159.4z"/>
	<path d="M408.1,157.89v-3.67h1.77v3.45c0,0.79,0.21,1.14,0.87,1.14c0.44,0,0.75-0.16,1.15-0.68v-3.91h1.77v5.95h-1.44l-0.13-0.85
		h-0.05c-0.53,0.61-1.15,1-2.01,1C408.67,160.31,408.1,159.39,408.1,157.89z"/>
	<path d="M415.42,154.22h1.44l0.13,0.79h0.05c0.52-0.51,1.17-0.94,2.06-0.94c1.34,0,1.94,0.92,1.94,2.42v3.67h-1.77v-3.45
		c0-0.79-0.23-1.14-0.87-1.14c-0.47,0-0.79,0.22-1.2,0.62v3.97h-1.77V154.22z"/>
</g>
<path d="M386.43,223.62l3.65-5.27h-3.31v-1.48h5.5v1.07l-3.65,5.27h3.7v1.48h-5.88V223.62z"/>
<path d="M393.69,223.04c0-1.33,1.1-2.01,3.91-2.18c-0.06-0.53-0.46-0.86-1.26-0.86c-0.57,0-1.14,0.22-1.81,0.56l-0.63-1.16
	c0.82-0.47,1.77-0.8,2.78-0.8c1.67,0,2.69,0.87,2.69,2.69v3.4h-1.44l-0.13-0.67h-0.04c-0.6,0.45-1.35,0.81-2.11,0.81
	C394.44,224.83,393.69,224.04,393.69,223.04z M397.6,222.9v-0.97c-1.75,0.09-2.22,0.47-2.22,0.98c0,0.38,0.32,0.57,0.82,0.57
	C396.73,223.47,397.18,223.22,397.6,222.9z"/>
<path d="M400.79,223.92l0.75-1.1c0.73,0.45,1.55,0.71,2.4,0.71c0.65,0,0.94-0.22,0.94-0.51c0-0.33-0.29-0.45-1.46-0.7
	c-1.62-0.35-2.26-0.94-2.26-1.86c0-1.11,1.04-1.86,2.73-1.86c1.06,0,1.96,0.42,2.58,0.81l-0.79,1.06c-0.6-0.36-1.29-0.57-1.95-0.57
	c-0.55,0-0.82,0.2-0.82,0.48c0,0.33,0.37,0.41,1.37,0.63c1.84,0.41,2.35,0.93,2.35,1.9c0,1.08-1.03,1.92-2.94,1.92
	C402.64,224.83,401.54,224.42,400.79,223.92z"/>
<path d="M408.1,222.41v-3.67h1.77v3.45c0,0.79,0.21,1.14,0.87,1.14c0.44,0,0.75-0.16,1.15-0.68v-3.91h1.77v5.95h-1.44l-0.13-0.85
	h-0.05c-0.53,0.61-1.15,1-2.01,1C408.67,224.83,408.1,223.91,408.1,222.41z"/>
<path d="M415.42,215.84h1.44l0.13,0.79h0.05c0.52-0.51,1.17-0.94,2.06-0.94c1.34,0,1.94,0.92,1.94,2.42v3.67h-1.77v-3.45
	c0-0.79-0.23-1.14-0.87-1.14c-0.47,0-0.79,0.22-1.2,0.62v3.97h-1.77V215.84z"/>
<g>
	<g>
		<path d="M428.01,108.92l3.65-5.27h-3.31v-1.48h5.5v1.07l-3.65,5.27h3.7v1.48h-5.88V108.92z"/>
		<path d="M437.07,102.17h2.12l2.43,7.82h-1.88l-1.01-3.96c-0.2-0.78-0.44-1.7-0.62-2.52h-0.05c-0.19,0.82-0.41,1.74-0.61,2.52
			l-1.02,3.96h-1.81L437.07,102.17z M436.25,106.75h3.74v1.38h-3.74V106.75z"/>
		<path d="M442.34,109.01l1.02-1.21c0.59,0.48,1.32,0.82,2.08,0.82c0.75,0,1.1-0.29,1.1-0.67c0-0.56-0.46-0.7-1.2-1.01l-1.02-0.43
			c-0.87-0.33-1.66-0.99-1.66-2.13c0-1.29,1.17-2.33,2.86-2.33c0.94,0,1.89,0.35,2.6,1.02l-0.89,1.12c-0.55-0.4-1.04-0.61-1.8-0.61
			c-0.58,0-0.98,0.24-0.98,0.7c0,0.47,0.52,0.64,1.27,0.92l0.96,0.41c1.02,0.38,1.67,1.02,1.67,2.12c0,1.3-1.09,2.42-3.02,2.42
			C444.26,110.13,443.16,109.75,442.34,109.01z"/>
		<path d="M449.7,106.98v-4.81h1.77v4.99c0,0.94,0.34,1.45,1.08,1.45c0.74,0,1.1-0.51,1.1-1.45v-4.99h1.71v4.81
			c0,2.03-0.91,3.15-2.81,3.15C450.65,110.13,449.7,109.01,449.7,106.98z"/>
		<path d="M456.92,102.17h1.81l1.64,3.89l0.67,1.72h0.04c-0.08-0.82-0.24-1.92-0.24-2.84v-2.76h1.69v7.82h-1.81l-1.64-3.89
			l-0.67-1.71h-0.04c0.08,0.86,0.24,1.91,0.24,2.83v2.77h-1.69V102.17z M458.62,100.94l2.05-1.68l0.94,1.14l-2.2,1.42L458.62,100.94
			z"/>
	</g>
</g>
<g>
	<g>
		<path d="M445.18,192.39l3.65-5.27h-3.31v-1.48h5.5v1.07l-3.65,5.27h3.7v1.48h-5.88V192.39z"/>
		<path d="M454.24,185.64h2.12l2.43,7.82h-1.88l-1.01-3.96c-0.2-0.78-0.44-1.7-0.62-2.52h-0.05c-0.19,0.82-0.41,1.74-0.61,2.52
			l-1.02,3.96h-1.81L454.24,185.64z M453.42,190.22h3.74v1.38h-3.74V190.22z"/>
		<path d="M459.51,192.47l1.02-1.21c0.59,0.48,1.32,0.82,2.08,0.82c0.75,0,1.1-0.29,1.1-0.67c0-0.56-0.46-0.7-1.2-1.01l-1.02-0.43
			c-0.87-0.33-1.66-0.99-1.66-2.13c0-1.29,1.17-2.33,2.86-2.33c0.94,0,1.89,0.35,2.6,1.02l-0.89,1.12c-0.55-0.4-1.04-0.61-1.8-0.61
			c-0.58,0-0.98,0.24-0.98,0.7c0,0.47,0.52,0.64,1.27,0.92l0.96,0.41c1.02,0.38,1.67,1.02,1.67,2.12c0,1.3-1.09,2.42-3.02,2.42
			C461.43,193.6,460.34,193.21,459.51,192.47z"/>
		<path d="M466.87,190.45v-4.81h1.77v4.99c0,0.94,0.34,1.45,1.08,1.45c0.74,0,1.1-0.51,1.1-1.45v-4.99h1.71v4.81
			c0,2.03-0.91,3.15-2.81,3.15C467.82,193.6,466.87,192.48,466.87,190.45z"/>
		<path d="M474.1,185.64h1.81l1.64,3.89l0.67,1.72h0.04c-0.08-0.82-0.24-1.92-0.24-2.84v-2.76h1.69v7.82h-1.81l-1.64-3.89
			l-0.67-1.71h-0.04c0.08,0.86,0.24,1.91,0.24,2.83v2.77h-1.69V185.64z M475.8,184.41l2.05-1.68l0.94,1.14l-2.2,1.42L475.8,184.41z"
			/>
	</g>
</g>
<g>
	<g>
		<path d="M446.23,240.77l3.65-5.27h-3.31v-1.48h5.5v1.07l-3.65,5.27h3.7v1.48h-5.88V240.77z"/>
		<path d="M455.29,234.03h2.12l2.43,7.82h-1.88l-1.01-3.96c-0.2-0.78-0.44-1.7-0.62-2.52h-0.05c-0.19,0.82-0.41,1.74-0.61,2.52
			l-1.02,3.96h-1.81L455.29,234.03z M454.47,238.61h3.74v1.38h-3.74V238.61z"/>
		<path d="M460.56,240.86l1.02-1.21c0.59,0.48,1.32,0.82,2.08,0.82c0.75,0,1.1-0.29,1.1-0.67c0-0.56-0.46-0.7-1.2-1.01l-1.02-0.43
			c-0.87-0.33-1.66-0.99-1.66-2.13c0-1.29,1.17-2.33,2.86-2.33c0.94,0,1.89,0.35,2.6,1.02l-0.89,1.12c-0.55-0.4-1.04-0.61-1.8-0.61
			c-0.58,0-0.98,0.24-0.98,0.7c0,0.47,0.52,0.64,1.27,0.92l0.96,0.41c1.02,0.38,1.67,1.02,1.67,2.12c0,1.3-1.09,2.42-3.02,2.42
			C462.48,241.99,461.39,241.6,460.56,240.86z"/>
		<path d="M467.92,238.83v-4.81h1.77v4.99c0,0.94,0.34,1.45,1.08,1.45c0.74,0,1.1-0.51,1.1-1.45v-4.99h1.71v4.81
			c0,2.03-0.91,3.15-2.81,3.15C468.87,241.99,467.92,240.86,467.92,238.83z"/>
		<path d="M475.15,234.03h1.81l1.64,3.89l0.67,1.72h0.04c-0.08-0.82-0.24-1.92-0.24-2.84v-2.76h1.69v7.82h-1.81l-1.64-3.89
			l-0.67-1.71h-0.04c0.08,0.86,0.24,1.91,0.24,2.83v2.77h-1.69V234.03z M476.85,232.8l2.05-1.68l0.94,1.14l-2.2,1.42L476.85,232.8z"
			/>
	</g>
</g>
<g>
	<g>
		<path d="M469.28,109.18l3.1-3.62h-2.73v-1.38h5.19v0.94l-3.12,3.62h3.2v1.39h-5.64V109.18z"/>
		<path d="M476.37,108.47c0-1.33,1.1-2.01,3.91-2.18c-0.06-0.53-0.46-0.86-1.26-0.86c-0.57,0-1.14,0.22-1.81,0.56l-0.63-1.16
			c0.82-0.47,1.77-0.8,2.78-0.8c1.67,0,2.69,0.87,2.69,2.69v3.4h-1.44l-0.13-0.67h-0.04c-0.6,0.45-1.35,0.81-2.11,0.81
			C477.12,110.27,476.37,109.47,476.37,108.47z M480.29,108.33v-0.97c-1.75,0.09-2.22,0.47-2.22,0.98c0,0.38,0.32,0.57,0.82,0.57
			C479.42,108.9,479.87,108.66,480.29,108.33z"/>
		<path d="M483.47,109.35l0.75-1.1c0.73,0.45,1.55,0.71,2.4,0.71c0.65,0,0.94-0.22,0.94-0.51c0-0.33-0.29-0.45-1.46-0.7
			c-1.62-0.35-2.26-0.94-2.26-1.86c0-1.11,1.04-1.86,2.73-1.86c1.06,0,1.96,0.42,2.58,0.81l-0.79,1.06
			c-0.6-0.36-1.29-0.57-1.95-0.57c-0.55,0-0.82,0.2-0.82,0.48c0,0.33,0.37,0.41,1.37,0.63c1.84,0.41,2.35,0.93,2.35,1.9
			c0,1.08-1.03,1.92-2.94,1.92C485.32,110.27,484.22,109.85,483.47,109.35z"/>
		<path d="M490.78,107.85v-3.67h1.77v3.45c0,0.79,0.21,1.14,0.87,1.14c0.44,0,0.75-0.16,1.15-0.68v-3.91h1.77v5.95h-1.44l-0.13-0.85
			h-0.05c-0.53,0.61-1.15,1-2.01,1C491.35,110.27,490.78,109.35,490.78,107.85z"/>
		<path d="M498.1,104.17h1.44l0.13,0.79h0.05c0.52-0.51,1.17-0.94,2.06-0.94c1.34,0,1.94,0.92,1.94,2.42v3.67h-1.77v-3.45
			c0-0.79-0.23-1.14-0.87-1.14c-0.47,0-0.79,0.22-1.2,0.62v3.97h-1.77V104.17z M500.08,102.53l1.84-2.19l1.2,1.17l-2.17,1.88
			L500.08,102.53z"/>
		<path d="M512.2,107.15c0-1.98,1.46-3.12,3.03-3.12s3.03,1.14,3.03,3.12c0,1.97-1.46,3.12-3.03,3.12S512.2,109.12,512.2,107.15z
			 M516.46,107.15c0-1.03-0.41-1.7-1.23-1.7s-1.23,0.67-1.23,1.7c0,1.03,0.42,1.69,1.23,1.69S516.46,108.18,516.46,107.15z"/>
	</g>
</g>
<g>
	<rect x="401.83" y="144.3" width="18.33" height="1.75"/>
	<rect x="387.12" y="144.74" width="16.82" height="0.88"/>
	<circle cx="387.12" cy="145.17" r="0.88"/>
	<circle class="st0" cx="387.12" cy="145.17" r="0.44"/>
	<circle cx="420.16" cy="145.17" r="0.87"/>
</g>
<g>
	<g>
		<circle cx="481.09" cy="221.71" r="1.12"/>
		<path class="st0" d="M481.09,220.84c0.48,0,0.87,0.39,0.87,0.87s-0.39,0.87-0.87,0.87c-0.48,0-0.87-0.39-0.87-0.87
			S480.61,220.84,481.09,220.84 M481.09,220.34c-0.76,0-1.37,0.61-1.37,1.37s0.61,1.37,1.37,1.37c0.76,0,1.37-0.61,1.37-1.37
			S481.84,220.34,481.09,220.34L481.09,220.34z"/>
	</g>
	<rect x="476.82" y="220.84" width="4.27" height="1.75"/>
	<rect x="474.17" y="221.28" width="4.09" height="0.88"/>
	<circle cx="474.17" cy="221.71" r="0.88"/>
	<circle class="st0" cx="474.17" cy="221.71" r="0.44"/>
</g>
<g>
	<rect x="428.11" y="199.96" transform="matrix(0.5336 -0.8457 0.8457 0.5336 30.7021 457.8459)" width="4.77" height="2.25"/>
	<path class="st0" d="M430.89,198.81l1.48,0.93l-2.28,3.61l-1.48-0.93L430.89,198.81 M430.73,198.12l-0.27,0.42l-2.28,3.61
		l-0.27,0.42l0.42,0.27l1.48,0.93l0.42,0.27l0.27-0.42l2.28-3.61l0.27-0.42l-0.42-0.27l-1.48-0.93L430.73,198.12L430.73,198.12z"/>
</g>
<rect x="429.91" y="198.33" transform="matrix(-0.5337 0.8457 -0.8457 -0.5337 830.5641 -60.4686)" width="4.09" height="0.88"/>
<circle cx="433.05" cy="197.04" r="0.88"/>
<circle class="st0" cx="438.09" cy="210.49" r="0.44"/>
<circle cx="418.22" cy="152.35" r="0.88"/>
<path d="M420.33,223.21h-2.11v1.47h2.11c0.39,0,0.7-0.31,0.7-0.7v-0.07C421.03,223.53,420.72,223.21,420.33,223.21z"/>
<g>
	<path d="M386.43,192.45l3.65-5.27h-3.31v-1.48h5.5v1.07l-3.65,5.27h3.7v1.48h-5.88V192.45z"/>
	<path d="M393.69,191.88c0-1.33,1.1-2.01,3.91-2.18c-0.06-0.53-0.46-0.86-1.26-0.86c-0.57,0-1.14,0.22-1.81,0.56l-0.63-1.16
		c0.82-0.47,1.77-0.8,2.78-0.8c1.67,0,2.69,0.87,2.69,2.69v3.4h-1.44l-0.13-0.67h-0.04c-0.6,0.45-1.35,0.81-2.11,0.81
		C394.44,193.67,393.69,192.88,393.69,191.88z M397.6,191.73v-0.97c-1.75,0.09-2.22,0.47-2.22,0.98c0,0.38,0.32,0.57,0.82,0.57
		C396.73,192.3,397.18,192.06,397.6,191.73z"/>
	<path d="M400.79,192.76l0.75-1.1c0.73,0.45,1.55,0.71,2.4,0.71c0.65,0,0.94-0.22,0.94-0.51c0-0.33-0.29-0.45-1.46-0.7
		c-1.62-0.35-2.26-0.94-2.26-1.86c0-1.11,1.04-1.86,2.73-1.86c1.06,0,1.96,0.42,2.58,0.81l-0.79,1.06c-0.6-0.36-1.29-0.57-1.95-0.57
		c-0.55,0-0.82,0.2-0.82,0.48c0,0.33,0.37,0.41,1.37,0.63c1.84,0.41,2.35,0.93,2.35,1.9c0,1.08-1.03,1.92-2.94,1.92
		C402.64,193.67,401.54,193.26,400.79,192.76z"/>
	<path d="M408.1,191.25v-3.67h1.77v3.45c0,0.79,0.21,1.14,0.87,1.14c0.44,0,0.75-0.16,1.15-0.68v-3.91h1.77v5.95h-1.44l-0.13-0.85
		h-0.05c-0.53,0.61-1.15,1-2.01,1C408.67,193.67,408.1,192.75,408.1,191.25z"/>
	<path d="M415.42,187.58h1.44l0.13,0.79h0.05c0.52-0.51,1.17-0.94,2.06-0.94c1.34,0,1.94,0.92,1.94,2.42v3.67h-1.77v-3.45
		c0-0.79-0.23-1.14-0.87-1.14c-0.47,0-0.79,0.22-1.2,0.62v3.97h-1.77V187.58z"/>
</g>
<g>
	<path d="M562.65,192.55l3.65-5.27h-3.31v-1.48h5.5v1.07l-3.65,5.27h3.7v1.48h-5.88V192.55z"/>
	<path d="M569.91,191.97c0-1.33,1.1-2.01,3.91-2.18c-0.06-0.53-0.46-0.86-1.26-0.86c-0.57,0-1.14,0.22-1.81,0.56l-0.63-1.16
		c0.82-0.47,1.77-0.8,2.78-0.8c1.67,0,2.69,0.87,2.69,2.69v3.4h-1.44l-0.13-0.67h-0.04c-0.6,0.45-1.35,0.81-2.11,0.81
		C570.66,193.76,569.91,192.97,569.91,191.97z M573.83,191.82v-0.97c-1.75,0.09-2.22,0.47-2.22,0.98c0,0.38,0.32,0.57,0.82,0.57
		C572.96,192.39,573.41,192.15,573.83,191.82z"/>
	<path d="M577.01,192.85l0.75-1.1c0.73,0.45,1.55,0.71,2.4,0.71c0.65,0,0.94-0.22,0.94-0.51c0-0.33-0.29-0.45-1.46-0.7
		c-1.62-0.35-2.26-0.94-2.26-1.86c0-1.11,1.04-1.86,2.73-1.86c1.06,0,1.96,0.42,2.58,0.81l-0.79,1.06c-0.6-0.36-1.29-0.57-1.95-0.57
		c-0.55,0-0.82,0.2-0.82,0.48c0,0.33,0.37,0.41,1.37,0.63c1.84,0.41,2.35,0.93,2.35,1.9c0,1.08-1.03,1.92-2.94,1.92
		C578.86,193.76,577.76,193.35,577.01,192.85z"/>
	<path d="M584.32,191.34v-3.67h1.77v3.45c0,0.79,0.21,1.14,0.87,1.14c0.44,0,0.75-0.16,1.15-0.68v-3.91h1.77v5.95h-1.44l-0.13-0.85
		h-0.05c-0.53,0.61-1.15,1-2.01,1C584.89,193.76,584.32,192.84,584.32,191.34z"/>
	<path d="M591.64,187.67h1.44l0.13,0.79h0.05c0.52-0.51,1.17-0.94,2.06-0.94c1.34,0,1.94,0.92,1.94,2.42v3.67h-1.77v-3.45
		c0-0.79-0.23-1.14-0.87-1.14c-0.47,0-0.79,0.22-1.2,0.62v3.97h-1.77V187.67z"/>
</g>
<rect x="439.67" y="208" width="5.88" height="1.47"/>
<rect x="529.76" y="232.8" width="5.61" height="1.47"/>
<g>
	<path d="M593.72,240.58l5.48-7.9h-4.97v-2.23h8.26v1.61l-5.49,7.91h5.55v2.23h-8.83V240.58z"/>
	<path d="M604.61,239.71c0-2,1.65-3.02,5.88-3.28c-0.09-0.8-0.7-1.29-1.89-1.29c-0.86,0-1.72,0.33-2.72,0.84l-0.94-1.74
		c1.24-0.71,2.66-1.21,4.18-1.21c2.51,0,4.03,1.31,4.03,4.04v5.11h-2.16l-0.19-1.01h-0.07c-0.9,0.68-2.02,1.22-3.17,1.22
		C605.74,242.41,604.61,241.21,604.61,239.71z M610.48,239.5v-1.46c-2.63,0.13-3.33,0.7-3.33,1.46c0,0.57,0.48,0.85,1.23,0.85
		C609.18,240.36,609.85,239.99,610.48,239.5z"/>
	<path d="M615.26,241.04l1.13-1.65c1.1,0.68,2.33,1.06,3.6,1.06c0.98,0,1.42-0.33,1.42-0.77c0-0.5-0.43-0.68-2.19-1.05
		c-2.43-0.52-3.4-1.41-3.4-2.79c0-1.66,1.55-2.8,4.1-2.8c1.59,0,2.94,0.63,3.87,1.22l-1.19,1.59c-0.9-0.55-1.94-0.85-2.92-0.85
		c-0.83,0-1.24,0.3-1.24,0.71c0,0.5,0.55,0.61,2.06,0.95c2.76,0.62,3.52,1.4,3.52,2.86c0,1.62-1.54,2.88-4.41,2.88
		C618.03,242.41,616.38,241.79,615.26,241.04z"/>
	<path d="M626.22,238.77v-5.52h2.65v5.17c0,1.18,0.32,1.72,1.3,1.72c0.66,0,1.12-0.23,1.73-1.02v-5.87h2.65v8.93h-2.17l-0.19-1.28
		h-0.07c-0.79,0.91-1.73,1.5-3.01,1.5C627.08,242.41,626.22,241.03,626.22,238.77z"/>
	<path d="M637.2,233.26h2.16l0.19,1.19h0.07c0.78-0.76,1.76-1.41,3.09-1.41c2.02,0,2.91,1.38,2.91,3.63v5.52h-2.65v-5.17
		c0-1.19-0.34-1.72-1.31-1.72c-0.71,0-1.19,0.33-1.81,0.93v5.96h-2.65V233.26z"/>
	<rect x="637.2" y="228.8" width="8.42" height="2.23"/>
</g>
<g>
	<path d="M756.39,263.9l5.48-7.9h-4.97v-2.23h8.26v1.61l-5.49,7.91h5.55v2.23h-8.83V263.9z"/>
	<path d="M767.28,263.03c0-2,1.65-3.02,5.88-3.28c-0.09-0.8-0.7-1.29-1.89-1.29c-0.86,0-1.72,0.33-2.72,0.84l-0.94-1.74
		c1.24-0.71,2.66-1.21,4.18-1.21c2.51,0,4.03,1.31,4.03,4.04v5.11h-2.16l-0.19-1.01h-0.07c-0.9,0.68-2.02,1.22-3.17,1.22
		C768.41,265.72,767.28,264.53,767.28,263.03z M773.16,262.82v-1.46c-2.63,0.13-3.33,0.7-3.33,1.46c0,0.57,0.48,0.85,1.23,0.85
		C771.85,263.67,772.52,263.31,773.16,262.82z"/>
	<path d="M777.93,264.35l1.13-1.65c1.1,0.68,2.33,1.06,3.6,1.06c0.98,0,1.42-0.33,1.42-0.77c0-0.5-0.43-0.68-2.19-1.05
		c-2.43-0.52-3.4-1.41-3.4-2.79c0-1.66,1.55-2.8,4.1-2.8c1.59,0,2.94,0.63,3.87,1.22l-1.19,1.59c-0.9-0.55-1.94-0.85-2.92-0.85
		c-0.83,0-1.24,0.3-1.24,0.71c0,0.5,0.55,0.61,2.06,0.95c2.76,0.62,3.52,1.4,3.52,2.86c0,1.62-1.54,2.88-4.41,2.88
		C780.71,265.72,779.06,265.1,777.93,264.35z"/>
	<path d="M788.89,262.09v-5.52h2.65v5.17c0,1.18,0.32,1.72,1.3,1.72c0.66,0,1.12-0.23,1.73-1.02v-5.87h2.65v8.93h-2.17l-0.19-1.28
		h-0.07c-0.79,0.91-1.73,1.5-3.01,1.5C789.75,265.72,788.89,264.34,788.89,262.09z"/>
	<path d="M799.88,256.57h2.16l0.19,1.19h0.07c0.78-0.76,1.76-1.41,3.09-1.41c2.02,0,2.91,1.38,2.91,3.63v5.52h-2.65v-5.17
		c0-1.19-0.34-1.72-1.31-1.72c-0.71,0-1.19,0.33-1.81,0.93v5.96h-2.65V256.57z"/>
	<rect x="799.88" y="252.12" width="8.42" height="2.23"/>
</g>
<path d="M679.72,264.64l5.48-7.9h-4.97v-2.23h8.26v1.61l-5.49,7.91h5.55v2.23h-8.83V264.64z"/>
<path d="M679.72,351.43l5.48-7.9h-4.97v-2.23h8.26v1.61l-5.49,7.91h5.55v2.23h-8.83V351.43z"/>
<path d="M690.61,263.77c0-2,1.65-3.02,5.88-3.28c-0.09-0.8-0.7-1.29-1.89-1.29c-0.86,0-1.72,0.33-2.72,0.84l-0.94-1.74
	c1.24-0.71,2.66-1.21,4.18-1.21c2.51,0,4.03,1.31,4.03,4.04v5.11h-2.16l-0.19-1.01h-0.07c-0.9,0.68-2.02,1.22-3.17,1.22
	C691.74,266.46,690.61,265.27,690.61,263.77z M696.49,263.56v-1.46c-2.63,0.13-3.33,0.7-3.33,1.46c0,0.57,0.48,0.85,1.23,0.85
	C695.18,264.41,695.85,264.05,696.49,263.56z"/>
<path d="M701.26,265.09l1.13-1.65c1.1,0.68,2.33,1.06,3.6,1.06c0.98,0,1.42-0.33,1.42-0.77c0-0.5-0.43-0.68-2.19-1.05
	c-2.43-0.52-3.4-1.41-3.4-2.79c0-1.66,1.55-2.8,4.1-2.8c1.59,0,2.94,0.63,3.87,1.22l-1.19,1.59c-0.9-0.55-1.94-0.85-2.92-0.85
	c-0.83,0-1.24,0.3-1.24,0.71c0,0.5,0.55,0.61,2.06,0.95c2.76,0.62,3.52,1.4,3.52,2.86c0,1.62-1.54,2.88-4.41,2.88
	C704.04,266.46,702.39,265.84,701.26,265.09z"/>
<path d="M712.22,262.83v-5.52h2.65v5.17c0,1.18,0.32,1.72,1.3,1.72c0.66,0,1.12-0.23,1.73-1.02v-5.87h2.65v8.93h-2.17l-0.19-1.28
	h-0.07c-0.79,0.91-1.73,1.5-3.01,1.5C713.08,266.46,712.22,265.08,712.22,262.83z"/>
<path d="M723.21,257.31h2.16l0.19,1.19h0.07c0.78-0.76,1.76-1.41,3.09-1.41c2.02,0,2.91,1.38,2.91,3.63v5.52h-2.65v-5.17
	c0-1.19-0.34-1.72-1.31-1.72c-0.71,0-1.19,0.33-1.81,0.93v5.96h-2.65V257.31z"/>
<g>
	<circle cx="429.35" cy="202.89" r="0.87"/>
</g>
<rect x="416.12" y="223.58" width="2.1" height="0.74"/>
<path d="M378.66,223.21h-2.11v1.47h2.11c0.39,0,0.7-0.31,0.7-0.7v-0.07C379.37,223.53,379.05,223.21,378.66,223.21z"/>
<rect x="374.46" y="223.58" width="2.1" height="0.74"/>
<path d="M416.12,223.21L416.12,223.21c-0.39,0-0.7,0.31-0.7,0.7v0.07c0,0.39,0.31,0.7,0.7,0.7l0,0c0.39,0,0.7-0.31,0.7-0.7v-0.07
	C416.82,223.53,416.51,223.21,416.12,223.21z"/>
<path d="M500.77,240.63l3.65-5.27h-3.31v-1.48h5.5v1.07l-3.65,5.27h3.7v1.48h-5.88V240.63z"/>
<path d="M508.03,240.05c0-1.33,1.1-2.01,3.91-2.18c-0.06-0.53-0.46-0.86-1.26-0.86c-0.57,0-1.14,0.22-1.81,0.56l-0.63-1.16
	c0.82-0.47,1.77-0.8,2.78-0.8c1.67,0,2.69,0.87,2.69,2.69v3.4h-1.44l-0.13-0.67h-0.04c-0.6,0.45-1.35,0.81-2.11,0.81
	C508.78,241.84,508.03,241.05,508.03,240.05z M511.94,239.91v-0.97c-1.75,0.09-2.22,0.47-2.22,0.98c0,0.38,0.32,0.57,0.82,0.57
	C511.07,240.48,511.52,240.23,511.94,239.91z"/>
<path d="M515.13,240.93l0.75-1.1c0.73,0.45,1.55,0.71,2.4,0.71c0.65,0,0.94-0.22,0.94-0.51c0-0.33-0.29-0.45-1.46-0.7
	c-1.62-0.35-2.26-0.94-2.26-1.86c0-1.11,1.04-1.86,2.73-1.86c1.06,0,1.96,0.42,2.58,0.81l-0.79,1.06c-0.6-0.36-1.29-0.57-1.95-0.57
	c-0.55,0-0.82,0.2-0.82,0.48c0,0.33,0.37,0.41,1.37,0.63c1.84,0.41,2.35,0.93,2.35,1.9c0,1.08-1.03,1.92-2.94,1.92
	C516.98,241.84,515.88,241.43,515.13,240.93z"/>
<path d="M522.44,239.42v-3.67h1.77v3.45c0,0.79,0.21,1.14,0.87,1.14c0.44,0,0.75-0.16,1.15-0.68v-3.91h1.77v5.95h-1.44l-0.13-0.85
	h-0.05c-0.53,0.61-1.15,1-2.01,1C523.01,241.84,522.44,240.92,522.44,239.42z"/>
<path d="M529.76,235.75h1.44l0.13,0.79h0.05c0.52-0.51,1.17-0.94,2.06-0.94c1.34,0,1.94,0.92,1.94,2.42v3.67h-1.77v-3.45
	c0-0.79-0.23-1.14-0.87-1.14c-0.47,0-0.79,0.22-1.2,0.62v3.97h-1.77V235.75z"/>
<rect x="579.5" y="232.8" width="3.4" height="1.47"/>
<path d="M548.3,240.63l3.65-5.27h-3.31v-1.48h5.5v1.07l-3.65,5.27h3.7v1.48h-5.88V240.63z"/>
<path d="M555.56,240.05c0-1.33,1.1-2.01,3.91-2.18c-0.06-0.53-0.46-0.86-1.26-0.86c-0.57,0-1.14,0.22-1.81,0.56l-0.63-1.16
	c0.82-0.47,1.77-0.8,2.78-0.8c1.67,0,2.69,0.87,2.69,2.69v3.4h-1.44l-0.13-0.67h-0.04c-0.6,0.45-1.35,0.81-2.11,0.81
	C556.31,241.84,555.56,241.05,555.56,240.05z M559.47,239.91v-0.97c-1.75,0.09-2.22,0.47-2.22,0.98c0,0.38,0.32,0.57,0.82,0.57
	C558.6,240.48,559.05,240.23,559.47,239.91z"/>
<path d="M562.66,240.93l0.75-1.1c0.73,0.45,1.55,0.71,2.4,0.71c0.65,0,0.94-0.22,0.94-0.51c0-0.33-0.29-0.45-1.46-0.7
	c-1.62-0.35-2.26-0.94-2.26-1.86c0-1.11,1.04-1.86,2.73-1.86c1.06,0,1.96,0.42,2.58,0.81l-0.79,1.06c-0.6-0.36-1.29-0.57-1.95-0.57
	c-0.55,0-0.82,0.2-0.82,0.48c0,0.33,0.37,0.41,1.37,0.63c1.84,0.41,2.35,0.93,2.35,1.9c0,1.08-1.03,1.92-2.94,1.92
	C564.51,241.84,563.41,241.43,562.66,240.93z"/>
<path d="M569.96,239.42v-3.67h1.77v3.45c0,0.79,0.21,1.14,0.87,1.14c0.44,0,0.75-0.16,1.15-0.68v-3.91h1.77v5.95h-1.44l-0.13-0.85
	h-0.05c-0.53,0.61-1.15,1-2.01,1C570.54,241.84,569.96,240.92,569.96,239.42z"/>
<path d="M577.29,235.75h1.44l0.13,0.79h0.05c0.52-0.51,1.17-0.94,2.06-0.94c1.34,0,1.94,0.92,1.94,2.42v3.67h-1.77v-3.45
	c0-0.79-0.23-1.14-0.87-1.14c-0.47,0-0.79,0.22-1.2,0.62v3.97h-1.77V235.75z"/>
<path d="M343.47,223.53l3.95-5.7h-3.58v-1.6h5.95v1.16l-3.95,5.7h4v1.61h-6.37V223.53z"/>
<path d="M350.97,223.04c0-1.33,1.1-2.01,3.91-2.18c-0.06-0.53-0.46-0.86-1.26-0.86c-0.57,0-1.14,0.22-1.81,0.56l-0.63-1.16
	c0.82-0.47,1.77-0.8,2.78-0.8c1.67,0,2.69,0.87,2.69,2.69v3.4h-1.44l-0.13-0.67h-0.04c-0.6,0.45-1.35,0.81-2.11,0.81
	C351.73,224.83,350.97,224.04,350.97,223.04z M354.89,222.9v-0.97c-1.75,0.09-2.22,0.47-2.22,0.98c0,0.38,0.32,0.57,0.82,0.57
	C354.02,223.47,354.47,223.22,354.89,222.9z"/>
<path d="M358.08,223.92l0.75-1.1c0.73,0.45,1.55,0.71,2.4,0.71c0.65,0,0.94-0.22,0.94-0.51c0-0.33-0.29-0.45-1.46-0.7
	c-1.62-0.35-2.26-0.94-2.26-1.86c0-1.11,1.04-1.86,2.73-1.86c1.06,0,1.96,0.42,2.58,0.81l-0.79,1.06c-0.6-0.36-1.29-0.57-1.95-0.57
	c-0.55,0-0.82,0.2-0.82,0.48c0,0.33,0.37,0.41,1.37,0.63c1.84,0.41,2.35,0.93,2.35,1.9c0,1.08-1.03,1.92-2.94,1.92
	C359.92,224.83,358.83,224.42,358.08,223.92z"/>
<path d="M365.38,222.41v-3.67h1.77v3.45c0,0.79,0.21,1.14,0.87,1.14c0.44,0,0.75-0.16,1.15-0.68v-3.91h1.77v5.95h-1.44l-0.13-0.85
	h-0.05c-0.53,0.61-1.15,1-2.01,1C365.96,224.83,365.38,223.91,365.38,222.41z"/>
<path d="M372.7,216.37h1.44l0.13,0.79h0.05c0.52-0.51,1.17-0.94,2.06-0.94c1.34,0,1.94,0.92,1.94,2.42v3.67h-1.77v-3.45
	c0-0.79-0.23-1.14-0.87-1.14c-0.47,0-0.79,0.22-1.2,0.62v3.97h-1.77V216.37z"/>
<path d="M373.75,223.21h-0.35c-0.39,0-0.7,0.31-0.7,0.7v0.07c0,0.39,0.31,0.7,0.7,0.7h0.35c0.39,0,0.7-0.31,0.7-0.7v-0.07
	C374.46,223.53,374.14,223.21,373.75,223.21z"/>
<circle cx="578.02" cy="233.54" r="0.74"/>
<g>
	<path d="M0,7.58l4.82-7.12H0.41V0h5.08v0.33L0.66,7.44h4.91v0.48H0V7.58z"/>
	<path d="M7.46,6.48c0-1.29,1.29-1.9,4.42-2.17c-0.01-0.95-0.39-1.83-1.71-1.83c-0.87,0-1.71,0.45-2.18,0.78L7.74,2.87
		C8.2,2.54,9.2,2.01,10.23,2.01c1.54,0,2.18,0.99,2.18,2.22v3.68h-0.45L11.9,7.05h-0.03c-0.66,0.53-1.55,1.01-2.4,1.01
		C8.44,8.06,7.46,7.56,7.46,6.48z M11.88,6.56V4.71C8.94,4.98,8,5.53,8,6.45C8,7.28,8.78,7.6,9.56,7.6
		C10.29,7.6,11.06,7.24,11.88,6.56z"/>
	<path d="M14.54,7.15l0.28-0.39c0.64,0.5,1.4,0.84,2.61,0.84c1.18,0,1.78-0.53,1.78-1.14c0-0.52-0.2-0.94-2.03-1.31
		c-1.46-0.29-2.3-0.77-2.3-1.62c0-0.83,0.71-1.53,2.25-1.53c0.77,0,1.66,0.3,2.21,0.71L19.06,3.1c-0.51-0.38-1.18-0.64-1.96-0.64
		c-1.25,0-1.66,0.51-1.66,1.05c0,0.61,0.59,0.91,1.9,1.18c1.99,0.42,2.43,0.88,2.43,1.74c0,0.87-0.86,1.63-2.38,1.63
		C16.2,8.06,15.22,7.63,14.54,7.15z"/>
	<path d="M21.8,5.74V2.16h0.53v3.52c0,1.28,0.48,1.91,1.62,1.91c0.81,0,1.42-0.41,2.2-1.3V2.16h0.53v5.76h-0.45L26.18,6.8h-0.05
		c-0.62,0.73-1.34,1.26-2.27,1.26C22.47,8.06,21.8,7.3,21.8,5.74z"/>
	<path d="M29.22,2.16h0.45l0.06,1.11h0.05c0.66-0.71,1.34-1.25,2.27-1.25c1.4,0,2.07,0.75,2.07,2.32v3.59h-0.53V4.4
		c0-1.29-0.48-1.91-1.62-1.91c-0.82,0-1.38,0.43-2.21,1.3v4.13h-0.53V2.16z"/>
	<rect x="29.22" width="4.9" height="0.47"/>
</g>
<path d="M548.3,261.09l4.82-7.12h-4.41v-0.47h5.08v0.33l-4.83,7.11h4.91v0.48h-5.57V261.09z"/>
<path d="M555.76,259.99c0-1.29,1.29-1.9,4.42-2.17c-0.01-0.95-0.39-1.83-1.71-1.83c-0.87,0-1.71,0.45-2.18,0.78l-0.25-0.39
	c0.46-0.33,1.46-0.86,2.49-0.86c1.54,0,2.18,0.99,2.18,2.22v3.68h-0.45l-0.06-0.86h-0.03c-0.66,0.53-1.55,1.01-2.4,1.01
	C556.73,261.57,555.76,261.07,555.76,259.99z M560.17,260.06v-1.84c-2.93,0.26-3.87,0.81-3.87,1.74c0,0.83,0.77,1.14,1.55,1.14
	C558.59,261.1,559.36,260.75,560.17,260.06z"/>
<path d="M562.84,260.65l0.28-0.39c0.64,0.5,1.4,0.84,2.61,0.84c1.18,0,1.78-0.53,1.78-1.14c0-0.52-0.2-0.94-2.03-1.31
	c-1.46-0.29-2.3-0.77-2.3-1.62c0-0.83,0.71-1.53,2.25-1.53c0.77,0,1.66,0.3,2.21,0.71l-0.29,0.38c-0.51-0.38-1.18-0.64-1.96-0.64
	c-1.25,0-1.66,0.51-1.66,1.05c0,0.61,0.59,0.91,1.9,1.18c1.99,0.42,2.43,0.88,2.43,1.74c0,0.87-0.86,1.63-2.38,1.63
	C564.5,261.57,563.52,261.14,562.84,260.65z"/>
<path d="M570.09,259.25v-3.59h0.53v3.52c0,1.28,0.48,1.91,1.62,1.91c0.81,0,1.42-0.41,2.2-1.3v-4.12h0.53v5.76h-0.45l-0.06-1.12
	h-0.05c-0.62,0.73-1.34,1.26-2.27,1.26C570.76,261.57,570.09,260.81,570.09,259.25z"/>
<path d="M577.52,255.66h0.45l0.06,1.11h0.05c0.66-0.71,1.34-1.25,2.27-1.25c1.4,0,2.07,0.75,2.07,2.32v3.59h-0.53v-3.52
	c0-1.29-0.48-1.91-1.62-1.91c-0.82,0-1.38,0.43-2.21,1.3v4.13h-0.53V255.66z"/>
<rect x="578.45" y="253.51" width="3.96" height="0.47"/>
<circle cx="577.75" cy="253.74" r="0.23"/>
<rect x="616.71" y="282.47" width="5.92" height="0.71"/>
<circle cx="615.64" cy="282.83" r="0.36"/>
<path d="M500.77,293.85l7.24-10.68h-6.62v-0.7h7.63v0.5l-7.26,10.67h7.38v0.71h-8.36V293.85z"/>
<path d="M511.96,292.2c0-1.94,1.94-2.85,6.63-3.26c-0.02-1.42-0.59-2.75-2.57-2.75c-1.3,0-2.57,0.67-3.27,1.18l-0.37-0.59
	c0.69-0.5,2.19-1.29,3.74-1.29c2.32,0,3.28,1.49,3.28,3.34v5.52h-0.68l-0.09-1.29h-0.04c-0.99,0.8-2.33,1.51-3.61,1.51
	C513.43,294.57,511.96,293.82,511.96,292.2z M518.59,292.31v-2.77c-4.4,0.39-5.81,1.22-5.81,2.61c0,1.24,1.16,1.71,2.33,1.71
	C516.22,293.87,517.37,293.34,518.59,292.31z"/>
<path d="M522.58,293.2l0.42-0.58c0.96,0.75,2.1,1.27,3.92,1.27c1.76,0,2.67-0.8,2.67-1.7c0-0.78-0.3-1.41-3.05-1.96
	c-2.2-0.44-3.45-1.15-3.45-2.43c0-1.25,1.06-2.3,3.38-2.3c1.16,0,2.49,0.46,3.32,1.06l-0.43,0.57c-0.77-0.57-1.77-0.96-2.95-0.96
	c-1.88,0-2.49,0.76-2.49,1.58c0,0.91,0.89,1.37,2.84,1.77c2.99,0.63,3.65,1.32,3.65,2.61c0,1.3-1.29,2.44-3.57,2.44
	C525.07,294.57,523.61,293.92,522.58,293.2z"/>
<path d="M533.47,291.09v-5.38h0.8v5.28c0,1.93,0.72,2.86,2.44,2.86c1.22,0,2.13-0.61,3.31-1.96v-6.19h0.8v8.65h-0.68l-0.09-1.67
	h-0.07c-0.93,1.09-2.01,1.89-3.4,1.89C534.47,294.57,533.47,293.44,533.47,291.09z"/>
<path d="M544.61,285.71h0.67l0.09,1.66h0.07c1-1.07,2.02-1.88,3.41-1.88c2.1,0,3.1,1.13,3.1,3.48v5.39h-0.8v-5.28
	c0-1.93-0.72-2.86-2.43-2.86c-1.23,0-2.07,0.64-3.32,1.95v6.2h-0.8V285.71z"/>
<rect x="544.61" y="282.47" width="7.35" height="0.71"/>
<g>
	<rect x="615.28" y="299.97" transform="matrix(-1 -1.224647e-16 1.224647e-16 -1 1236.48 600.6594)" width="5.92" height="0.71"/>
	
		<rect x="609.36" y="299.26" transform="matrix(-1 -1.224647e-16 1.224647e-16 -1 1224.6382 599.2307)" width="5.92" height="0.71"/>
	<rect x="615.28" y="298.54" transform="matrix(-1 -1.224647e-16 1.224647e-16 -1 1236.48 597.8019)" width="5.92" height="0.71"/>
	<g>
		<circle cx="621.2" cy="299.62" r="1.07"/>
		<circle class="st0" cx="621.2" cy="299.62" r="0.36"/>
	</g>
	<g>
		<circle cx="609.36" cy="299.62" r="1.07"/>
		<circle class="st0" cx="609.36" cy="299.62" r="0.36"/>
	</g>
</g>
<g>
	<rect x="705.65" y="276.05" width="22.61" height="2.23"/>
	<rect x="683.04" y="273.82" width="22.61" height="2.23"/>
	<rect x="705.65" y="271.59" width="22.61" height="2.23"/>
	<g>
		<circle cx="728.26" cy="274.93" r="3.34"/>
		<circle class="st0" cx="728.26" cy="274.93" r="1.11"/>
	</g>
	<g>
		<circle cx="683.04" cy="274.93" r="3.34"/>
		<circle class="st0" cx="683.04" cy="274.93" r="1.11"/>
	</g>
	<rect x="705.65" y="273.82" class="st0" width="22.61" height="2.23"/>
</g>
<g>
	<rect x="783.01" y="274.93" width="22.61" height="2.23"/>
	<rect x="760.4" y="272.71" width="22.61" height="2.23"/>
	<rect x="783.01" y="270.48" width="22.61" height="2.23"/>
	<g>
		<circle cx="805.62" cy="273.82" r="3.34"/>
		<circle class="st0" cx="805.62" cy="273.82" r="1.11"/>
	</g>
	<g>
		<circle cx="760.4" cy="273.82" r="3.34"/>
		<circle class="st0" cx="760.4" cy="273.82" r="1.11"/>
	</g>
	<rect x="783.01" y="272.71" class="st0" width="22.61" height="2.23"/>
</g>
<g>
	<rect x="696.14" y="352.29" width="6.47" height="0.74"/>
	<rect x="689.67" y="351.55" width="6.47" height="0.74"/>
	<rect x="696.14" y="350.81" width="6.47" height="0.74"/>
	<g>
		<circle cx="702.6" cy="351.92" r="1.11"/>
		<circle class="st0" cx="702.6" cy="351.92" r="0.37"/>
	</g>
	<g>
		<circle cx="689.67" cy="351.92" r="1.11"/>
		<circle class="st0" cx="689.67" cy="351.92" r="0.37"/>
	</g>
	<rect x="696.14" y="351.55" class="st0" width="6.47" height="0.74"/>
</g>
<g>
	<rect x="651.36" y="351.43" transform="matrix(-1.836970e-16 1 -1 -1.836970e-16 1006.1545 -302.5616)" width="6" height="0.74"/>
	<rect x="652.1" y="345.43" transform="matrix(-1.836970e-16 1 -1 -1.836970e-16 1000.8973 -309.3031)" width="6" height="0.74"/>
	<rect x="652.84" y="351.43" transform="matrix(-1.836970e-16 1 -1 -1.836970e-16 1007.6389 -304.046)" width="6" height="0.74"/>
	<g>
		<circle cx="655.1" cy="354.8" r="1.11"/>
		<circle class="st0" cx="655.1" cy="354.8" r="0.37"/>
	</g>
	<g>
		<circle cx="655.1" cy="342.8" r="1.11"/>
		<circle class="st0" cx="655.1" cy="342.8" r="0.37"/>
	</g>
	
		<rect x="652.1" y="351.43" transform="matrix(-1.836970e-16 1 -1 -1.836970e-16 1006.8967 -303.3037)" class="st0" width="6" height="0.74"/>
</g>
<rect x="666.56" y="350.81" width="5.44" height="2.23"/>
<rect x="663.17" y="340.81" width="6.06" height="2.23"/>
<g>
	<rect x="662.32" y="348.67" transform="matrix(-0.5489 0.8359 -0.8359 -0.5489 1322.2697 -15.5016)" width="6" height="0.74"/>
	<rect x="666.23" y="344.06" transform="matrix(-0.5489 0.8359 -0.8359 -0.5489 1324.4799 -25.9091)" width="6" height="0.74"/>
	<rect x="663.56" y="349.48" transform="matrix(-0.5489 0.8359 -0.8359 -0.5489 1324.8726 -15.2767)" width="6" height="0.74"/>
	<g>
		<circle cx="664.29" cy="351.96" r="1.11"/>
		<circle class="st0" cx="664.29" cy="351.96" r="0.37"/>
	</g>
	<g>
		<circle cx="670.88" cy="341.93" r="1.11"/>
		<circle class="st0" cx="670.88" cy="341.93" r="0.37"/>
	</g>
	
		<rect x="662.94" y="349.08" transform="matrix(-0.5489 0.8359 -0.8359 -0.5489 1323.571 -15.3892)" class="st0" width="6" height="0.74"/>
</g>
<rect x="593.47" y="343.17" width="26.67" height="1.26"/>
<rect x="566.8" y="344.43" width="26.67" height="1.26"/>
<rect x="593.47" y="345.68" width="26.67" height="1.26"/>
<g>
	<circle cx="620.15" cy="345.05" r="1.89"/>
	<circle class="st0" cx="620.15" cy="345.05" r="0.63"/>
</g>
<g>
	<circle cx="565.35" cy="345.05" r="1.89"/>
	<circle class="st0" cx="565.35" cy="345.05" r="0.63"/>
</g>
<rect x="593.47" y="344.43" class="st0" width="26.67" height="1.26"/>
<rect x="593.47" y="359.46" width="26.67" height="1.26"/>
<rect x="566.8" y="360.72" width="26.67" height="1.26"/>
<rect x="593.47" y="361.98" width="26.67" height="1.26"/>
<g>
	<circle cx="620.15" cy="361.35" r="1.89"/>
	<circle class="st0" cx="620.15" cy="361.35" r="0.63"/>
</g>
<g>
	<circle cx="563.94" cy="368.63" r="1.89"/>
	<circle class="st0" cx="563.94" cy="368.63" r="0.63"/>
</g>
<rect x="593.47" y="360.72" class="st0" width="26.67" height="1.26"/>
<text transform="matrix(1 0 0 1 500.4988 315.8628)" style="font-family:'TTNorms-Light'; font-size:18px;">Zasuń</text>
<rect x="564.09" y="359.46" transform="matrix(0.7071 -0.7071 0.7071 0.7071 -89.7407 506.0415)" width="3.77" height="3.77"/>
</svg>
