<svg width="548" height="548" viewBox="0 0 548 548" fill="none" xmlns="http://www.w3.org/2000/svg">
<path fill-rule="evenodd" clip-rule="evenodd" d="M280.464 93.6514C234.731 93.6514 195.804 109.739 163.597 141.946C131.544 173.999 115.532 212.773 115.532 258.353C115.532 296.282 124.06 328.791 141.05 355.944C155.919 379.614 176.327 398.208 202.307 411.73C228.413 425.238 259.201 432.02 294.717 432.02C311.768 432.02 328.668 430.117 345.417 426.311L345.421 426.31C372.526 420.219 396.4 409.872 417.066 395.285C437.007 381.209 453.119 363.959 465.414 343.529H431.811C417.925 363.056 399.721 378.481 377.228 389.804C354.607 401.269 328.238 406.975 298.165 406.975C277.782 406.975 258.162 403.887 239.311 397.706C225.083 393.067 212.08 386.722 200.309 378.668L200.302 378.663C188.675 370.602 178.522 360.836 169.846 349.371C161.146 337.875 154.406 324.381 149.61 308.911L149.606 308.898C144.962 293.416 142.647 276.564 142.647 258.353C142.647 218.893 156.125 185.259 183.07 157.541L183.073 157.537C210.316 129.675 242.804 115.708 280.464 115.708C303.179 115.708 323.034 119.958 339.986 128.511C361.382 139.21 378.297 154.726 390.704 175.04C403.29 195.244 409.547 219.59 409.547 248.009C409.547 268.708 406.148 287.297 399.319 303.751C391.792 322.03 382.478 332.035 371.036 332.035C363.912 332.035 358.516 330.134 355.354 325.918L355.333 325.89L355.313 325.861C352.456 321.659 351.146 315.395 351.146 307.317C351.146 306.9 351.277 305.632 351.501 303.697C351.731 301.698 352.077 298.857 352.537 295.178L352.538 295.17L370.008 166.523H343.107L338.459 193.678L336.405 191.591C317.317 172.201 296.536 162.615 274.028 162.615C259.526 162.615 246.588 165.558 235.179 171.412C219.34 179.71 206.433 191.855 196.453 207.883L196.449 207.889C186.504 223.711 181.507 242.2 181.507 263.411C181.507 276.416 183.699 288.407 188.065 299.4C192.601 310.436 198.564 320.013 205.945 328.147C222.373 346.234 242.433 355.241 266.212 355.241C286.614 355.241 305.729 347.153 323.588 330.808L324.989 329.525L325.912 331.186C330.422 339.303 335.715 345.39 341.761 349.521C347.879 353.597 355.987 355.701 366.209 355.701C375.366 355.701 383.41 353.975 390.376 350.567C405.321 343.243 416.822 330.443 424.831 312.007C432.857 293.532 436.891 272.21 436.891 248.009C436.891 220.349 430.738 195 418.447 171.935C405.545 147.803 387.572 128.77 364.513 114.813L364.506 114.81C341.494 100.73 313.504 93.6514 280.464 93.6514ZM161.476 139.825C194.248 107.053 233.939 90.6514 280.464 90.6514C313.934 90.6514 342.493 97.8248 366.069 112.249C389.596 126.489 407.942 145.922 421.093 170.522L421.094 170.524C433.63 194.048 439.891 219.885 439.891 248.009C439.891 272.542 435.801 294.284 427.583 313.202C419.347 332.159 407.4 345.565 391.696 353.261C384.256 356.901 375.748 358.701 366.209 358.701C355.592 358.701 346.845 356.516 340.09 352.012L340.083 352.008L340.076 352.003C333.986 347.844 328.71 341.914 324.222 334.276C306.303 350.2 286.956 358.241 266.212 358.241C241.563 358.241 220.704 348.858 203.724 330.164C196.089 321.75 189.945 311.866 185.287 300.531L185.283 300.523L185.28 300.515C180.759 289.135 178.507 276.762 178.507 263.411C178.507 241.712 183.625 222.656 193.907 206.296C204.155 189.838 217.452 177.311 233.793 168.751L233.804 168.745C245.688 162.647 259.107 159.615 274.028 159.615C296.673 159.615 317.501 168.955 336.483 187.438L340.577 163.523H373.443L355.514 295.55C355.513 295.552 355.513 295.555 355.513 295.558C355.054 299.23 354.71 302.057 354.481 304.041C354.366 305.034 354.281 305.811 354.225 306.375C354.197 306.657 354.176 306.88 354.163 307.047C354.156 307.131 354.152 307.197 354.149 307.246C354.148 307.265 354.147 307.28 354.147 307.291C354.146 307.311 354.146 307.317 354.146 307.317C354.146 315.156 355.434 320.683 357.775 324.145C360.134 327.268 364.387 329.035 371.036 329.035C380.437 329.035 389.053 320.803 396.545 302.608L396.547 302.604C403.202 286.57 406.547 268.38 406.547 248.009C406.547 220.034 400.391 196.261 388.153 176.62L388.146 176.609C376.034 156.774 359.541 141.642 338.642 131.193L338.637 131.191C322.181 122.887 302.805 118.708 280.464 118.708C243.644 118.708 211.92 132.326 185.219 159.634C158.833 186.779 145.647 219.656 145.647 258.353C145.647 276.307 147.928 292.862 152.478 308.029C157.183 323.206 163.775 336.377 172.238 347.56C180.725 358.775 190.647 368.317 202.006 376.194C213.528 384.077 226.271 390.299 240.241 394.854L240.243 394.855C258.785 400.934 278.09 403.975 298.165 403.975C327.858 403.975 353.747 398.342 375.875 387.126L375.879 387.124C398.198 375.889 416.164 360.57 429.807 341.166L430.255 340.529H470.652L469.341 342.783C456.664 364.582 439.811 382.902 418.796 397.735C397.779 412.571 373.534 423.067 346.082 429.236C329.116 433.092 311.994 435.02 294.717 435.02C258.817 435.02 227.538 428.163 200.927 414.393L200.924 414.392C174.492 400.635 153.676 381.683 138.509 357.539L138.507 357.537C121.169 329.826 112.532 296.743 112.532 258.353C112.532 211.982 128.857 172.444 161.476 139.825ZM229.833 214.016C241.707 197.923 256.3 189.729 273.568 189.729C280.943 189.729 287.944 190.985 294.558 193.504C304.633 197.283 312.837 203.512 319.138 212.173C325.64 220.741 328.859 231.106 328.859 243.181V248.6L323.072 281.473L323.04 281.571C318.68 295.117 311.812 306.375 302.416 315.301L302.407 315.31C292.896 324.187 280.79 328.587 266.212 328.587C257.709 328.587 250.163 326.696 243.621 322.868C237.639 319.404 232.37 314.919 227.816 309.424L227.808 309.414L227.8 309.404C223.387 303.887 219.863 297.294 217.21 289.649C214.547 281.972 213.219 273.836 213.219 265.25C213.219 246.39 218.759 229.301 229.826 214.026L229.833 214.016ZM232.251 215.792C221.558 230.553 216.219 247.024 216.219 265.25C216.219 273.521 217.497 281.323 220.044 288.665C222.6 296.033 225.969 302.31 230.135 307.519C234.468 312.747 239.464 316.994 245.125 320.272L245.131 320.275C251.155 323.801 258.165 325.587 266.212 325.587C280.136 325.587 291.475 321.407 300.354 313.122C309.324 304.599 315.93 293.823 320.153 280.749L325.859 248.337V243.181C325.859 231.662 322.799 221.954 316.74 213.974L316.73 213.962L316.721 213.95C310.765 205.759 303.035 199.887 293.5 196.311L293.493 196.309C287.235 193.924 280.597 192.729 273.568 192.729C257.428 192.729 243.671 200.318 232.251 215.792Z" fill="black"/>
<path d="M24.481 434.069H520.223V434.54H24.481V434.069Z" fill="#4A4A4A"/>
<path d="M112.99 484.443L112.99 40.9588L113.461 40.9588L113.461 484.443L112.99 484.443Z" fill="#4A4A4A"/>
<path d="M438.777 296.127L438.777 40.9586L439.247 40.9586L439.247 296.127L438.777 296.127Z" fill="#4A4A4A"/>
<path d="M468.907 484.443L468.907 341.323L469.378 341.323L469.378 484.443L468.907 484.443Z" fill="#4A4A4A"/>
<path d="M24.481 91.8037H520.223V92.2745H24.481V91.8037Z" fill="#4A4A4A"/>
<path d="M62.1443 160.539H520.223V161.01H62.1443V160.539Z" fill="#4A4A4A"/>
<path d="M62.1443 357.33H267.409V357.801H62.1443V357.33Z" fill="#4A4A4A"/>
<path d="M430.773 340.853H520.223V341.323H430.773V340.853Z" fill="#4A4A4A"/>
<path fill-rule="evenodd" clip-rule="evenodd" d="M316.372 286.472C316.989 283.352 317.313 280.126 317.313 276.825C317.313 273.523 316.989 270.297 316.372 267.177L314.41 267.565C315.002 270.558 315.313 273.654 315.313 276.825C315.313 279.995 315.002 283.091 314.41 286.084L316.372 286.472ZM308.987 304.29L307.325 303.178C303.861 308.351 299.406 312.806 294.233 316.269L295.346 317.931C300.736 314.322 305.378 309.681 308.987 304.29ZM277.527 325.317L277.139 323.355C274.146 323.947 271.05 324.258 267.88 324.258C264.709 324.258 261.614 323.947 258.62 323.355L258.232 325.317C261.353 325.934 264.578 326.258 267.88 326.258C271.181 326.258 274.407 325.934 277.527 325.317ZM240.414 317.931L241.527 316.269C236.353 312.806 231.899 308.351 228.435 303.178L226.773 304.29C230.382 309.681 235.023 314.322 240.414 317.931ZM219.388 286.472C218.77 283.352 218.447 280.126 218.447 276.825C218.447 273.523 218.77 270.297 219.388 267.177L221.35 267.565C220.758 270.558 220.447 273.654 220.447 276.825C220.447 279.995 220.758 283.091 221.35 286.084L219.388 286.472ZM226.773 249.359L228.435 250.471C231.899 245.298 236.353 240.843 241.527 237.38L240.414 235.718C235.023 239.327 230.382 243.968 226.773 249.359ZM258.232 228.333L258.62 230.294C261.614 229.702 264.709 229.392 267.88 229.392C271.05 229.392 274.146 229.702 277.139 230.294L277.527 228.333C274.407 227.715 271.181 227.392 267.88 227.392C264.578 227.392 261.353 227.715 258.232 228.333ZM295.346 235.718L294.233 237.38C299.406 240.843 303.861 245.298 307.325 250.471L308.987 249.359C305.378 243.968 300.736 239.327 295.346 235.718Z" fill="#4A4A4A"/>
<path fill-rule="evenodd" clip-rule="evenodd" d="M326.291 250.634L324.308 250.375C324.585 248.247 324.728 246.076 324.728 243.87C324.728 241.664 324.585 239.493 324.308 237.365L326.291 237.106C326.579 239.32 326.728 241.577 326.728 243.87C326.728 246.162 326.579 248.42 326.291 250.634ZM322.799 224.047L320.951 224.813C319.273 220.766 317.077 216.988 314.443 213.562L316.029 212.343C318.768 215.906 321.053 219.836 322.799 224.047ZM306.469 202.782L305.25 204.368C301.823 201.735 298.045 199.538 293.999 197.86L294.765 196.013C298.975 197.759 302.905 200.044 306.469 202.782ZM281.705 192.521L281.447 194.504C279.318 194.226 277.147 194.083 274.941 194.083C272.736 194.083 270.564 194.226 268.436 194.504L268.178 192.521C270.391 192.232 272.649 192.083 274.941 192.083C277.234 192.083 279.492 192.232 281.705 192.521ZM255.118 196.013L255.884 197.86C251.838 199.538 248.06 201.735 244.633 204.368L243.414 202.782C246.978 200.044 250.908 197.759 255.118 196.013ZM233.854 212.343L235.44 213.562C232.806 216.988 230.61 220.766 228.932 224.813L227.084 224.047C228.83 219.836 231.115 215.906 233.854 212.343ZM223.592 237.106C223.303 239.32 223.155 241.577 223.155 243.87C223.155 246.162 223.303 248.42 223.592 250.634L225.575 250.375C225.298 248.247 225.155 246.076 225.155 243.87C225.155 241.664 225.298 239.493 225.575 237.365L223.592 237.106ZM227.084 263.693L228.932 262.927C230.61 266.974 232.806 270.752 235.44 274.178L233.854 275.397C231.115 271.833 228.83 267.904 227.084 263.693ZM243.414 284.958L244.633 283.372C248.06 286.005 251.838 288.202 255.884 289.88L255.118 291.727C250.908 289.981 246.978 287.696 243.414 284.958ZM268.178 295.219L268.436 293.236C270.564 293.514 272.736 293.657 274.941 293.657C277.147 293.657 279.318 293.514 281.447 293.236L281.705 295.219C279.492 295.508 277.234 295.657 274.941 295.657C272.649 295.657 270.391 295.508 268.178 295.219ZM294.765 291.727L293.999 289.88C298.045 288.202 301.823 286.005 305.25 283.372L306.469 284.958C302.905 287.696 298.975 289.981 294.765 291.727ZM316.029 275.397L314.443 274.178C317.077 270.752 319.273 266.974 320.951 262.927L322.799 263.693C321.053 267.904 318.768 271.833 316.029 275.397Z" fill="#4A4A4A"/>
<path fill-rule="evenodd" clip-rule="evenodd" d="M82.0416 347.801L76.2681 357.801L70.4946 347.801H75.2681L75.2681 171.01H70.4946L76.2681 161.01L82.0416 171.01H77.2681L77.2681 347.801H82.0416Z" fill="#4A4A4A"/>
<path fill-rule="evenodd" clip-rule="evenodd" d="M512.815 423.598L507.041 433.598L501.268 423.598H506.041V351.323H501.268L507.041 341.323L512.815 351.323H508.041V423.598H512.815Z" fill="#4A4A4A"/>
<path fill-rule="evenodd" clip-rule="evenodd" d="M512.815 151.01L507.041 161.01L501.268 151.01L506.041 151.01L506.041 101.804L501.268 101.804L507.041 91.8036L512.815 101.804L508.041 101.804L508.041 151.01L512.815 151.01Z" fill="#4A4A4A"/>
<path fill-rule="evenodd" clip-rule="evenodd" d="M123.931 477.977L113.931 472.203L123.931 466.43L123.931 471.203L458.907 471.203L458.907 466.43L468.907 472.203L458.907 477.977L458.907 473.203L123.931 473.203L123.931 477.977Z" fill="#4A4A4A"/>
<path fill-rule="evenodd" clip-rule="evenodd" d="M123.931 59.9142L113.931 54.1407L123.931 48.3672V53.1407H429.248V48.3672L439.248 54.1407L429.248 59.9142V55.1407H123.931V59.9142Z" fill="#4A4A4A"/>
<path fill-rule="evenodd" clip-rule="evenodd" d="M44.3783 423.598L38.6048 433.598L32.8313 423.598L37.6048 423.598L37.6048 102.275L32.8313 102.275L38.6048 92.2747L44.3783 102.275L39.6048 102.275L39.6048 423.598L44.3783 423.598Z" fill="#4A4A4A"/>
<path fill-rule="evenodd" clip-rule="evenodd" d="M291.007 539.941L291.007 548L289.007 548L289.007 539.941L291.007 539.941ZM291.007 507.706L291.007 523.824L289.007 523.824L289.007 507.706L291.007 507.706ZM291.007 475.471L291.007 491.588L289.007 491.588L289.007 475.471L291.007 475.471ZM291.007 443.235L291.007 459.353L289.007 459.353L289.007 443.235L291.007 443.235ZM291.007 411L291.007 427.118L289.007 427.118L289.007 411L291.007 411ZM291.007 378.765L291.007 394.882L289.007 394.882L289.007 378.765L291.007 378.765ZM291.007 346.529L291.007 362.647L289.007 362.647L289.007 346.529L291.007 346.529ZM291.007 314.294L291.007 330.412L289.007 330.412L289.007 314.294L291.007 314.294ZM291.007 282.059L291.007 298.176L289.007 298.176L289.007 282.059L291.007 282.059ZM291.007 249.824L291.007 265.941L289.007 265.941L289.007 249.824L291.007 249.824ZM291.007 217.588L291.007 233.706L289.007 233.706L289.007 217.588L291.007 217.588ZM291.007 185.353L291.007 201.471L289.007 201.471L289.007 185.353L291.007 185.353ZM291.007 153.118L291.007 169.235L289.007 169.235L289.007 153.118L291.007 153.118ZM291.007 120.882L291.007 137L289.007 137L289.007 120.882L291.007 120.882ZM291.007 88.6471L291.007 104.765L289.007 104.765L289.007 88.6471L291.007 88.6471ZM291.007 56.4118L291.007 72.5294L289.007 72.5294L289.007 56.4118L291.007 56.4118ZM291.007 24.1765L291.007 40.2942L289.007 40.2942L289.007 24.1765L291.007 24.1765ZM291.007 8.74228e-08L291.007 8.05884L289.007 8.05884L289.007 0L291.007 8.74228e-08Z" fill="#4A4A4A"/>
<path fill-rule="evenodd" clip-rule="evenodd" d="M291.007 539.941L291.007 548L289.007 548L289.007 539.941L291.007 539.941ZM291.007 507.706L291.007 523.824L289.007 523.824L289.007 507.706L291.007 507.706ZM291.007 475.471L291.007 491.588L289.007 491.588L289.007 475.471L291.007 475.471ZM291.007 443.235L291.007 459.353L289.007 459.353L289.007 443.235L291.007 443.235ZM291.007 411L291.007 427.118L289.007 427.118L289.007 411L291.007 411ZM291.007 378.765L291.007 394.882L289.007 394.882L289.007 378.765L291.007 378.765ZM291.007 346.529L291.007 362.647L289.007 362.647L289.007 346.529L291.007 346.529ZM291.007 314.294L291.007 330.412L289.007 330.412L289.007 314.294L291.007 314.294ZM291.007 282.059L291.007 298.176L289.007 298.176L289.007 282.059L291.007 282.059ZM291.007 249.824L291.007 265.941L289.007 265.941L289.007 249.824L291.007 249.824ZM291.007 217.588L291.007 233.706L289.007 233.706L289.007 217.588L291.007 217.588ZM291.007 185.353L291.007 201.471L289.007 201.471L289.007 185.353L291.007 185.353ZM291.007 153.118L291.007 169.235L289.007 169.235L289.007 153.118L291.007 153.118ZM291.007 120.882L291.007 137L289.007 137L289.007 120.882L291.007 120.882ZM291.007 88.6471L291.007 104.765L289.007 104.765L289.007 88.6471L291.007 88.6471ZM291.007 56.4118L291.007 72.5294L289.007 72.5294L289.007 56.4118L291.007 56.4118ZM291.007 24.1765L291.007 40.2942L289.007 40.2942L289.007 24.1765L291.007 24.1765ZM291.007 8.74228e-08L291.007 8.05884L289.007 8.05884L289.007 0L291.007 8.74228e-08Z" fill="#898989"/>
<path fill-rule="evenodd" clip-rule="evenodd" d="M8.05882 264.172H0L0 262.172H8.05882V264.172ZM40.2941 264.172H24.1765V262.172H40.2941V264.172ZM72.5294 264.172H56.4118V262.172H72.5294V264.172ZM104.765 264.172H88.6471V262.172H104.765V264.172ZM137 264.172H120.882V262.172H137V264.172ZM169.235 264.172H153.118V262.172H169.235V264.172ZM201.471 264.172H185.353V262.172H201.471V264.172ZM233.706 264.172H217.588V262.172H233.706V264.172ZM265.941 264.172H249.824V262.172H265.941V264.172ZM298.176 264.172H282.059V262.172H298.176V264.172ZM330.412 264.172H314.294V262.172H330.412V264.172ZM362.647 264.172H346.529V262.172H362.647V264.172ZM394.882 264.172H378.765V262.172H394.882V264.172ZM427.118 264.172H411V262.172H427.118V264.172ZM459.353 264.172H443.235V262.172H459.353V264.172ZM491.588 264.172H475.471V262.172H491.588V264.172ZM523.823 264.172H507.706V262.172H523.823V264.172ZM548 264.172H539.941V262.172H548V264.172Z" fill="#898989"/>
</svg>
