<svg width="548" height="548" viewBox="0 0 548 548" fill="none" xmlns="http://www.w3.org/2000/svg">
<path d="M274.028 161.115C297.015 161.115 318.164 170.923 337.474 190.539L341.842 165.023H371.726L354.025 295.364C353.106 302.72 352.646 306.704 352.646 307.317C352.646 315.286 353.949 321.187 356.554 325.018C359.312 328.696 364.14 330.535 371.036 330.535C381.457 330.535 390.423 321.416 397.932 303.179C404.675 286.935 408.047 268.545 408.047 248.009C408.047 219.81 401.84 195.75 389.426 175.827C377.166 155.751 360.462 140.426 339.313 129.851C322.609 121.423 302.992 117.208 280.464 117.208C243.224 117.208 211.118 131.001 184.145 158.586C157.479 186.018 144.147 219.274 144.147 258.353C144.147 276.437 146.445 293.141 151.043 308.467C155.794 323.792 162.46 337.125 171.042 348.465C179.624 359.806 189.662 369.461 201.156 377.43C212.803 385.399 225.677 391.683 239.776 396.28C258.473 402.41 277.936 405.475 298.165 405.475C328.049 405.475 354.178 399.805 376.553 388.464C399.081 377.124 417.242 361.645 431.034 342.029H468.045C455.478 363.637 438.774 381.798 417.931 396.51C397.089 411.222 373.028 421.643 345.75 427.773C328.892 431.605 311.881 433.52 294.717 433.52C259.009 433.52 227.975 426.701 201.616 413.061C175.41 399.422 154.798 380.648 139.779 356.741C122.615 329.309 114.032 296.513 114.032 258.353C114.032 212.378 130.201 173.222 162.537 140.886C195.026 108.396 234.335 92.1514 280.464 92.1514C313.72 92.1514 341.995 99.2776 365.289 113.53C388.584 127.629 406.744 146.862 419.77 171.229C432.184 194.524 438.39 220.117 438.39 248.009C438.39 272.376 434.329 293.908 426.207 312.604C418.085 331.301 406.361 344.404 391.036 351.914C383.833 355.438 375.557 357.201 366.209 357.201C355.788 357.201 347.359 355.055 340.922 350.764C334.639 346.473 329.198 340.19 324.601 331.914C306.517 348.465 287.054 356.741 266.212 356.741C241.998 356.741 221.539 347.546 204.834 329.156C197.325 320.88 191.272 311.149 186.674 299.961C182.23 288.774 180.007 276.59 180.007 263.411C180.007 241.955 185.065 223.182 195.179 207.09C205.294 190.846 218.397 178.509 234.489 170.08C246.136 164.103 259.315 161.115 274.028 161.115ZM321.612 281.111L327.359 248.468V243.181C327.359 231.381 324.218 221.343 317.934 213.067C311.804 204.638 303.835 198.585 294.027 194.907C287.59 192.455 280.771 191.229 273.568 191.229C256.863 191.229 242.688 199.121 231.04 214.906C220.16 229.925 214.719 246.706 214.719 265.25C214.719 273.678 216.022 281.648 218.627 289.157C221.232 296.666 224.68 303.103 228.972 308.467C233.416 313.831 238.55 318.198 244.373 321.57C250.657 325.248 257.936 327.087 266.212 327.087C280.464 327.087 292.188 322.796 301.383 314.214C310.578 305.478 317.321 294.444 321.612 281.111Z" stroke="black" stroke-width="3"/>
<rect x="24.481" y="434.069" width="495.742" height="0.47079" fill="#898989"/>
<rect x="112.99" y="484.443" width="443.485" height="0.470825" transform="rotate(-90 112.99 484.443)" fill="#898989"/>
<rect x="438.777" y="296.127" width="255.168" height="0.47081" transform="rotate(-90 438.777 296.127)" fill="#898989"/>
<rect x="468.907" y="484.443" width="143.12" height="0.470803" transform="rotate(-90 468.907 484.443)" fill="#898989"/>
<rect x="24.481" y="91.8037" width="495.742" height="0.47079" fill="#898989"/>
<rect x="62.1443" y="160.539" width="458.079" height="0.47079" fill="#898989"/>
<rect x="62.1443" y="357.33" width="205.265" height="0.47079" fill="#898989"/>
<rect x="430.773" y="340.853" width="89.4502" height="0.47079" fill="#898989"/>
<circle cx="267.88" cy="276.825" r="48.433" stroke="#898989" stroke-width="2" stroke-dasharray="16 16"/>
<circle cx="274.941" cy="243.87" r="50.7869" stroke="#898989" stroke-width="2" stroke-dasharray="16 16"/>
<path d="M76.2681 357.801L82.0416 347.801H70.4946L76.2681 357.801ZM76.2681 161.01L70.4946 171.01H82.0416L76.2681 161.01ZM77.2681 348.801L77.2681 170.01H75.2681L75.2681 348.801H77.2681Z" fill="#898989"/>
<path d="M507.041 433.598L512.815 423.598H501.268L507.041 433.598ZM507.041 341.323L501.268 351.323H512.815L507.041 341.323ZM508.041 424.598V350.323H506.041V424.598H508.041Z" fill="#898989"/>
<path d="M507.041 161.01L512.815 151.01L501.268 151.01L507.041 161.01ZM507.041 91.8036L501.268 101.804L512.815 101.804L507.041 91.8036ZM508.041 152.01L508.041 100.804L506.041 100.804L506.041 152.01L508.041 152.01Z" fill="#898989"/>
<path d="M113.931 472.203L123.931 477.977L123.931 466.43L113.931 472.203ZM468.907 472.203L458.907 466.43L458.907 477.977L468.907 472.203ZM122.931 473.203L459.907 473.203L459.907 471.203L122.931 471.203L122.931 473.203Z" fill="#898989"/>
<path d="M113.931 54.1406L123.931 59.9141V48.3671L113.931 54.1406ZM439.248 54.1406L429.248 48.3671V59.9141L439.248 54.1406ZM122.931 55.1406H430.248V53.1406H122.931V55.1406Z" fill="#898989"/>
<path d="M38.6047 433.598L44.3782 423.598L32.8312 423.598L38.6047 433.598ZM38.6048 92.2747L32.8312 102.275L44.3783 102.275L38.6048 92.2747ZM39.6047 424.598L39.6048 101.275L37.6048 101.275L37.6047 424.598L39.6047 424.598Z" fill="#898989"/>
<path d="M290.007 548L290.007 -1.90735e-06" stroke="#898989" stroke-dasharray="16 16"/>
<path d="M290.007 548L290.007 -1.90735e-06" stroke="#898989" stroke-dasharray="16 16"/>
<path d="M0 263.172L548 263.172" stroke="#898989" stroke-dasharray="16 16"/>
</svg>
