<svg width="1427" height="608" viewBox="0 0 1427 608" fill="none" xmlns="http://www.w3.org/2000/svg">
<path d="M224 526L224 543" stroke="#898989" stroke-width="2"/>
<path d="M303 510L303 557" stroke="#898989" stroke-width="2"/>
<rect width="112" height="0.999987" transform="matrix(1 -1.1365e-07 -6.72483e-08 -1 273 510)" fill="#898989"/>
<rect width="163" height="0.999987" transform="matrix(1 -1.1365e-07 -6.72483e-08 -1 194 526)" fill="#898989"/>
<rect width="130" height="0.999985" transform="matrix(1 -1.1365e-07 -6.72483e-08 -1 273 558)" fill="#898989"/>
<rect width="163" height="0.999987" transform="matrix(1 -1.1365e-07 -6.72483e-08 -1 194 544)" fill="#898989"/>
<path d="M303 509L297.226 499L308.774 499L303 509ZM304 459L304 500L302 500L302 459L304 459Z" fill="#898989"/>
<path d="M224 525L218.226 515L229.774 515L224 525ZM225 475L225 516L223 516L223 475L225 475Z" fill="#898989"/>
<path d="M303 558L308.774 568L297.226 568L303 558ZM304 567L304 608L302 608L302 567L304 567Z" fill="#898989"/>
<path d="M224 544L229.774 554L218.226 554L224 544ZM225 553L225 594L223 594L223 553L225 553Z" fill="#898989"/>
<rect x="1212" y="408" width="145" height="0.999994" transform="rotate(90 1212 408)" fill="#898989"/>
<rect x="1246" y="408" width="169" height="0.999993" transform="rotate(90 1246 408)" fill="#898989"/>
<path d="M1211 438L1201 432.226V443.774L1211 438ZM1161 439H1202V437H1161V439Z" fill="#898989"/>
<path d="M1246 438L1256 443.774V432.226L1246 438ZM1255 439H1296V437H1255V439Z" fill="#898989"/>
<path d="M1212 438H1245" stroke="#898989" stroke-width="2"/>
<rect x="377" y="408" width="169" height="0.999993" transform="rotate(90 377 408)" fill="#898989"/>
<rect x="411" y="408" width="169" height="0.999993" transform="rotate(90 411 408)" fill="#898989"/>
<path d="M376 438L366 432.226V443.774L376 438ZM326 439H367V437H326V439Z" fill="#898989"/>
<path d="M411 438L421 443.774V432.226L411 438ZM420 439H461V437H420V439Z" fill="#898989"/>
<path d="M377 438H410" stroke="#898989" stroke-width="2"/>
<rect x="1348" y="509" width="112" height="0.999987" transform="rotate(-180 1348 509)" fill="#898989"/>
<rect x="1427" y="525" width="163" height="0.999987" transform="rotate(-180 1427 525)" fill="#898989"/>
<rect x="1348" y="557" width="130" height="0.999985" transform="rotate(-180 1348 557)" fill="#898989"/>
<rect x="1427" y="543" width="163" height="0.999987" transform="rotate(-180 1427 543)" fill="#898989"/>
<path d="M1318 508L1323.77 498L1312.23 498L1318 508ZM1317 458L1317 499L1319 499L1319 458L1317 458Z" fill="#898989"/>
<path d="M1397 524L1402.77 514L1391.23 514L1397 524ZM1396 474L1396 515L1398 515L1398 474L1396 474Z" fill="#898989"/>
<path d="M1397 525L1397 542" stroke="#898989" stroke-width="2"/>
<path d="M1318 557L1312.23 567L1323.77 567L1318 557ZM1317 566L1317 607L1319 607L1319 566L1317 566Z" fill="#898989"/>
<path d="M1318 509L1318 556" stroke="#898989" stroke-width="2"/>
<path d="M1397 543L1391.23 553L1402.77 553L1397 543ZM1396 552L1396 593L1398 593L1398 552L1396 552Z" fill="#898989"/>
<rect x="1348" y="509" width="112" height="0.999987" transform="rotate(-180 1348 509)" fill="#898989"/>
<rect x="1427" y="525" width="163" height="0.999987" transform="rotate(-180 1427 525)" fill="#898989"/>
<rect x="1348" y="557" width="130" height="0.999985" transform="rotate(-180 1348 557)" fill="#898989"/>
<rect x="1427" y="543" width="163" height="0.999987" transform="rotate(-180 1427 543)" fill="#898989"/>
<path d="M1318 508L1323.77 498L1312.23 498L1318 508ZM1317 458L1317 499L1319 499L1319 458L1317 458Z" fill="#898989"/>
<path d="M1397 524L1402.77 514L1391.23 514L1397 524ZM1396 474L1396 515L1398 515L1398 474L1396 474Z" fill="#898989"/>
<path d="M1318 557L1312.23 567L1323.77 567L1318 557ZM1317 566L1317 607L1319 607L1319 566L1317 566Z" fill="#898989"/>
<path d="M1397 543L1391.23 553L1402.77 553L1397 543ZM1396 552L1396 593L1398 593L1398 552L1396 552Z" fill="#898989"/>
<rect width="242" height="0.999989" transform="matrix(-4.37114e-08 -1 -1 4.37114e-08 377 242)" fill="#898989"/>
<rect width="242" height="0.999989" transform="matrix(-4.37114e-08 -1 -1 4.37114e-08 1245 242)" fill="#898989"/>
<path d="M377 28L387 22.2265V33.7735L377 28ZM1245 28L1235 33.7735V22.2265L1245 28ZM386 27H1236V29H386V27Z" fill="#898989"/>
<circle cx="377" cy="196" r="9.5" stroke="black" stroke-width="3"/>
<path d="M448.815 497.654C448.916 497.573 448.987 497.526 449.031 497.5H449.054H449.142H449.246H449.367H449.505H449.659H449.829H450.016H450.219H450.439H450.674H450.926H451.194H451.478H451.777H452.093H452.424H452.771H453.133H453.511H453.905H454.314H454.739H455.178H455.633H456.103H456.589H457.089H457.604H458.134H458.68H459.239H459.814H460.403H461.007H461.625H462.258H462.905H463.566H464.241H464.931H465.635H466.353H467.085H467.831H468.59H469.364H470.151H470.951H471.766H472.594H473.435H474.29H475.157H476.039H476.933H477.841H478.761H479.695H480.641H481.6H482.572H483.557H484.554H485.564H486.587H487.622H488.669H489.729H490.8H491.884H492.981H494.089H495.209H496.341H497.485H498.641H499.808H500.987H502.178H503.38H504.593H505.818H507.055H508.302H509.561H510.831H512.111H513.403H514.706H516.02H517.344H518.679H520.025H521.381H522.748H524.125H525.513H526.911H528.319H529.737H531.166H532.605H534.053H535.512H536.98H538.458H539.946H541.443H542.95H544.467H545.993H547.528H549.073H550.627H552.19H553.762H555.343H556.934H558.533H560.141H561.758H563.383H565.018H566.66H568.312H569.971H571.64H573.316H575.001H576.694H578.395H580.104H581.821H583.546H585.278H587.019H588.767H590.523H592.287H594.058H595.837H597.622H599.416H601.216H603.024H604.839H606.66H608.489H610.325H612.168H614.017H615.873H617.736H619.605H621.481H623.364H625.252H627.147H629.049H630.956H632.87H634.789H636.715H638.647H640.584H642.527H644.476H646.431H648.391H650.357H652.328H654.304H656.286H658.274H660.266H662.263H664.266H666.273H668.286H670.303H672.325H674.352H676.383H678.419H680.46H682.505H684.554H686.608H688.666H690.728H692.795H694.865H696.94H699.018H701.1H703.186H705.276H707.369H709.466H711.566H713.67H715.778H717.888H720.002H722.119H724.24H726.363H728.489H730.618H732.75H734.885H737.023H739.163H741.306H743.451H745.599H747.749H749.902H752.057H754.214H756.373H758.534H760.697H762.863H765.03H767.198H769.369H771.541H773.715H775.89H778.067H780.245H782.425H784.606H786.788H788.971H791.155H793.34H795.526H797.713H799.901H802.089H804.279H806.468H808.659H810.849H813.041H815.232H817.424H819.616H821.808H824H826.192H828.384H830.576H832.768H834.959H837.151H839.341H841.532H843.721H845.911H848.099H850.287H852.474H854.66H856.845H859.029H861.212H863.394H865.575H867.755H869.933H872.11H874.285H876.459H878.631H880.802H882.97H885.137H887.303H889.466H891.627H893.786H895.943H898.098H900.251H902.401H904.549H906.694H908.837H910.977H913.115H915.25H917.382H919.511H921.637H923.76H925.881H927.998H930.112H932.222H934.33H936.434H938.534H940.631H942.724H944.814H946.9H948.982H951.06H953.135H955.205H957.272H959.334H961.392H963.446H965.495H967.54H969.581H971.617H973.648H975.675H977.697H979.714H981.727H983.734H985.737H987.734H989.727H991.714H993.695H995.672H997.643H999.609H1001.57H1003.52H1005.47H1007.42H1009.35H1011.28H1013.21H1015.13H1017.04H1018.95H1020.85H1022.75H1024.64H1026.52H1028.39H1030.26H1032.13H1033.98H1035.83H1037.67H1039.51H1041.34H1043.16H1044.98H1046.78H1048.58H1050.38H1052.16H1053.94H1055.71H1057.48H1059.23H1060.98H1062.72H1064.45H1066.18H1067.9H1069.61H1071.31H1073H1074.68H1076.36H1078.03H1079.69H1081.34H1082.98H1084.62H1086.24H1087.86H1089.47H1091.07H1092.66H1094.24H1095.81H1097.37H1098.93H1100.47H1102.01H1103.53H1105.05H1106.56H1108.05H1109.54H1111.02H1112.49H1113.95H1115.4H1116.83H1118.26H1119.68H1121.09H1122.49H1123.87H1125.25H1126.62H1127.98H1129.32H1130.66H1131.98H1133.29H1134.6H1135.89H1137.17H1138.44H1139.7H1140.95H1142.18H1143.41H1144.62H1145.82H1147.01H1148.19H1149.36H1150.52H1151.66H1152.79H1153.91H1155.02H1156.12H1157.2H1158.27H1159.33H1160.38H1161.41H1162.44H1163.45H1164.44H1165.43H1166.4H1167.36H1168.31H1169.24H1170.16H1171.07H1171.96H1172.84H1173.71H1174.57H1175.41H1176.23H1177.05H1177.85H1178.64H1179.41H1180.17H1180.92H1181.65H1182.36H1183.07H1183.76H1184.43H1185.1H1185.74H1186.38H1186.99H1187.6H1188.19H1188.76H1189.32H1189.87H1190.4H1190.91H1191.41H1191.9H1192.37H1192.82H1193.26H1193.69H1194.09H1194.49H1194.87H1195.23H1195.58H1195.91H1196.22H1196.52H1196.81H1197.07H1197.33H1197.56H1197.78H1197.98H1198.17H1198.34H1198.5H1198.63H1198.75H1198.86H1198.95H1198.97C1199.01 497.526 1199.08 497.573 1199.18 497.654C1199.47 497.881 1199.86 498.277 1200.32 498.886C1201.23 500.098 1202.34 502.029 1203.41 504.785C1205.55 510.287 1207.5 518.972 1207.5 531.5C1207.5 544.028 1205.55 552.713 1203.41 558.215C1202.34 560.971 1201.23 562.902 1200.32 564.114C1199.86 564.723 1199.47 565.119 1199.18 565.346C1199.08 565.427 1199.01 565.474 1198.97 565.5H1198.95H1198.86H1198.75H1198.63H1198.5H1198.34H1198.17H1197.98H1197.78H1197.56H1197.33H1197.07H1196.81H1196.52H1196.22H1195.91H1195.58H1195.23H1194.87H1194.49H1194.09H1193.69H1193.26H1192.82H1192.37H1191.9H1191.41H1190.91H1190.4H1189.87H1189.32H1188.76H1188.19H1187.6H1186.99H1186.38H1185.74H1185.1H1184.43H1183.76H1183.07H1182.36H1181.65H1180.92H1180.17H1179.41H1178.64H1177.85H1177.05H1176.23H1175.41H1174.57H1173.71H1172.84H1171.96H1171.07H1170.16H1169.24H1168.31H1167.36H1166.4H1165.43H1164.44H1163.45H1162.44H1161.41H1160.38H1159.33H1158.27H1157.2H1156.12H1155.02H1153.91H1152.79H1151.66H1150.52H1149.36H1148.19H1147.01H1145.82H1144.62H1143.41H1142.18H1140.95H1139.7H1138.44H1137.17H1135.89H1134.6H1133.29H1131.98H1130.66H1129.32H1127.98H1126.62H1125.25H1123.87H1122.49H1121.09H1119.68H1118.26H1116.83H1115.4H1113.95H1112.49H1111.02H1109.54H1108.05H1106.56H1105.05H1103.53H1102.01H1100.47H1098.93H1097.37H1095.81H1094.24H1092.66H1091.07H1089.47H1087.86H1086.24H1084.62H1082.98H1081.34H1079.69H1078.03H1076.36H1074.68H1073H1071.31H1069.61H1067.9H1066.18H1064.45H1062.72H1060.98H1059.23H1057.48H1055.71H1053.94H1052.16H1050.38H1048.58H1046.78H1044.98H1043.16H1041.34H1039.51H1037.67H1035.83H1033.98H1032.13H1030.26H1028.39H1026.52H1024.64H1022.75H1020.85H1018.95H1017.04H1015.13H1013.21H1011.28H1009.35H1007.42H1005.47H1003.52H1001.57H999.609H997.643H995.672H993.695H991.714H989.727H987.734H985.737H983.734H981.727H979.714H977.697H975.675H973.648H971.617H969.581H967.54H965.495H963.446H961.392H959.334H957.272H955.205H953.135H951.06H948.982H946.9H944.814H942.724H940.631H938.534H936.434H934.33H932.222H930.112H927.998H925.881H923.76H921.637H919.511H917.382H915.25H913.115H910.977H908.837H906.694H904.549H902.401H900.251H898.098H895.943H893.786H891.627H889.466H887.303H885.137H882.97H880.802H878.631H876.459H874.285H872.11H869.933H867.755H865.575H863.394H861.212H859.029H856.845H854.66H852.474H850.287H848.099H845.911H843.721H841.532H839.341H837.151H834.959H832.768H830.576H828.384H826.192H824H821.808H819.616H817.424H815.232H813.041H810.849H808.659H806.468H804.279H802.089H799.901H797.713H795.526H793.34H791.155H788.971H786.788H784.606H782.425H780.245H778.067H775.89H773.715H771.541H769.369H767.198H765.03H762.863H760.697H758.534H756.373H754.214H752.057H749.902H747.749H745.599H743.451H741.306H739.163H737.023H734.885H732.75H730.618H728.489H726.363H724.24H722.119H720.002H717.888H715.778H713.67H711.566H709.466H707.369H705.276H703.186H701.1H699.018H696.94H694.865H692.795H690.728H688.666H686.608H684.554H682.505H680.46H678.419H676.383H674.352H672.325H670.303H668.286H666.273H664.266H662.263H660.266H658.274H656.286H654.304H652.328H650.357H648.391H646.431H644.476H642.527H640.584H638.647H636.715H634.789H632.87H630.956H629.049H627.147H625.252H623.364H621.481H619.605H617.736H615.873H614.017H612.168H610.325H608.489H606.66H604.839H603.024H601.216H599.416H597.622H595.837H594.058H592.287H590.523H588.767H587.019H585.278H583.546H581.821H580.104H578.395H576.694H575.001H573.316H571.64H569.971H568.312H566.66H565.018H563.383H561.758H560.141H558.533H556.934H555.343H553.762H552.19H550.627H549.073H547.528H545.993H544.467H542.95H541.443H539.946H538.458H536.98H535.512H534.053H532.605H531.166H529.737H528.319H526.911H525.513H524.125H522.748H521.381H520.025H518.679H517.344H516.02H514.706H513.403H512.111H510.831H509.561H508.302H507.055H505.818H504.593H503.38H502.178H500.987H499.808H498.641H497.485H496.341H495.209H494.089H492.981H491.884H490.8H489.729H488.669H487.622H486.587H485.564H484.554H483.557H482.572H481.6H480.641H479.695H478.761H477.841H476.933H476.039H475.157H474.29H473.435H472.594H471.766H470.951H470.151H469.364H468.59H467.831H467.085H466.353H465.635H464.931H464.241H463.566H462.905H462.258H461.625H461.007H460.403H459.814H459.239H458.68H458.134H457.604H457.089H456.589H456.103H455.633H455.178H454.739H454.314H453.905H453.511H453.133H452.771H452.424H452.093H451.777H451.478H451.194H450.926H450.674H450.439H450.219H450.016H449.829H449.659H449.505H449.367H449.246H449.142H449.054H449.031C448.987 565.474 448.916 565.427 448.815 565.346C448.533 565.119 448.145 564.723 447.684 564.114C446.767 562.902 445.658 560.971 444.586 558.215C442.446 552.713 440.5 544.028 440.5 531.5C440.5 518.972 442.446 510.287 444.586 504.785C445.658 502.029 446.767 500.098 447.684 498.886C448.145 498.277 448.533 497.881 448.815 497.654Z" stroke="black" stroke-width="3"/>
<rect x="454.5" y="489.5" width="3" height="86" stroke="black" stroke-width="3"/>
<rect x="454.5" y="129.5" width="3" height="111" stroke="black" stroke-width="3"/>
<rect x="1182.5" y="489.5" width="7" height="86" stroke="black" stroke-width="3"/>
<rect x="1182.5" y="129.5" width="7" height="111" stroke="black" stroke-width="3"/>
<path d="M1247.81 542.9V555.722H1208.97H1207.74L1207.5 556.929L1203.8 575.5H446.167L433.698 561.178H434.194V503.822H433.698L446.167 489.5H1203.8L1207.5 508.071L1207.74 509.278H1208.97H1247.81V524.078H1210.94H1209.44V525.578V541.4V542.9H1210.94H1247.81ZM431.194 505.322V559.678H424.355V505.322H431.194ZM421.355 505.322V559.678H418.741L415.25 554.415L414.805 553.744H414H363.355V542.9H408.097H408.72L409.16 542.458L411.128 540.48L411.565 540.041V539.422V525.578V524.959L411.128 524.52L409.16 522.542L408.72 522.1H408.097H363.355V511.256H414H414.805L415.25 510.585L418.741 505.322H421.355ZM360.355 542.9V553.744H359.419V542.9H360.355ZM356.419 542.9V551.753L354.5 548.859V542.9H356.419ZM360.355 511.256V522.1H359.419V511.256H360.355ZM356.419 513.247V522.1H354.5V516.141L356.419 513.247ZM1250.81 555.722V542.9H1266.5V552.648L1263.44 555.722H1250.81ZM1266.5 512.352V524.078H1250.81V509.278H1263.44L1266.5 512.352Z" stroke="black" stroke-width="3"/>
<rect x="1218" y="559" width="4" height="20" fill="#D9D9D9"/>
<rect x="1218" y="488" width="4" height="20" fill="#D9D9D9"/>
<path d="M439.113 159.914V159.448V149.621C439.113 145.237 440.642 140.9 442.624 137.211C444.428 133.851 446.559 131.12 448.086 129.5H1148.95H1201.1C1201.61 129.5 1202.08 129.638 1202.55 129.924V159.914H444.5H439.113ZM446 162.914H1202.55V226.637L1198.51 230.672H446V162.914ZM1205.55 223.64V162.914H1207.47V221.723L1205.55 223.64ZM1200.63 232.794L1202.55 230.877V240.5H1200.63V232.794ZM1205.55 240.5V227.88L1210.03 223.406L1210.47 222.967V222.345V166.778L1210.62 166.811L1255.88 176.638L1255.97 176.659L1256.06 176.666L1256.06 176.667L1256.06 176.667C1256.07 176.668 1256.09 176.67 1256.12 176.674C1256.18 176.682 1256.27 176.697 1256.4 176.723C1256.66 176.776 1257.05 176.872 1257.53 177.044C1258.48 177.388 1259.78 178.031 1261.08 179.227C1263.66 181.582 1266.5 186.3 1266.5 195.81C1266.5 205.32 1263.66 210.038 1261.08 212.394C1259.78 213.59 1258.48 214.233 1257.53 214.577C1257.05 214.749 1256.66 214.845 1256.4 214.897C1256.27 214.924 1256.18 214.939 1256.12 214.947C1256.09 214.951 1256.07 214.953 1256.06 214.954L1256.06 214.954L1256.06 214.954L1255.97 214.962L1255.88 214.982L1210.62 224.81L1209.44 225.067V226.276V239.413L1208.35 240.5H1205.55ZM1197.63 233.672V240.5H440.507L439.113 237.715V233.672H439.581H444.5H1197.63ZM439.113 229.585V162.914H443V230.672H440.201L439.113 229.585ZM436.113 165.139V226.588L433.21 223.689V168.16L436.113 165.139ZM1205.55 159.914V134.365C1205.78 134.966 1205.99 135.606 1206.18 136.277C1206.94 138.918 1207.34 141.748 1207.47 143.772V154.017V155.517V159.914H1205.55ZM1210.46 143.63C1210.36 141.911 1210.07 139.656 1209.56 137.362H1217.31V137.828V139.328V152.052V153.552V154.017H1210.47V143.724V143.677L1210.46 143.63ZM1220.31 152.052V139.328H1227.28C1227.41 139.433 1227.64 139.64 1227.89 140.012C1228.42 140.808 1229.11 142.46 1229.11 145.69C1229.11 148.919 1228.42 150.572 1227.89 151.368C1227.64 151.739 1227.41 151.946 1227.28 152.052H1220.31ZM1227.12 152.155L1227.12 152.154C1227.11 152.156 1227.11 152.156 1227.12 152.155ZM430.21 169.056V222.81H424.355V169.056H430.21ZM421.355 198.568V222.81H411.565V222.345V220.845H410.065H359.705L356.468 215.994V213.034H415.968C416.869 213.034 417.617 212.446 418.128 211.86C418.697 211.207 419.239 210.264 419.712 208.982C420.515 206.803 421.175 203.494 421.355 198.568ZM356.028 209.49L354.5 207.964V183.562L355.993 182.164L356.468 181.719V181.586H415.726C415.762 181.619 415.809 181.666 415.867 181.732C416.128 182.032 416.509 182.624 416.897 183.676C417.674 185.782 418.403 189.517 418.403 195.81C418.403 202.103 417.674 205.839 416.897 207.944C416.509 208.997 416.128 209.589 415.867 209.888C415.809 209.955 415.762 210.002 415.726 210.034H356.468V209.93L356.028 209.49ZM415.968 178.586H356.468V175.627L359.705 170.776H410.065H411.565V169.276V169.056H421.355V193.053C421.175 188.126 420.515 184.817 419.712 182.638C419.239 181.357 418.697 180.413 418.128 179.761C417.617 179.175 416.869 178.586 415.968 178.586ZM415.643 181.521C415.643 181.52 415.647 181.523 415.655 181.528C415.647 181.524 415.642 181.521 415.643 181.521ZM415.643 210.1C415.642 210.1 415.647 210.097 415.655 210.092C415.647 210.098 415.643 210.1 415.643 210.1Z" stroke="black" stroke-width="3"/>
<circle cx="1245" cy="196" r="9.5" stroke="black" stroke-width="3"/>
<line x1="258.076" y1="532.849" x2="1362.16" y2="534.813" stroke="#898989" stroke-width="3" stroke-dasharray="16 16"/>
<line x1="258.076" y1="195.343" x2="1362.16" y2="197.308" stroke="#898989" stroke-width="3" stroke-dasharray="16 16"/>
<rect x="1" y="222" width="145" height="0.999994" transform="rotate(90 1 222)" fill="#898989"/>
<rect x="114" y="222" width="145" height="0.999994" transform="rotate(90 114 222)" fill="#898989"/>
<rect x="194" y="391" width="145" height="0.999994" transform="rotate(-180 194 391)" fill="#898989"/>
<rect x="194" y="303" width="145" height="0.999994" transform="rotate(-180 194 303)" fill="#898989"/>
<path d="M0.997803 251.509L10.9978 257.282V245.735L0.997803 251.509ZM113.002 251.509L103.002 245.735V257.282L113.002 251.509ZM9.9978 252.509H104.002V250.509H9.9978V252.509Z" fill="#898989"/>
<path d="M164 303L158.226 313L169.774 313L164 303ZM164 390L169.774 380L158.227 380L164 390ZM163 312L163 381L165 381L165 312L163 312Z" fill="#898989"/>
<path d="M75.3638 320.438L75.0457 320.278H74.6897H67.8103H25.5517H19.1686L34.0872 303.5H96.3103C99.5222 303.5 103.064 305.99 105.918 309.819C108.739 313.603 110.534 318.24 110.534 321.778V327.711V329.211H112.034H112.5V365.767H112.034H110.534V367.267V373.2C110.534 376.707 108.764 380.825 105.979 384.094C103.182 387.377 99.631 389.5 96.3103 389.5H34.0631L20.172 374.7H25.5517H67.8103H74.6897H75.0457L75.3638 374.54L79.2949 372.562L80.1207 372.147V371.222V323.756V322.831L79.2949 322.416L75.3638 320.438ZM30.0728 303.5L15.1541 320.278H13.7586H12.2586V321.778V323.534L1.5 335.633V329.211H1.96552H3.46552V327.711V312.413L10.5513 303.5H30.0728ZM1.5 340.148L12.2586 328.049V366.269L1.5 354.806V340.148ZM1.5 359.19L12.2586 370.652V373.2V374.7H13.7586H16.0576L29.9487 389.5H10.4516L3.46552 382.47V367.267V365.767H1.96552H1.5V359.19ZM17.3562 371.7L15.2586 369.465V324.675L16.501 323.278H24.0517V371.7H17.3562ZM66.3103 371.7H27.0517V323.278H66.3103V371.7ZM69.3103 371.7V323.278H74.3336L77.1207 324.68V370.298L74.3336 371.7H69.3103Z" stroke="black" stroke-width="3"/>
<rect x="23.5" y="339.5" width="48" height="18" stroke="black" stroke-width="3"/>
<circle cx="97.5" cy="340.5" r="9" fill="white" stroke="black" stroke-width="3"/>
<path d="M100.5 378C100.5 383.313 96.4056 387.5 91.5 387.5C86.5944 387.5 82.5 383.313 82.5 378C82.5 372.687 86.5944 368.5 91.5 368.5C96.4056 368.5 100.5 372.687 100.5 378Z" fill="white" stroke="black" stroke-width="3"/>
<path d="M83.5 348.5C83.5 353.406 79.3132 357.5 74 357.5C68.6868 357.5 64.5 353.406 64.5 348.5C64.5 343.594 68.6868 339.5 74 339.5C79.3132 339.5 83.5 343.594 83.5 348.5Z" fill="white" stroke="black" stroke-width="3"/>
<path d="M28.5 348.5C28.5 353.406 24.3132 357.5 19 357.5C13.6868 357.5 9.5 353.406 9.5 348.5C9.5 343.594 13.6868 339.5 19 339.5C24.3132 339.5 28.5 343.594 28.5 348.5Z" fill="white" stroke="black" stroke-width="3"/>
<path d="M100.5 315C100.5 320.313 96.4056 324.5 91.5 324.5C86.5944 324.5 82.5 320.313 82.5 315C82.5 309.687 86.5944 305.5 91.5 305.5C96.4056 305.5 100.5 309.687 100.5 315Z" fill="white" stroke="black" stroke-width="3"/>
<circle cx="15" cy="315" r="9.5" fill="white" stroke="black" stroke-width="3"/>
<circle cx="15" cy="378" r="9.5" fill="white" stroke="black" stroke-width="3"/>
</svg>
