<svg width="1233" height="607" viewBox="0 0 1233 607" fill="none" xmlns="http://www.w3.org/2000/svg">
<path fill-rule="evenodd" clip-rule="evenodd" d="M31 543L31 523L29 523L29 543L31 543Z" fill="#4A4A4A"/>
<path fill-rule="evenodd" clip-rule="evenodd" d="M110 555L110 510L108 510L108 555L110 555Z" fill="#4A4A4A"/>
<path fill-rule="evenodd" clip-rule="evenodd" d="M79 511L79 510L163 510L163 511L79 511Z" fill="#4A4A4A"/>
<path fill-rule="evenodd" clip-rule="evenodd" d="M0 524L-6.72474e-08 523L163 523L163 524L0 524Z" fill="#4A4A4A"/>
<path fill-rule="evenodd" clip-rule="evenodd" d="M79 555L79 554L163 554L163 555L79 555Z" fill="#4A4A4A"/>
<path fill-rule="evenodd" clip-rule="evenodd" d="M0 543L-6.72474e-08 542L163 542L163 543L0 543Z" fill="#4A4A4A"/>
<path fill-rule="evenodd" clip-rule="evenodd" d="M103.227 500L109 510L114.774 500L110 500L110 460L108 460L108 500L103.227 500Z" fill="#4A4A4A"/>
<path fill-rule="evenodd" clip-rule="evenodd" d="M24.2265 513L30 523L35.7735 513L31 513L31 473L29 473L29 513L24.2265 513Z" fill="#4A4A4A"/>
<path fill-rule="evenodd" clip-rule="evenodd" d="M114.774 565L109 555L103.227 565L108 565L108 605L110 605L110 565L114.774 565Z" fill="#4A4A4A"/>
<path fill-rule="evenodd" clip-rule="evenodd" d="M35.7735 553L30 543L24.2265 553L29 553L29 593L31 593L31 553L35.7735 553Z" fill="#4A4A4A"/>
<path d="M1018 408L1018 553L1017 553L1017 408L1018 408Z" fill="#4A4A4A"/>
<path fill-rule="evenodd" clip-rule="evenodd" d="M1018 408L1017 408L1017 553L1018 553L1018 408Z" fill="#4A4A4A"/>
<path d="M1052 408L1052 577L1051 577L1051 408L1052 408Z" fill="#4A4A4A"/>
<path fill-rule="evenodd" clip-rule="evenodd" d="M1052 408L1051 408L1051 577L1052 577L1052 408Z" fill="#4A4A4A"/>
<path fill-rule="evenodd" clip-rule="evenodd" d="M1007 432.227L1017 438L1007 443.774V439H967V437H1007V432.227Z" fill="#4A4A4A"/>
<path fill-rule="evenodd" clip-rule="evenodd" d="M1062 443.774L1052 438L1062 432.227V437H1102V439H1062V443.774Z" fill="#4A4A4A"/>
<path fill-rule="evenodd" clip-rule="evenodd" d="M1051 439H1018V437H1051V439Z" fill="#4A4A4A"/>
<path d="M183 408L183 577L182 577L182 408L183 408Z" fill="#898989"/>
<path fill-rule="evenodd" clip-rule="evenodd" d="M183 408L182 408L182 577L183 577L183 408Z" fill="#4A4A4A"/>
<path d="M217 408L217 577L216 577L216 408L217 408Z" fill="#898989"/>
<path fill-rule="evenodd" clip-rule="evenodd" d="M217 408L216 408L216 577L217 577L217 408Z" fill="#4A4A4A"/>
<path fill-rule="evenodd" clip-rule="evenodd" d="M172 432.227L182 438L172 443.774V439H132V437H172V432.227Z" fill="#4A4A4A"/>
<path fill-rule="evenodd" clip-rule="evenodd" d="M227 443.774L217 438L227 432.227V437H267V439H227V443.774Z" fill="#4A4A4A"/>
<path fill-rule="evenodd" clip-rule="evenodd" d="M216 439H183V437H216V439Z" fill="#4A4A4A"/>
<path d="M1154 509L1042 509L1042 508L1154 508L1154 509Z" fill="#4A4A4A"/>
<path fill-rule="evenodd" clip-rule="evenodd" d="M1154 509L1154 508L1042 508L1042 509L1154 509Z" fill="#4A4A4A"/>
<path d="M1233 525L1070 525L1070 524L1233 524L1233 525Z" fill="#4A4A4A"/>
<path fill-rule="evenodd" clip-rule="evenodd" d="M1233 525L1233 524L1070 524L1070 525L1233 525Z" fill="#4A4A4A"/>
<path d="M1154 557L1024 557L1024 556L1154 556L1154 557Z" fill="#4A4A4A"/>
<path fill-rule="evenodd" clip-rule="evenodd" d="M1154 557L1154 556L1024 556L1024 557L1154 557Z" fill="#4A4A4A"/>
<path d="M1233 543L1070 543L1070 542L1233 542L1233 543Z" fill="#4A4A4A"/>
<path fill-rule="evenodd" clip-rule="evenodd" d="M1233 543L1233 542L1070 542L1070 543L1233 543Z" fill="#4A4A4A"/>
<path fill-rule="evenodd" clip-rule="evenodd" d="M1129.77 498L1124 508L1118.23 498L1123 498L1123 458L1125 458L1125 498L1129.77 498Z" fill="#4A4A4A"/>
<path fill-rule="evenodd" clip-rule="evenodd" d="M1208.77 514L1203 524L1197.23 514L1202 514L1202 474L1204 474L1204 514L1208.77 514Z" fill="#4A4A4A"/>
<path fill-rule="evenodd" clip-rule="evenodd" d="M1202 542L1202 525L1204 525L1204 542L1202 542Z" fill="#4A4A4A"/>
<path fill-rule="evenodd" clip-rule="evenodd" d="M1118.23 567L1124 557L1129.77 567L1125 567L1125 607L1123 607L1123 567L1118.23 567Z" fill="#4A4A4A"/>
<path fill-rule="evenodd" clip-rule="evenodd" d="M1123 556L1123 509L1125 509L1125 556L1123 556Z" fill="#4A4A4A"/>
<path fill-rule="evenodd" clip-rule="evenodd" d="M1197.23 553L1203 543L1208.77 553L1204 553L1204 593L1202 593L1202 553L1197.23 553Z" fill="#4A4A4A"/>
<path d="M1154 509L1042 509L1042 508L1154 508L1154 509Z" fill="#4A4A4A"/>
<path fill-rule="evenodd" clip-rule="evenodd" d="M1154 509L1154 508L1042 508L1042 509L1154 509Z" fill="#4A4A4A"/>
<path d="M1233 525L1070 525L1070 524L1233 524L1233 525Z" fill="#4A4A4A"/>
<path fill-rule="evenodd" clip-rule="evenodd" d="M1233 525L1233 524L1070 524L1070 525L1233 525Z" fill="#4A4A4A"/>
<path d="M1154 557L1024 557L1024 556L1154 556L1154 557Z" fill="#4A4A4A"/>
<path fill-rule="evenodd" clip-rule="evenodd" d="M1154 557L1154 556L1024 556L1024 557L1154 557Z" fill="#4A4A4A"/>
<path d="M1233 543L1070 543L1070 542L1233 542L1233 543Z" fill="#4A4A4A"/>
<path fill-rule="evenodd" clip-rule="evenodd" d="M1233 543L1233 542L1070 542L1070 543L1233 543Z" fill="#4A4A4A"/>
<path fill-rule="evenodd" clip-rule="evenodd" d="M1129.77 498L1124 508L1118.23 498L1123 498L1123 458L1125 458L1125 498L1129.77 498Z" fill="#4A4A4A"/>
<path fill-rule="evenodd" clip-rule="evenodd" d="M1208.77 514L1203 524L1197.23 514L1202 514L1202 474L1204 474L1204 514L1208.77 514Z" fill="#4A4A4A"/>
<path fill-rule="evenodd" clip-rule="evenodd" d="M1118.23 567L1124 557L1129.77 567L1125 567L1125 607L1123 607L1123 567L1118.23 567Z" fill="#4A4A4A"/>
<path fill-rule="evenodd" clip-rule="evenodd" d="M1197.23 553L1203 543L1208.77 553L1204 553L1204 593L1202 593L1202 553L1197.23 553Z" fill="#4A4A4A"/>
<path d="M183 242L183 0L182 4.37109e-08L182 242L183 242Z" fill="#4A4A4A"/>
<path d="M1051 242L1051 0L1050 4.37109e-08L1050 242L1051 242Z" fill="#4A4A4A"/>
<path fill-rule="evenodd" clip-rule="evenodd" d="M193 22.2264L183 27.9999L193 33.7734V28.9999H1041V33.7734L1051 27.9999L1041 22.2264V26.9999H193V22.2264Z" fill="#4A4A4A"/>
<path fill-rule="evenodd" clip-rule="evenodd" d="M183 204C187.418 204 191 200.418 191 196C191 191.582 187.418 188 183 188C178.582 188 175 191.582 175 196C175 200.418 178.582 204 183 204ZM183 207C189.075 207 194 202.075 194 196C194 189.925 189.075 185 183 185C176.925 185 172 189.925 172 196C172 202.075 176.925 207 183 207Z" fill="black"/>
<path fill-rule="evenodd" clip-rule="evenodd" d="M255.559 499C255.391 499.166 255.16 499.421 254.88 499.791C254.066 500.868 253.018 502.67 251.984 505.328C249.924 510.627 248 519.123 248 531.5C248 543.877 249.924 552.373 251.984 557.672C253.018 560.33 254.066 562.132 254.88 563.209C255.16 563.579 255.391 563.834 255.559 564H1004.44C1004.61 563.834 1004.84 563.579 1005.12 563.209C1005.93 562.132 1006.98 560.33 1008.02 557.672C1010.08 552.373 1012 543.877 1012 531.5C1012 519.123 1010.08 510.627 1008.02 505.328C1006.98 502.67 1005.93 500.868 1005.12 499.791C1004.84 499.421 1004.61 499.166 1004.44 499H255.559ZM1004.14 498.751C1004.14 498.749 1004.16 498.76 1004.2 498.79C1004.16 498.768 1004.14 498.753 1004.14 498.751ZM1004.14 564.249C1004.14 564.247 1004.16 564.232 1004.2 564.21C1004.16 564.24 1004.14 564.251 1004.14 564.249ZM255.857 564.249C255.857 564.251 255.838 564.24 255.797 564.21C255.836 564.232 255.857 564.247 255.857 564.249ZM255.797 498.79C255.838 498.76 255.857 498.749 255.857 498.751C255.857 498.753 255.836 498.768 255.797 498.79ZM1005.13 496H254.872C252.877 496 245 506.143 245 531.5C245 556.857 252.877 567 254.872 567H1005.13C1007.12 567 1015 556.857 1015 531.5C1015 506.143 1007.12 496 1005.13 496Z" fill="black"/>
<path fill-rule="evenodd" clip-rule="evenodd" d="M262 488H259V577H262V488Z" fill="black"/>
<path fill-rule="evenodd" clip-rule="evenodd" d="M262 128H259V242H262V128Z" fill="black"/>
<path fill-rule="evenodd" clip-rule="evenodd" d="M994 491H990V574H994V491ZM987 488V577H997V488H987Z" fill="black"/>
<path fill-rule="evenodd" clip-rule="evenodd" d="M994 131H990V239H994V131ZM987 128V242H997V128H987Z" fill="black"/>
<path fill-rule="evenodd" clip-rule="evenodd" d="M1053.81 554.222V544.4H1013.94V522.578H1053.81V510.778H1012.51L1008.57 491H252.85L240.194 505.538V559.462L252.85 574H1008.57L1012.51 554.222H1053.81ZM1014.97 557.222L1011.03 577H251.484L237.71 561.178H223.935L220 555.244H162.935L159 549.311V541.4H214.097L216.065 539.422V525.578L214.097 523.6H159V515.689L162.935 509.756H220L223.935 503.822H237.71L251.484 488H1011.03L1014.97 507.778H1070.06L1074 511.733V525.578H1016.94V541.4H1074V553.267L1070.06 557.222H1014.97ZM1068.82 554.222H1056.81V544.4H1071V552.028L1068.82 554.222ZM1056.81 522.578H1071V512.972L1068.82 510.778H1056.81V522.578ZM237.194 506.822V558.178H230.355V506.822H237.194ZM227.355 506.822V558.178H225.546L221.61 552.244H169.355V544.4H215.344L219.065 540.66V524.34L215.344 520.6H169.355V512.756H221.61L225.546 506.822H227.355ZM166.355 512.756H165.419V520.6H166.355V512.756ZM162.419 520.6V515.961L162 516.593V520.6H162.419ZM166.355 544.4V552.244H165.419V544.4H166.355ZM162.419 544.4H162V548.407L162.419 549.039V544.4Z" fill="black"/>
<path d="M1024 559H1028V579H1024V559Z" fill="#4A4A4A"/>
<path d="M1024 488H1028V508H1024V488Z" fill="#4A4A4A"/>
<path fill-rule="evenodd" clip-rule="evenodd" d="M243.613 161.414L237.71 167.556H216.065V169.276H164.903L160.968 175.172V181.069L159 182.912V208.586L160.968 210.552V216.448L164.903 222.345H216.065V224.31H237.71L243.613 230.207V238.069L245.581 242H1014.97L1016.94 240.034V226.276L1062.19 216.448C1062.19 216.448 1074 215.466 1074 195.81C1074 176.155 1062.19 175.172 1062.19 175.172L1016.94 165.345L1014.97 161.414V155.517H1024.81V153.552H1033.66C1033.66 153.552 1036.61 152.569 1036.61 145.69C1036.61 138.81 1033.66 137.828 1033.66 137.828H1024.81V135.862H1013.62C1013.11 134.064 1012.42 132.34 1011.55 130.967C1011.1 130.265 1010.6 129.655 1010.05 129.174C1009.2 128.436 1008.22 128 1007.1 128H253.452C250.172 131.276 243.613 140.186 243.613 149.621V161.414ZM254.745 131C253.348 132.565 251.519 134.99 249.945 137.92C248.032 141.482 246.613 145.571 246.613 149.621V159.914H1008.55V131.925C1008.39 131.737 1008.24 131.574 1008.08 131.438C1007.67 131.084 1007.37 131 1007.1 131H254.745ZM1011.55 138.862V159.914H1011.97V152.517H1013.47V143.772C1013.38 142.402 1013.17 140.662 1012.81 138.862H1011.55ZM1015.86 138.862C1016.19 140.62 1016.38 142.289 1016.46 143.63L1016.47 143.677V152.517H1021.81V150.552H1023.31V140.828H1021.81V138.862H1015.86ZM1026.31 140.828V150.552H1032.63C1032.63 150.546 1032.64 150.541 1032.64 150.535C1032.97 150.049 1033.61 148.709 1033.61 145.69C1033.61 142.67 1032.97 141.331 1032.64 140.844C1032.64 140.839 1032.63 140.833 1032.63 140.828H1026.31ZM1012.36 162.914H1011.55V223.64L1013.47 221.723V165.119L1012.36 162.914ZM1016.47 168.313V222.967L1016.03 223.402L1061.75 213.475L1061.9 213.463L1061.91 213.461C1061.94 213.457 1062.01 213.447 1062.11 213.427C1062.3 213.388 1062.62 213.31 1063.02 213.166C1063.82 212.878 1064.93 212.328 1066.07 211.287C1068.26 209.279 1071 205.003 1071 195.81C1071 186.618 1068.26 182.342 1066.07 180.333C1064.93 179.293 1063.82 178.743 1063.02 178.455C1062.62 178.311 1062.3 178.233 1062.11 178.194C1062.01 178.174 1061.94 178.164 1061.91 178.16C1061.9 178.158 1061.89 178.157 1061.9 178.158L1061.75 178.146L1016.47 168.313ZM1013.94 225.496L1011.55 227.88V239H1013.73L1013.94 238.791V225.496ZM1008.55 239V230.877L1006.63 232.794V239H1008.55ZM1003.63 239V233.672H246.613V237.36L247.434 239H1003.63ZM246.613 230.672H249V162.914H246.332L245.113 164.182V227.465L246.613 228.963V230.672ZM242.113 224.468V167.304L239.21 170.325V221.568L242.113 224.468ZM236.21 221.31V170.556H230.355V221.31H236.21ZM227.355 221.31V198.568C227.175 203.494 226.515 206.803 225.712 208.982C225.239 210.264 224.697 211.207 224.128 211.86C223.617 212.446 222.869 213.034 221.968 213.034H163.968V215.539L166.508 219.345H219.065V221.31H227.355ZM163.968 210.034H221.726C221.762 210.002 221.809 209.955 221.867 209.888C222.128 209.589 222.509 208.997 222.897 207.944C223.674 205.839 224.403 202.103 224.403 195.81C224.403 189.517 223.674 185.782 222.897 183.676C222.509 182.624 222.128 182.032 221.867 181.732C221.809 181.666 221.762 181.619 221.726 181.586H163.968V182.37L162 184.212V207.343L163.968 209.308V210.034ZM163.968 178.586H221.968C222.869 178.586 223.617 179.175 224.128 179.761C224.697 180.413 225.239 181.357 225.712 182.638C226.515 184.817 227.175 188.126 227.355 193.053V170.556H219.065V172.276H166.508L163.968 176.082V178.586ZM221.643 181.521C221.643 181.52 221.647 181.523 221.655 181.528C221.647 181.524 221.642 181.521 221.643 181.521ZM221.643 210.1C221.642 210.1 221.647 210.097 221.655 210.092C221.647 210.098 221.643 210.1 221.643 210.1ZM252 162.914V230.672H1004.51L1008.55 226.637V162.914H252Z" fill="black"/>
<path fill-rule="evenodd" clip-rule="evenodd" d="M1051 204C1055.42 204 1059 200.418 1059 196C1059 191.582 1055.42 188 1051 188C1046.58 188 1043 191.582 1043 196C1043 200.418 1046.58 204 1051 204ZM1051 207C1057.08 207 1062 202.075 1062 196C1062 189.925 1057.08 185 1051 185C1044.92 185 1040 189.925 1040 196C1040 202.075 1044.92 207 1051 207Z" fill="black"/>
<path fill-rule="evenodd" clip-rule="evenodd" d="M71.9599 534.363L64.0736 534.349L64.0789 531.349L71.9652 531.363L71.9599 534.363ZM103.505 534.419L87.7325 534.391L87.7378 531.391L103.51 531.419L103.505 534.419ZM135.05 534.475L119.278 534.447L119.283 531.447L135.055 531.475L135.05 534.475ZM166.595 534.531L150.823 534.503L150.828 531.503L166.601 531.531L166.595 534.531ZM198.14 534.587L182.368 534.559L182.373 531.559L198.146 531.587L198.14 534.587ZM229.685 534.643L213.913 534.615L213.918 531.615L229.691 531.643L229.685 534.643ZM261.231 534.699L245.458 534.671L245.463 531.671L261.236 531.699L261.231 534.699ZM292.776 534.756L277.003 534.728L277.008 531.728L292.781 531.756L292.776 534.756ZM324.321 534.812L308.548 534.784L308.554 531.784L324.326 531.812L324.321 534.812ZM355.866 534.868L340.093 534.84L340.099 531.84L355.871 531.868L355.866 534.868ZM387.411 534.924L371.639 534.896L371.644 531.896L387.416 531.924L387.411 534.924ZM418.956 534.98L403.184 534.952L403.189 531.952L418.962 531.98L418.956 534.98ZM450.501 535.036L434.729 535.008L434.734 532.008L450.507 532.036L450.501 535.036ZM482.046 535.092L466.274 535.064L466.279 532.064L482.052 532.092L482.046 535.092ZM513.592 535.148L497.819 535.12L497.824 532.12L513.597 532.148L513.592 535.148ZM545.137 535.205L529.364 535.177L529.369 532.177L545.142 532.205L545.137 535.205ZM576.682 535.261L560.909 535.233L560.915 532.233L576.687 532.261L576.682 535.261ZM608.227 535.317L592.454 535.289L592.46 532.289L608.232 532.317L608.227 535.317ZM639.772 535.373L623.999 535.345L624.005 532.345L639.777 532.373L639.772 535.373ZM671.317 535.429L655.545 535.401L655.55 532.401L671.322 532.429L671.317 535.429ZM702.862 535.485L687.09 535.457L687.095 532.457L702.868 532.485L702.862 535.485ZM734.407 535.541L718.635 535.513L718.64 532.513L734.413 532.541L734.407 535.541ZM765.952 535.598L750.18 535.569L750.185 532.569L765.958 532.598L765.952 535.598ZM797.498 535.654L781.725 535.626L781.73 532.626L797.503 532.654L797.498 535.654ZM829.043 535.71L813.27 535.682L813.275 532.682L829.048 532.71L829.043 535.71ZM860.588 535.766L844.815 535.738L844.821 532.738L860.593 532.766L860.588 535.766ZM892.133 535.822L876.36 535.794L876.366 532.794L892.138 532.822L892.133 535.822ZM923.678 535.878L907.906 535.85L907.911 532.85L923.683 532.878L923.678 535.878ZM955.223 535.934L939.451 535.906L939.456 532.906L955.228 532.934L955.223 535.934ZM986.768 535.99L970.996 535.962L971.001 532.962L986.774 532.99L986.768 535.99ZM1018.31 536.047L1002.54 536.018L1002.55 533.019L1018.32 533.047L1018.31 536.047ZM1049.86 536.103L1034.09 536.075L1034.09 533.075L1049.86 533.103L1049.86 536.103ZM1081.4 536.159L1065.63 536.131L1065.64 533.131L1081.41 533.159L1081.4 536.159ZM1112.95 536.215L1097.18 536.187L1097.18 533.187L1112.95 533.215L1112.95 536.215ZM1144.49 536.271L1128.72 536.243L1128.73 533.243L1144.5 533.271L1144.49 536.271ZM1168.15 536.313L1160.27 536.299L1160.27 533.299L1168.16 533.313L1168.15 536.313Z" fill="#898989"/>
<path fill-rule="evenodd" clip-rule="evenodd" d="M71.9599 196.857L64.0736 196.843L64.0789 193.843L71.9652 193.857L71.9599 196.857ZM103.505 196.913L87.7325 196.885L87.7378 193.885L103.51 193.913L103.505 196.913ZM135.05 196.969L119.278 196.941L119.283 193.941L135.055 193.969L135.05 196.969ZM166.595 197.025L150.823 196.997L150.828 193.997L166.601 194.025L166.595 197.025ZM198.14 197.082L182.368 197.054L182.373 194.054L198.146 194.082L198.14 197.082ZM229.685 197.138L213.913 197.11L213.918 194.11L229.691 194.138L229.685 197.138ZM261.231 197.194L245.458 197.166L245.463 194.166L261.236 194.194L261.231 197.194ZM292.776 197.25L277.003 197.222L277.008 194.222L292.781 194.25L292.776 197.25ZM324.321 197.306L308.548 197.278L308.554 194.278L324.326 194.306L324.321 197.306ZM355.866 197.362L340.093 197.334L340.099 194.334L355.871 194.362L355.866 197.362ZM387.411 197.418L371.639 197.39L371.644 194.39L387.416 194.418L387.411 197.418ZM418.956 197.474L403.184 197.446L403.189 194.446L418.962 194.474L418.956 197.474ZM450.501 197.531L434.729 197.503L434.734 194.503L450.507 194.531L450.501 197.531ZM482.046 197.587L466.274 197.559L466.279 194.559L482.052 194.587L482.046 197.587ZM513.592 197.643L497.819 197.615L497.824 194.615L513.597 194.643L513.592 197.643ZM545.137 197.699L529.364 197.671L529.369 194.671L545.142 194.699L545.137 197.699ZM576.682 197.755L560.909 197.727L560.915 194.727L576.687 194.755L576.682 197.755ZM608.227 197.811L592.454 197.783L592.46 194.783L608.232 194.811L608.227 197.811ZM639.772 197.867L623.999 197.839L624.005 194.839L639.777 194.867L639.772 197.867ZM671.317 197.924L655.545 197.895L655.55 194.895L671.322 194.924L671.317 197.924ZM702.862 197.98L687.09 197.952L687.095 194.952L702.868 194.98L702.862 197.98ZM734.407 198.036L718.635 198.008L718.64 195.008L734.413 195.036L734.407 198.036ZM765.952 198.092L750.18 198.064L750.185 195.064L765.958 195.092L765.952 198.092ZM797.498 198.148L781.725 198.12L781.73 195.12L797.503 195.148L797.498 198.148ZM829.043 198.204L813.27 198.176L813.275 195.176L829.048 195.204L829.043 198.204ZM860.588 198.26L844.815 198.232L844.821 195.232L860.593 195.26L860.588 198.26ZM892.133 198.316L876.36 198.288L876.366 195.288L892.138 195.316L892.133 198.316ZM923.678 198.373L907.906 198.344L907.911 195.344L923.683 195.373L923.678 198.373ZM955.223 198.429L939.451 198.401L939.456 195.401L955.228 195.429L955.223 198.429ZM986.768 198.485L970.996 198.457L971.001 195.457L986.774 195.485L986.768 198.485ZM1018.31 198.541L1002.54 198.513L1002.55 195.513L1018.32 195.541L1018.31 198.541ZM1049.86 198.597L1034.09 198.569L1034.09 195.569L1049.86 195.597L1049.86 198.597ZM1081.4 198.653L1065.63 198.625L1065.64 195.625L1081.41 195.653L1081.4 198.653ZM1112.95 198.709L1097.18 198.681L1097.18 195.681L1112.95 195.709L1112.95 198.709ZM1144.49 198.765L1128.72 198.737L1128.73 195.737L1144.5 195.765L1144.49 198.765ZM1168.15 198.808L1160.27 198.794L1160.27 195.794L1168.16 195.808L1168.15 198.808Z" fill="#898989"/>
</svg>
