<?xml version="1.0" encoding="utf-8"?>
<!-- Generator: Adobe Illustrator 27.2.0, SVG Export Plug-In . SVG Version: 6.00 Build 0)  -->
<svg version="1.1" id="Warstwa_1" xmlns="http://www.w3.org/2000/svg" xmlns:xlink="http://www.w3.org/1999/xlink" x="0px" y="0px"
	 viewBox="0 0 34.3 8.03" style="enable-background:new 0 0 34.3 8.03;" xml:space="preserve">
<style type="text/css">
	.st0{fill:#FFFFFF;}
</style>
<g>
	<g>
		<path d="M0,7.88v-0.6l4.39-6.44H0.38V0h5.24v0.6l-4.4,6.43h4.46v0.85H0z"/>
		<path d="M9.37,8.03c-0.36,0-0.69-0.07-1-0.2C8.07,7.7,7.83,7.51,7.66,7.26C7.48,7.01,7.39,6.72,7.39,6.37
			c0-0.66,0.33-1.15,0.98-1.49c0.66-0.34,1.74-0.57,3.24-0.69c-0.01-0.26-0.06-0.51-0.16-0.73c-0.1-0.22-0.26-0.4-0.49-0.53
			s-0.52-0.2-0.9-0.2c-0.25,0-0.49,0.03-0.74,0.1c-0.24,0.07-0.48,0.16-0.7,0.26S8.21,3.31,8.03,3.42L7.64,2.75
			c0.19-0.13,0.43-0.26,0.7-0.39c0.28-0.13,0.57-0.24,0.89-0.32s0.65-0.13,1-0.13c0.54,0,0.98,0.1,1.33,0.3s0.61,0.48,0.78,0.83
			c0.17,0.36,0.26,0.78,0.26,1.27v3.58h-0.8l-0.08-0.79h-0.04C11.36,7.35,11,7.57,10.6,7.75C10.2,7.94,9.79,8.03,9.37,8.03z
			 M9.64,7.24c0.34,0,0.67-0.08,1-0.23s0.66-0.36,0.98-0.64V4.84c-0.83,0.07-1.49,0.17-1.96,0.3S8.84,5.43,8.65,5.62
			c-0.2,0.2-0.29,0.42-0.29,0.68c0,0.22,0.06,0.39,0.18,0.53c0.12,0.14,0.28,0.24,0.47,0.31C9.2,7.2,9.41,7.24,9.64,7.24z"/>
		<path d="M17.34,8.03c-0.57,0-1.1-0.09-1.6-0.28c-0.5-0.18-0.92-0.4-1.27-0.64l0.46-0.65c0.34,0.24,0.71,0.43,1.12,0.58
			c0.41,0.14,0.88,0.22,1.42,0.22c0.5,0,0.87-0.09,1.11-0.28c0.24-0.18,0.37-0.4,0.37-0.64c0-0.11-0.02-0.22-0.07-0.31
			c-0.04-0.1-0.13-0.19-0.25-0.28s-0.31-0.17-0.55-0.25c-0.24-0.08-0.56-0.16-0.96-0.24c-0.76-0.16-1.33-0.38-1.71-0.65
			C15.02,4.35,14.83,4,14.83,3.56c0-0.47,0.2-0.87,0.61-1.18c0.41-0.32,1.01-0.47,1.81-0.47c0.45,0,0.88,0.07,1.3,0.22
			c0.42,0.15,0.77,0.32,1.06,0.52l-0.48,0.64c-0.26-0.19-0.56-0.34-0.9-0.45c-0.34-0.11-0.69-0.16-1.06-0.16
			c-0.34,0-0.6,0.04-0.8,0.11s-0.34,0.18-0.42,0.31s-0.13,0.27-0.13,0.42c0,0.25,0.13,0.44,0.4,0.58c0.27,0.14,0.7,0.27,1.29,0.39
			c0.65,0.14,1.15,0.29,1.49,0.46s0.59,0.36,0.72,0.58c0.13,0.22,0.2,0.47,0.2,0.77c0,0.32-0.1,0.61-0.3,0.87
			c-0.2,0.26-0.49,0.47-0.88,0.63C18.37,7.95,17.9,8.03,17.34,8.03z"/>
		<path d="M23.77,8.03c-0.7,0-1.21-0.2-1.54-0.6c-0.33-0.4-0.49-0.98-0.49-1.75V2.05h1v3.49c0,0.55,0.1,0.96,0.31,1.23
			c0.2,0.27,0.55,0.4,1.04,0.4c0.34,0,0.64-0.09,0.92-0.26c0.28-0.17,0.57-0.45,0.89-0.82V2.05h0.98v5.83h-0.8l-0.08-1.02h-0.05
			c-0.3,0.34-0.62,0.61-0.97,0.83C24.62,7.92,24.22,8.03,23.77,8.03z"/>
		<path d="M29.14,7.88V2.05h0.82l0.08,1h0.05c0.3-0.33,0.63-0.6,0.98-0.82c0.35-0.22,0.76-0.32,1.21-0.32c0.69,0,1.2,0.2,1.52,0.6
			c0.33,0.4,0.49,0.98,0.49,1.75v3.62h-0.98V4.39c0-0.55-0.1-0.96-0.31-1.23c-0.21-0.27-0.55-0.4-1.03-0.4
			c-0.34,0-0.65,0.09-0.92,0.26c-0.27,0.18-0.58,0.44-0.92,0.79v4.07H29.14z"/>
	</g>
	<rect x="29.14" width="5.16" height="0.84"/>
</g>
</svg>
